{"glyphs":{"0":{"ha":633,"x_min":42,"x_max":592,"o":"m 317 -17 q 165 27 225 -17 q 74 179 106 71 q 42 476 42 288 q 74 774 42 665 q 165 926 106 882 q 317 969 225 969 q 467 925 407 969 q 560 772 528 881 q 592 476 592 664 q 560 181 592 289 q 467 28 528 72 q 317 -17 407 -17 m 317 124 q 380 156 358 124 q 410 252 401 188 q 418 428 418 317 l 418 525 q 410 701 418 636 q 380 797 401 765 q 317 829 358 829 q 253 797 275 829 q 224 701 232 765 q 215 525 215 636 l 215 428 q 224 252 215 317 q 253 156 232 188 q 317 124 275 124 z "},"1":{"ha":633,"x_min":54,"x_max":632,"o":"m 56 140 l 269 140 l 269 735 l 54 735 l 54 846 q 203 883 115 853 q 354 953 290 913 l 436 953 l 436 140 l 632 140 l 632 0 l 56 0 l 56 140 z "},"2":{"ha":633,"x_min":46,"x_max":592,"o":"m 46 33 q 73 170 46 106 q 149 299 100 235 q 236 400 186 346 q 331 512 297 468 q 389 610 365 556 q 413 724 413 664 q 392 795 413 764 q 325 826 371 826 q 253 786 276 826 q 229 682 229 746 l 229 625 l 58 625 q 56 644 57 629 q 54 681 54 660 q 133 897 54 825 q 332 969 211 969 q 517 908 446 969 q 588 722 588 847 q 553 565 588 642 q 472 426 518 488 q 354 283 425 365 q 283 200 293 214 q 254 156 263 172 l 592 156 l 592 0 l 46 0 l 46 33 z "},"3":{"ha":633,"x_min":35,"x_max":592,"o":"m 317 -17 q 108 60 182 -17 q 35 269 35 138 l 35 294 l 208 294 l 208 265 q 235 160 208 197 q 314 124 263 124 q 390 159 363 124 q 418 264 418 194 q 304 414 418 414 l 258 414 l 258 554 l 307 554 q 375 592 349 554 q 401 701 401 631 q 314 829 401 829 q 248 796 271 829 q 225 696 225 763 l 225 669 l 51 669 l 51 708 q 85 845 51 786 q 177 937 118 904 q 313 969 236 969 q 504 901 433 969 q 575 708 575 833 q 542 578 575 629 q 451 494 510 528 l 451 489 q 553 406 515 465 q 592 256 592 346 q 515 57 592 131 q 317 -17 439 -17 z "},"4":{"ha":633,"x_min":11,"x_max":618,"o":"m 354 215 l 11 215 l 11 349 q 145 639 83 475 q 251 969 207 803 l 418 969 q 344 730 394 856 q 240 502 293 604 q 156 356 188 400 l 354 356 l 354 569 q 407 696 381 622 q 447 828 433 769 l 521 828 l 521 356 l 618 356 l 618 215 l 521 215 l 521 0 l 354 0 l 354 215 z "},"5":{"ha":633,"x_min":42,"x_max":601,"o":"m 322 -17 q 118 67 194 -17 q 42 296 42 151 l 215 296 q 244 169 215 215 q 322 122 272 122 q 400 171 371 122 q 429 311 429 219 q 402 438 429 392 q 332 483 375 483 q 229 403 265 483 l 68 425 l 100 953 l 561 953 l 561 797 l 247 797 l 233 572 q 369 619 292 619 q 537 541 472 619 q 601 311 601 463 q 527 69 601 156 q 322 -17 453 -17 z "},"6":{"ha":633,"x_min":42,"x_max":592,"o":"m 329 -17 q 115 90 188 -17 q 42 449 42 196 q 74 757 42 642 q 166 921 106 872 q 317 969 226 969 q 505 885 443 969 q 567 660 567 800 l 396 660 q 376 787 396 744 q 311 829 357 829 q 249 793 269 829 q 222 694 229 757 q 214 524 215 632 q 276 579 238 560 q 361 599 315 599 q 533 514 474 599 q 592 292 592 429 q 558 128 592 199 q 464 21 524 58 q 329 -17 404 -17 m 322 124 q 395 170 371 124 q 419 292 419 217 q 395 417 419 371 q 322 463 371 463 q 249 417 274 463 q 224 292 224 371 q 249 170 224 217 q 322 124 274 124 z "},"7":{"ha":633,"x_min":32,"x_max":601,"o":"m 138 0 q 219 426 138 214 q 421 797 300 638 l 32 797 l 32 953 l 601 953 l 601 840 q 402 465 483 663 q 321 71 321 268 q 322 0 321 33 l 138 0 z "},"8":{"ha":633,"x_min":42,"x_max":592,"o":"m 317 -17 q 110 60 178 -17 q 42 261 42 138 q 164 489 42 428 q 87 578 113 522 q 61 704 61 635 q 128 894 61 819 q 317 969 194 969 q 506 894 439 969 q 572 704 572 819 q 546 578 572 635 q 468 489 519 522 q 592 261 592 428 q 524 60 592 138 q 317 -17 456 -17 m 317 556 q 381 591 358 556 q 404 693 404 626 q 381 795 404 760 q 317 831 358 831 q 253 796 275 831 q 231 693 231 761 q 253 590 231 625 q 317 556 275 556 m 317 122 q 393 160 367 122 q 419 269 419 197 q 393 380 419 342 q 317 418 367 418 q 240 380 267 418 q 214 269 214 342 q 240 160 214 197 q 317 122 267 122 z "},"9":{"ha":633,"x_min":42,"x_max":592,"o":"m 317 -17 q 128 68 190 -17 q 67 293 67 153 l 238 293 q 257 166 238 208 q 322 124 276 124 q 384 160 364 124 q 411 258 404 196 q 419 429 418 321 q 357 374 396 393 q 272 354 318 354 q 101 439 160 354 q 42 661 42 524 q 76 824 42 754 q 169 932 110 894 q 304 969 229 969 q 519 863 446 969 q 592 504 592 757 q 560 196 592 311 q 467 32 528 81 q 317 -17 407 -17 m 311 490 q 385 536 360 490 q 410 661 410 582 q 385 783 410 736 q 311 829 360 829 q 238 783 263 829 q 214 661 214 736 q 238 536 214 582 q 311 490 263 490 z "},"\u0000":{"ha":0,"x_min":0,"x_max":0,"o":""},"\r":{"ha":317,"x_min":0,"x_max":0,"o":""}," ":{"ha":317,"x_min":0,"x_max":0,"o":""},"A":{"ha":822,"x_min":0,"x_max":821,"o":"m 307 953 l 514 953 l 821 0 l 639 0 l 581 188 l 229 188 l 172 0 l 0 0 l 307 953 m 532 346 l 436 664 q 418 738 426 694 q 408 793 410 781 l 403 793 q 392 735 400 779 q 375 664 383 692 l 278 346 l 532 346 z "},"Á":{"ha":822,"x_min":0,"x_max":821,"o":"m 435 1226 l 601 1226 l 603 1222 l 453 1043 l 315 1043 l 435 1226 m 307 953 l 514 953 l 821 0 l 639 0 l 581 188 l 229 188 l 172 0 l 0 0 l 307 953 m 532 346 l 436 664 q 418 738 426 694 q 408 793 410 781 l 403 793 q 392 735 400 779 q 375 664 383 692 l 278 346 l 532 346 z "},"Ă":{"ha":822,"x_min":0,"x_max":821,"o":"m 410 1078 q 314 1100 356 1078 q 249 1156 272 1122 q 226 1226 226 1190 l 329 1226 q 356 1195 333 1210 q 410 1181 379 1181 q 468 1195 444 1181 q 493 1226 492 1210 l 597 1226 q 574 1156 597 1190 q 508 1100 550 1122 q 410 1078 465 1078 m 307 953 l 514 953 l 821 0 l 639 0 l 581 188 l 229 188 l 172 0 l 0 0 l 307 953 m 532 346 l 436 664 q 418 738 426 694 q 408 793 410 781 l 403 793 q 392 735 400 779 q 375 664 383 692 l 278 346 l 532 346 z "},"Â":{"ha":822,"x_min":0,"x_max":821,"o":"m 344 1226 l 481 1226 l 599 1039 l 474 1039 l 411 1135 l 349 1039 l 225 1039 l 344 1226 m 307 953 l 514 953 l 821 0 l 639 0 l 581 188 l 229 188 l 172 0 l 0 0 l 307 953 m 532 346 l 436 664 q 418 738 426 694 q 408 793 410 781 l 403 793 q 392 735 400 779 q 375 664 383 692 l 278 346 l 532 346 z "},"Ä":{"ha":822,"x_min":0,"x_max":821,"o":"m 221 1226 l 360 1226 l 360 1075 l 221 1075 l 221 1226 m 463 1226 l 603 1226 l 603 1075 l 463 1075 l 463 1226 m 307 953 l 514 953 l 821 0 l 639 0 l 581 188 l 229 188 l 172 0 l 0 0 l 307 953 m 532 346 l 436 664 q 418 738 426 694 q 408 793 410 781 l 403 793 q 392 735 400 779 q 375 664 383 692 l 278 346 l 532 346 z "},"À":{"ha":822,"x_min":0,"x_max":821,"o":"m 219 1222 l 221 1226 l 388 1226 l 507 1043 l 369 1043 l 219 1222 m 307 953 l 514 953 l 821 0 l 639 0 l 581 188 l 229 188 l 172 0 l 0 0 l 307 953 m 532 346 l 436 664 q 418 738 426 694 q 408 793 410 781 l 403 793 q 392 735 400 779 q 375 664 383 692 l 278 346 l 532 346 z "},"Ā":{"ha":822,"x_min":0,"x_max":821,"o":"m 233 1175 l 589 1175 l 589 1054 l 233 1054 l 233 1175 m 307 953 l 514 953 l 821 0 l 639 0 l 581 188 l 229 188 l 172 0 l 0 0 l 307 953 m 532 346 l 436 664 q 418 738 426 694 q 408 793 410 781 l 403 793 q 392 735 400 779 q 375 664 383 692 l 278 346 l 532 346 z "},"Ą":{"ha":822,"x_min":0,"x_max":844,"o":"m 844 -168 l 844 -244 q 753 -264 794 -264 q 656 -234 696 -264 q 615 -139 615 -204 q 631 -62 615 -94 q 675 0 646 -31 l 639 0 l 581 188 l 229 188 l 172 0 l 0 0 l 307 953 l 514 953 l 821 0 l 792 0 q 751 -97 751 -51 q 767 -148 751 -128 q 814 -168 782 -168 l 844 -168 m 532 346 l 436 664 q 418 738 426 694 q 408 793 410 781 l 403 793 q 392 735 400 779 q 375 664 383 692 l 278 346 l 532 346 z "},"Å":{"ha":822,"x_min":0,"x_max":821,"o":"m 411 1001 q 317 1040 357 1001 q 278 1135 278 1079 q 317 1229 278 1190 q 411 1268 356 1268 q 506 1228 467 1268 q 544 1135 544 1189 q 506 1040 544 1079 q 411 1001 467 1001 m 411 1071 q 456 1090 438 1071 q 475 1135 475 1108 q 456 1180 475 1161 q 411 1199 438 1199 q 366 1181 385 1199 q 347 1135 347 1163 q 366 1090 347 1108 q 411 1071 385 1071 m 307 953 l 514 953 l 821 0 l 639 0 l 581 188 l 229 188 l 172 0 l 0 0 l 307 953 m 532 346 l 436 664 q 418 738 426 694 q 408 793 410 781 l 403 793 q 392 735 400 779 q 375 664 383 692 l 278 346 l 532 346 z "},"Ǻ":{"ha":849,"x_min":0,"x_max":821,"o":"m 449 1329 l 615 1329 l 617 1325 l 489 1178 l 351 1178 l 449 1329 m 301 936 q 278 1011 278 968 q 317 1102 278 1064 q 411 1140 356 1140 q 506 1102 467 1140 q 544 1011 544 1064 q 519 935 544 971 l 821 0 l 639 0 l 581 188 l 229 188 l 172 0 l 0 0 l 301 936 m 411 949 q 456 967 438 949 q 475 1011 475 985 q 456 1055 475 1038 q 411 1072 438 1072 q 365 1055 383 1072 q 347 1011 347 1038 q 365 967 347 985 q 411 949 383 949 m 532 346 l 436 664 q 418 738 426 694 q 408 793 410 781 l 403 793 q 392 735 400 779 q 375 664 383 692 l 278 346 l 532 346 z "},"Ã":{"ha":822,"x_min":0,"x_max":821,"o":"m 178 1057 q 213 1175 178 1124 q 314 1226 247 1226 q 356 1220 336 1226 q 410 1200 375 1214 q 458 1181 439 1188 q 499 1175 478 1175 q 535 1187 522 1175 q 553 1226 549 1199 l 644 1226 q 610 1108 644 1160 q 507 1057 575 1057 q 466 1063 485 1057 q 413 1083 447 1069 q 364 1102 383 1096 q 324 1108 344 1108 q 269 1057 276 1108 l 178 1057 m 307 953 l 514 953 l 821 0 l 639 0 l 581 188 l 229 188 l 172 0 l 0 0 l 307 953 m 532 346 l 436 664 q 418 738 426 694 q 408 793 410 781 l 403 793 q 392 735 400 779 q 375 664 383 692 l 278 346 l 532 346 z "},"Æ":{"ha":1139,"x_min":-11,"x_max":1079,"o":"m 354 953 l 1071 953 l 1071 794 l 608 794 l 664 567 l 1010 567 l 1010 408 l 703 408 l 764 158 l 1079 158 l 1079 0 l 621 0 l 575 188 l 224 188 l 154 0 l -11 0 l 354 953 m 538 346 l 456 694 l 440 758 l 435 758 l 410 692 l 282 346 l 538 346 z "},"Ǽ":{"ha":1139,"x_min":-11,"x_max":1079,"o":"m 593 1226 l 760 1226 l 761 1222 l 611 1043 l 474 1043 l 593 1226 m 354 953 l 1071 953 l 1071 794 l 608 794 l 664 567 l 1010 567 l 1010 408 l 703 408 l 764 158 l 1079 158 l 1079 0 l 621 0 l 575 188 l 224 188 l 154 0 l -11 0 l 354 953 m 538 346 l 464 658 l 440 758 l 435 758 l 397 658 l 282 346 l 538 346 z "},"B":{"ha":822,"x_min":83,"x_max":775,"o":"m 83 953 l 493 953 q 627 923 568 953 q 719 840 686 893 q 753 717 753 786 q 712 580 753 638 q 607 500 671 522 l 607 494 q 728 408 681 472 q 775 256 775 344 q 737 120 775 178 q 635 31 699 63 q 493 0 571 0 l 83 0 l 83 953 m 444 567 q 538 600 506 567 q 571 685 571 633 q 539 766 571 738 q 453 794 507 794 l 261 794 l 261 567 l 444 567 m 464 158 q 557 190 521 158 q 593 278 593 221 q 558 373 593 336 q 456 410 522 410 l 261 410 l 261 158 l 464 158 z "},"C":{"ha":822,"x_min":47,"x_max":776,"o":"m 426 -17 q 145 106 243 -17 q 47 476 47 229 q 145 847 47 724 q 426 969 243 969 q 680 876 583 969 q 776 599 776 783 l 594 599 q 549 761 594 706 q 426 817 504 817 q 280 737 329 817 q 231 511 231 657 l 231 442 q 281 216 231 296 q 432 136 332 136 q 557 191 511 136 q 603 353 603 246 l 776 353 q 681 78 776 172 q 426 -17 585 -17 z "},"Ć":{"ha":822,"x_min":47,"x_max":776,"o":"m 450 1226 l 617 1226 l 618 1222 l 468 1043 l 331 1043 l 450 1226 m 426 -17 q 145 106 243 -17 q 47 476 47 229 q 145 847 47 724 q 426 969 243 969 q 680 876 583 969 q 776 599 776 783 l 594 599 q 549 761 594 706 q 426 817 504 817 q 280 737 329 817 q 231 511 231 657 l 231 442 q 281 216 231 296 q 432 136 332 136 q 557 191 511 136 q 603 353 603 246 l 776 353 q 681 78 776 172 q 426 -17 585 -17 z "},"Č":{"ha":822,"x_min":47,"x_max":776,"o":"m 239 1226 l 364 1226 l 426 1131 l 489 1226 l 613 1226 l 494 1039 l 358 1039 l 239 1226 m 426 -17 q 145 106 243 -17 q 47 476 47 229 q 145 847 47 724 q 426 969 243 969 q 680 876 583 969 q 776 599 776 783 l 594 599 q 549 761 594 706 q 426 817 504 817 q 280 737 329 817 q 231 511 231 657 l 231 442 q 281 216 231 296 q 432 136 332 136 q 557 191 511 136 q 603 353 603 246 l 776 353 q 681 78 776 172 q 426 -17 585 -17 z "},"Ç":{"ha":822,"x_min":47,"x_max":776,"o":"m 414 -253 q 297 -242 350 -253 l 297 -174 l 396 -174 q 433 -166 421 -174 q 446 -140 446 -158 q 435 -115 446 -124 q 399 -107 425 -107 l 353 -107 l 364 -12 q 128 128 210 7 q 47 476 47 250 q 145 847 47 724 q 426 969 243 969 q 680 876 583 969 q 776 599 776 783 l 594 599 q 549 761 594 706 q 426 817 504 817 q 280 737 329 817 q 231 511 231 657 l 231 442 q 281 216 231 296 q 432 136 332 136 q 557 191 511 136 q 603 353 603 246 l 776 353 q 690 88 776 182 q 458 -15 603 -6 l 456 -46 q 535 -72 504 -49 q 565 -140 565 -96 q 519 -228 565 -203 q 414 -253 472 -253 z "},"Ĉ":{"ha":822,"x_min":47,"x_max":776,"o":"m 358 1226 l 494 1226 l 613 1039 l 489 1039 l 426 1135 l 364 1039 l 239 1039 l 358 1226 m 426 -17 q 145 106 243 -17 q 47 476 47 229 q 145 847 47 724 q 426 969 243 969 q 680 876 583 969 q 776 599 776 783 l 594 599 q 549 761 594 706 q 426 817 504 817 q 280 737 329 817 q 231 511 231 657 l 231 442 q 281 216 231 296 q 432 136 332 136 q 557 191 511 136 q 603 353 603 246 l 776 353 q 681 78 776 172 q 426 -17 585 -17 z "},"Ċ":{"ha":822,"x_min":47,"x_max":776,"o":"m 351 1226 l 500 1226 l 500 1067 l 351 1067 l 351 1226 m 426 -17 q 145 106 243 -17 q 47 476 47 229 q 145 847 47 724 q 426 969 243 969 q 680 876 583 969 q 776 599 776 783 l 594 599 q 549 761 594 706 q 426 817 504 817 q 280 737 329 817 q 231 511 231 657 l 231 442 q 281 216 231 296 q 432 136 332 136 q 557 191 511 136 q 603 353 603 246 l 776 353 q 681 78 776 172 q 426 -17 585 -17 z "},"D":{"ha":822,"x_min":83,"x_max":775,"o":"m 83 953 l 393 953 q 674 835 574 953 q 775 490 775 717 q 675 125 775 250 q 393 0 575 0 l 83 0 l 83 953 m 376 158 q 535 234 478 158 q 592 456 592 310 l 592 525 q 535 726 592 657 q 376 794 478 794 l 261 794 l 261 158 l 376 158 z "},"Ð":{"ha":822,"x_min":14,"x_max":775,"o":"m 83 433 l 14 433 l 14 551 l 83 551 l 83 953 l 393 953 q 674 835 574 953 q 775 490 775 717 q 675 125 775 250 q 393 0 575 0 l 83 0 l 83 433 m 376 158 q 535 234 478 158 q 592 456 592 310 l 592 525 q 535 726 592 657 q 376 794 478 794 l 261 794 l 261 551 l 435 551 l 435 433 l 261 433 l 261 158 l 376 158 z "},"Ď":{"ha":822,"x_min":83,"x_max":775,"o":"m 165 1226 l 290 1226 l 353 1131 l 414 1226 l 539 1226 l 421 1039 l 285 1039 l 165 1226 m 83 953 l 393 953 q 674 835 574 953 q 775 490 775 717 q 675 125 775 250 q 393 0 575 0 l 83 0 l 83 953 m 376 158 q 535 234 478 158 q 592 456 592 310 l 592 525 q 535 726 592 657 q 376 794 478 794 l 261 794 l 261 158 l 376 158 z "},"Đ":{"ha":822,"x_min":14,"x_max":775,"o":"m 83 433 l 14 433 l 14 551 l 83 551 l 83 953 l 393 953 q 674 835 574 953 q 775 490 775 717 q 675 125 775 250 q 393 0 575 0 l 83 0 l 83 433 m 376 158 q 535 234 478 158 q 592 456 592 310 l 592 525 q 535 726 592 657 q 376 794 478 794 l 261 794 l 261 551 l 435 551 l 435 433 l 261 433 l 261 158 l 376 158 z "},"E":{"ha":760,"x_min":83,"x_max":699,"o":"m 83 953 l 690 953 l 690 794 l 261 794 l 261 567 l 629 567 l 629 408 l 261 408 l 261 158 l 699 158 l 699 0 l 83 0 l 83 953 z "},"É":{"ha":760,"x_min":83,"x_max":699,"o":"m 404 1226 l 571 1226 l 572 1222 l 422 1043 l 285 1043 l 404 1226 m 83 953 l 690 953 l 690 794 l 261 794 l 261 567 l 629 567 l 629 408 l 261 408 l 261 158 l 699 158 l 699 0 l 83 0 l 83 953 z "},"Ĕ":{"ha":760,"x_min":83,"x_max":699,"o":"m 379 1078 q 283 1100 325 1078 q 217 1156 240 1122 q 194 1226 194 1190 l 297 1226 q 324 1195 301 1210 q 379 1181 347 1181 q 436 1195 413 1181 q 463 1226 460 1210 l 565 1226 q 542 1156 565 1190 q 477 1100 519 1122 q 379 1078 435 1078 m 83 953 l 690 953 l 690 794 l 261 794 l 261 567 l 629 567 l 629 408 l 261 408 l 261 158 l 699 158 l 699 0 l 83 0 l 83 953 z "},"Ě":{"ha":760,"x_min":83,"x_max":699,"o":"m 193 1226 l 318 1226 l 381 1131 l 442 1226 l 567 1226 l 449 1039 l 313 1039 l 193 1226 m 83 953 l 690 953 l 690 794 l 261 794 l 261 567 l 629 567 l 629 408 l 261 408 l 261 158 l 699 158 l 699 0 l 83 0 l 83 953 z "},"Ê":{"ha":760,"x_min":83,"x_max":699,"o":"m 313 1226 l 449 1226 l 567 1039 l 442 1039 l 381 1135 l 318 1039 l 193 1039 l 313 1226 m 83 953 l 690 953 l 690 794 l 261 794 l 261 567 l 629 567 l 629 408 l 261 408 l 261 158 l 699 158 l 699 0 l 83 0 l 83 953 z "},"Ë":{"ha":760,"x_min":83,"x_max":699,"o":"m 189 1226 l 328 1226 l 328 1075 l 189 1075 l 189 1226 m 432 1226 l 571 1226 l 571 1075 l 432 1075 l 432 1226 m 83 953 l 690 953 l 690 794 l 261 794 l 261 567 l 629 567 l 629 408 l 261 408 l 261 158 l 699 158 l 699 0 l 83 0 l 83 953 z "},"Ė":{"ha":760,"x_min":83,"x_max":699,"o":"m 306 1226 l 454 1226 l 454 1067 l 306 1067 l 306 1226 m 83 953 l 690 953 l 690 794 l 261 794 l 261 567 l 629 567 l 629 408 l 261 408 l 261 158 l 699 158 l 699 0 l 83 0 l 83 953 z "},"È":{"ha":760,"x_min":83,"x_max":699,"o":"m 188 1222 l 189 1226 l 356 1226 l 475 1043 l 338 1043 l 188 1222 m 83 953 l 690 953 l 690 794 l 261 794 l 261 567 l 629 567 l 629 408 l 261 408 l 261 158 l 699 158 l 699 0 l 83 0 l 83 953 z "},"Ē":{"ha":760,"x_min":83,"x_max":699,"o":"m 203 1175 l 557 1175 l 557 1054 l 203 1054 l 203 1175 m 83 953 l 690 953 l 690 794 l 261 794 l 261 567 l 629 567 l 629 408 l 261 408 l 261 158 l 699 158 l 699 0 l 83 0 l 83 953 z "},"Ę":{"ha":760,"x_min":83,"x_max":750,"o":"m 658 -264 q 561 -234 601 -264 q 521 -139 521 -204 q 537 -62 521 -94 q 582 0 553 -31 l 83 0 l 83 953 l 690 953 l 690 794 l 261 794 l 261 567 l 629 567 l 629 408 l 261 408 l 261 158 l 699 158 l 699 0 q 670 -44 683 -18 q 657 -97 657 -71 q 672 -148 657 -128 q 719 -168 688 -168 l 750 -168 l 750 -244 q 658 -264 700 -264 z "},"F":{"ha":696,"x_min":83,"x_max":643,"o":"m 83 953 l 643 953 l 643 794 l 261 794 l 261 554 l 588 554 l 588 396 l 261 396 l 261 0 l 83 0 l 83 953 z "},"G":{"ha":886,"x_min":47,"x_max":815,"o":"m 419 518 l 815 518 l 815 0 l 700 0 l 669 106 q 558 15 624 46 q 415 -17 492 -17 q 142 105 236 -17 q 47 476 47 226 q 151 847 47 725 q 451 969 256 969 q 633 928 550 969 q 765 808 715 888 q 815 619 815 729 l 633 619 q 580 765 633 713 q 446 817 526 817 q 284 738 338 817 q 231 511 231 658 l 231 442 q 284 215 231 293 q 447 136 338 136 q 581 199 529 136 q 633 365 633 263 l 419 365 l 419 518 z "},"Ğ":{"ha":886,"x_min":47,"x_max":815,"o":"m 443 1078 q 347 1100 389 1078 q 281 1156 304 1122 q 258 1226 258 1190 l 361 1226 q 388 1195 365 1210 q 443 1181 411 1181 q 500 1195 476 1181 q 526 1226 524 1210 l 629 1226 q 606 1156 629 1190 q 541 1100 583 1122 q 443 1078 499 1078 m 419 518 l 815 518 l 815 0 l 700 0 l 669 106 q 558 15 624 46 q 415 -17 492 -17 q 142 105 236 -17 q 47 476 47 226 q 151 847 47 725 q 451 969 256 969 q 633 928 550 969 q 765 808 715 888 q 815 619 815 729 l 633 619 q 580 765 633 713 q 446 817 526 817 q 284 738 338 817 q 231 511 231 658 l 231 442 q 284 215 231 293 q 447 136 338 136 q 581 199 529 136 q 633 365 633 263 l 419 365 l 419 518 z "},"Ĝ":{"ha":886,"x_min":47,"x_max":815,"o":"m 382 1039 l 257 1039 l 376 1226 l 513 1226 l 631 1039 l 506 1039 l 444 1135 l 382 1039 m 419 518 l 815 518 l 815 0 l 700 0 l 669 106 q 558 15 624 46 q 415 -17 492 -17 q 142 105 236 -17 q 47 476 47 226 q 151 847 47 725 q 451 969 256 969 q 633 928 550 969 q 765 808 715 888 q 815 619 815 729 l 633 619 q 580 765 633 713 q 446 817 526 817 q 284 738 338 817 q 231 511 231 658 l 231 442 q 284 215 231 293 q 447 136 338 136 q 581 199 529 136 q 633 365 633 263 l 419 365 l 419 518 z "},"Ģ":{"ha":886,"x_min":47,"x_max":815,"o":"m 419 518 l 815 518 l 815 0 l 700 0 l 669 106 q 558 15 624 46 q 415 -17 492 -17 q 142 105 236 -17 q 47 476 47 226 q 151 847 47 725 q 451 969 256 969 q 633 928 550 969 q 765 808 715 888 q 815 619 815 729 l 633 619 q 580 765 633 713 q 446 817 526 817 q 284 738 338 817 q 231 511 231 658 l 231 442 q 284 215 231 293 q 447 136 338 136 q 581 199 529 136 q 633 365 633 263 l 419 365 l 419 518 m 336 -76 l 507 -76 l 507 -232 l 444 -365 l 354 -365 l 404 -247 l 336 -247 l 336 -76 z "},"Ġ":{"ha":886,"x_min":47,"x_max":815,"o":"m 518 1067 l 369 1067 l 369 1226 l 518 1226 l 518 1067 m 419 518 l 815 518 l 815 0 l 700 0 l 669 106 q 558 15 624 46 q 415 -17 492 -17 q 142 105 236 -17 q 47 476 47 226 q 151 847 47 725 q 451 969 256 969 q 633 928 550 969 q 765 808 715 888 q 815 619 815 729 l 633 619 q 580 765 633 713 q 446 817 526 817 q 284 738 338 817 q 231 511 231 658 l 231 442 q 284 215 231 293 q 447 136 338 136 q 581 199 529 136 q 633 365 633 263 l 419 365 l 419 518 z "},"H":{"ha":822,"x_min":83,"x_max":739,"o":"m 83 953 l 261 953 l 261 567 l 561 567 l 561 953 l 739 953 l 739 0 l 561 0 l 561 408 l 261 408 l 261 0 l 83 0 l 83 953 z "},"Ħ":{"ha":822,"x_min":14,"x_max":808,"o":"m 83 681 l 14 681 l 14 801 l 83 801 l 83 953 l 261 953 l 261 801 l 561 801 l 561 953 l 739 953 l 739 801 l 808 801 l 808 681 l 739 681 l 739 0 l 561 0 l 561 399 l 261 399 l 261 0 l 83 0 l 83 681 m 561 557 l 561 681 l 261 681 l 261 557 l 561 557 z "},"Ĥ":{"ha":822,"x_min":83,"x_max":739,"o":"m 344 1226 l 481 1226 l 599 1039 l 474 1039 l 411 1135 l 349 1039 l 225 1039 l 344 1226 m 83 953 l 261 953 l 261 567 l 561 567 l 561 953 l 739 953 l 739 0 l 561 0 l 561 408 l 261 408 l 261 0 l 83 0 l 83 953 z "},"I":{"ha":317,"x_min":69,"x_max":247,"o":"m 69 953 l 247 953 l 247 0 l 69 0 l 69 953 z "},"Ĳ":{"ha":950,"x_min":69,"x_max":867,"o":"m 69 953 l 247 953 l 247 0 l 69 0 l 69 953 m 599 -17 q 399 46 469 -17 q 329 226 329 108 l 329 300 l 506 300 l 506 240 q 529 163 506 190 q 599 136 553 136 q 666 163 643 136 q 689 240 689 190 l 689 953 l 867 953 l 867 226 q 797 46 867 108 q 599 -17 728 -17 z "},"Í":{"ha":317,"x_min":63,"x_max":350,"o":"m 182 1226 l 349 1226 l 350 1222 l 201 1043 l 63 1043 l 182 1226 m 69 953 l 247 953 l 247 0 l 69 0 l 69 953 z "},"Ĭ":{"ha":317,"x_min":-28,"x_max":344,"o":"m 158 1078 q 62 1100 104 1078 q -4 1156 19 1122 q -28 1226 -28 1190 l 76 1226 q 103 1195 81 1210 q 158 1181 126 1181 q 215 1195 192 1181 q 242 1226 239 1210 l 344 1226 q 322 1156 344 1190 q 256 1100 299 1122 q 158 1078 214 1078 m 69 953 l 247 953 l 247 0 l 69 0 l 69 953 z "},"Î":{"ha":317,"x_min":-29,"x_max":346,"o":"m 92 1226 l 228 1226 l 346 1039 l 221 1039 l 160 1135 l 97 1039 l -29 1039 l 92 1226 m 69 953 l 247 953 l 247 0 l 69 0 l 69 953 z "},"Ï":{"ha":317,"x_min":-32,"x_max":350,"o":"m -32 1226 l 107 1226 l 107 1075 l -32 1075 l -32 1226 m 211 1226 l 350 1226 l 350 1075 l 211 1075 l 211 1226 m 69 953 l 247 953 l 247 0 l 69 0 l 69 953 z "},"İ":{"ha":317,"x_min":69,"x_max":247,"o":"m 85 1226 l 233 1226 l 233 1067 l 85 1067 l 85 1226 m 69 953 l 247 953 l 247 0 l 69 0 l 69 953 z "},"Ì":{"ha":317,"x_min":-33,"x_max":254,"o":"m -33 1222 l -32 1226 l 135 1226 l 254 1043 l 117 1043 l -33 1222 m 69 953 l 247 953 l 247 0 l 69 0 l 69 953 z "},"Ī":{"ha":317,"x_min":-19,"x_max":336,"o":"m -19 1175 l 336 1175 l 336 1054 l -19 1054 l -19 1175 m 69 953 l 247 953 l 247 0 l 69 0 l 69 953 z "},"Į":{"ha":317,"x_min":69,"x_max":299,"o":"m 299 -168 l 299 -244 q 207 -264 249 -264 q 110 -234 151 -264 q 69 -139 69 -204 q 85 -62 69 -94 q 129 0 100 -31 l 69 0 l 69 953 l 247 953 l 247 0 q 206 -97 206 -54 q 221 -148 206 -128 q 268 -168 236 -168 l 299 -168 z "},"Ĩ":{"ha":317,"x_min":-75,"x_max":393,"o":"m -75 1057 q -40 1175 -75 1124 q 61 1226 -6 1226 q 104 1220 85 1226 q 158 1200 124 1214 q 208 1181 189 1188 q 247 1175 226 1175 q 283 1187 271 1175 q 300 1226 296 1199 l 393 1226 q 358 1109 393 1161 q 256 1057 322 1057 q 215 1063 233 1057 q 161 1083 196 1069 q 113 1102 132 1096 q 72 1108 93 1108 q 35 1097 49 1108 q 18 1057 22 1085 l -75 1057 m 69 953 l 247 953 l 247 0 l 69 0 l 69 953 z "},"J":{"ha":633,"x_min":13,"x_max":550,"o":"m 282 -17 q 83 46 153 -17 q 13 226 13 108 l 13 300 l 189 300 l 189 240 q 213 163 189 190 q 282 136 236 136 q 349 163 326 136 q 372 240 372 190 l 372 953 l 550 953 l 550 226 q 481 46 550 108 q 282 -17 411 -17 z "},"Ĵ":{"ha":633,"x_min":13,"x_max":665,"o":"m 411 1226 l 549 1226 l 665 1039 l 542 1039 l 479 1135 l 417 1039 l 292 1039 l 411 1226 m 282 -17 q 83 46 153 -17 q 13 226 13 108 l 13 300 l 189 300 l 189 240 q 213 163 189 190 q 282 136 236 136 q 349 163 326 136 q 372 240 372 190 l 372 953 l 550 953 l 550 226 q 481 46 550 108 q 282 -17 411 -17 z "},"K":{"ha":822,"x_min":83,"x_max":818,"o":"m 83 953 l 263 953 l 263 465 l 611 953 l 810 953 l 528 565 l 818 0 l 618 0 l 411 425 l 263 243 l 263 0 l 83 0 l 83 953 z "},"Ķ":{"ha":822,"x_min":83,"x_max":818,"o":"m 83 953 l 263 953 l 263 465 l 611 953 l 810 953 l 528 565 l 818 0 l 618 0 l 411 425 l 263 243 l 263 0 l 83 0 l 83 953 m 393 -247 l 325 -247 l 325 -76 l 497 -76 l 497 -232 l 433 -365 l 344 -365 l 393 -247 z "},"L":{"ha":696,"x_min":83,"x_max":664,"o":"m 83 953 l 261 953 l 261 167 l 664 167 l 664 0 l 83 0 l 83 953 z "},"Ĺ":{"ha":696,"x_min":81,"x_max":664,"o":"m 200 1226 l 367 1226 l 368 1222 l 218 1043 l 81 1043 l 200 1226 m 83 953 l 261 953 l 261 167 l 664 167 l 664 0 l 83 0 l 83 953 z "},"Ľ":{"ha":696,"x_min":83,"x_max":664,"o":"m 83 953 l 261 953 l 261 167 l 664 167 l 664 0 l 83 0 l 83 953 m 549 763 l 472 763 l 472 953 l 664 953 l 664 779 l 572 546 l 472 546 l 549 763 z "},"Ļ":{"ha":696,"x_min":83,"x_max":664,"o":"m 83 953 l 261 953 l 261 167 l 664 167 l 664 0 l 83 0 l 83 953 m 331 -247 l 263 -247 l 263 -76 l 433 -76 l 433 -232 l 371 -365 l 281 -365 l 331 -247 z "},"Ŀ":{"ha":696,"x_min":83,"x_max":664,"o":"m 83 953 l 261 953 l 261 167 l 664 167 l 664 0 l 83 0 l 83 953 m 435 728 l 583 728 l 583 568 l 435 568 l 435 728 z "},"Ł":{"ha":696,"x_min":0,"x_max":664,"o":"m 83 329 l 0 256 l 0 388 l 83 461 l 83 953 l 261 953 l 261 619 l 422 764 l 422 629 l 261 486 l 261 167 l 664 167 l 664 0 l 83 0 l 83 329 z "},"M":{"ha":949,"x_min":74,"x_max":875,"o":"m 74 953 l 324 953 l 442 428 q 463 313 450 389 q 479 213 475 238 l 485 213 q 498 316 488 239 q 517 428 508 393 l 633 953 l 875 953 l 875 0 l 711 0 l 711 607 q 714 695 711 649 q 718 760 717 742 l 713 760 l 679 610 l 546 0 l 392 0 l 257 613 l 224 760 l 218 760 q 222 694 219 742 q 225 607 225 647 l 225 0 l 74 0 l 74 953 z "},"N":{"ha":822,"x_min":83,"x_max":739,"o":"m 83 953 l 240 953 l 535 428 q 559 381 544 413 q 578 339 574 350 l 582 343 l 581 422 l 581 953 l 739 953 l 739 0 l 581 0 l 286 525 q 262 575 275 547 q 243 614 249 603 l 238 610 q 239 578 238 601 q 240 531 240 554 l 240 0 l 83 0 l 83 953 z "},"Ń":{"ha":822,"x_min":83,"x_max":739,"o":"m 435 1226 l 601 1226 l 603 1222 l 453 1043 l 315 1043 l 435 1226 m 83 953 l 240 953 l 535 428 q 559 381 544 413 q 578 339 574 350 l 582 343 l 581 422 l 581 953 l 739 953 l 739 0 l 581 0 l 286 525 q 262 575 275 547 q 243 614 249 603 l 238 610 q 239 578 238 601 q 240 531 240 554 l 240 0 l 83 0 l 83 953 z "},"Ň":{"ha":822,"x_min":83,"x_max":739,"o":"m 225 1226 l 349 1226 l 411 1131 l 474 1226 l 599 1226 l 481 1039 l 344 1039 l 225 1226 m 83 953 l 240 953 l 535 428 q 559 381 544 413 q 578 339 574 350 l 582 343 l 581 422 l 581 953 l 739 953 l 739 0 l 581 0 l 286 525 q 262 575 275 547 q 243 614 249 603 l 238 610 q 239 578 238 601 q 240 531 240 554 l 240 0 l 83 0 l 83 953 z "},"Ņ":{"ha":822,"x_min":83,"x_max":739,"o":"m 83 953 l 240 953 l 535 428 q 559 381 544 413 q 578 339 574 350 l 582 343 l 581 422 l 581 953 l 739 953 l 739 0 l 581 0 l 286 525 q 262 575 275 547 q 243 614 249 603 l 238 610 q 239 578 238 601 q 240 531 240 554 l 240 0 l 83 0 l 83 953 m 393 -247 l 325 -247 l 325 -76 l 497 -76 l 497 -232 l 433 -365 l 344 -365 l 393 -247 z "},"Ŋ":{"ha":824,"x_min":83,"x_max":739,"o":"m 569 -253 q 506 -248 540 -253 q 449 -236 472 -243 l 449 -112 l 511 -112 q 576 -46 576 -112 l 576 0 l 286 525 q 262 575 275 547 q 243 614 249 603 l 238 610 q 239 578 238 601 q 240 531 240 554 l 240 0 l 83 0 l 83 953 l 240 953 l 535 428 q 559 381 544 413 q 578 339 574 350 l 582 343 l 581 422 l 581 953 l 739 953 l 739 -57 q 700 -197 739 -142 q 569 -253 661 -253 z "},"Ñ":{"ha":822,"x_min":83,"x_max":739,"o":"m 178 1057 q 213 1175 178 1124 q 314 1226 247 1226 q 356 1220 336 1226 q 410 1200 375 1214 q 458 1181 439 1188 q 499 1175 478 1175 q 535 1187 522 1175 q 553 1226 549 1199 l 644 1226 q 610 1108 644 1160 q 507 1057 575 1057 q 466 1063 485 1057 q 413 1083 447 1069 q 364 1102 383 1096 q 324 1108 344 1108 q 269 1057 276 1108 l 178 1057 m 83 953 l 240 953 l 535 428 q 559 381 544 413 q 578 339 574 350 l 582 343 l 581 422 l 581 953 l 739 953 l 739 0 l 581 0 l 286 525 q 262 575 275 547 q 243 614 249 603 l 238 610 q 239 578 238 601 q 240 531 240 554 l 240 0 l 83 0 l 83 953 z "},"O":{"ha":886,"x_min":47,"x_max":839,"o":"m 443 -17 q 151 106 254 -17 q 47 476 47 229 q 151 847 47 724 q 443 969 254 969 q 735 847 632 969 q 839 476 839 724 q 735 106 839 229 q 443 -17 632 -17 m 443 136 q 601 216 547 136 q 656 442 656 296 l 656 511 q 601 737 656 657 q 443 817 547 817 q 285 737 339 817 q 231 511 231 657 l 231 442 q 285 216 231 296 q 443 136 339 136 z "},"Ó":{"ha":886,"x_min":47,"x_max":839,"o":"m 467 1226 l 635 1226 l 636 1222 l 486 1043 l 347 1043 l 467 1226 m 443 -17 q 151 106 254 -17 q 47 476 47 229 q 151 847 47 724 q 443 969 254 969 q 735 847 632 969 q 839 476 839 724 q 735 106 839 229 q 443 -17 632 -17 m 443 136 q 601 216 547 136 q 656 442 656 296 l 656 511 q 601 737 656 657 q 443 817 547 817 q 285 737 339 817 q 231 511 231 657 l 231 442 q 285 216 231 296 q 443 136 339 136 z "},"Ŏ":{"ha":886,"x_min":47,"x_max":839,"o":"m 443 1078 q 347 1100 389 1078 q 281 1156 304 1122 q 258 1226 258 1190 l 361 1226 q 388 1195 365 1210 q 443 1181 411 1181 q 500 1195 476 1181 q 526 1226 524 1210 l 629 1226 q 606 1156 629 1190 q 541 1100 583 1122 q 443 1078 499 1078 m 443 -17 q 151 106 254 -17 q 47 476 47 229 q 151 847 47 724 q 443 969 254 969 q 735 847 632 969 q 839 476 839 724 q 735 106 839 229 q 443 -17 632 -17 m 443 136 q 601 216 547 136 q 656 442 656 296 l 656 511 q 601 737 656 657 q 443 817 547 817 q 285 737 339 817 q 231 511 231 657 l 231 442 q 285 216 231 296 q 443 136 339 136 z "},"Ô":{"ha":886,"x_min":47,"x_max":839,"o":"m 376 1226 l 513 1226 l 631 1039 l 506 1039 l 444 1135 l 382 1039 l 257 1039 l 376 1226 m 443 -17 q 151 106 254 -17 q 47 476 47 229 q 151 847 47 724 q 443 969 254 969 q 735 847 632 969 q 839 476 839 724 q 735 106 839 229 q 443 -17 632 -17 m 443 136 q 601 216 547 136 q 656 442 656 296 l 656 511 q 601 737 656 657 q 443 817 547 817 q 285 737 339 817 q 231 511 231 657 l 231 442 q 285 216 231 296 q 443 136 339 136 z "},"Ö":{"ha":886,"x_min":47,"x_max":839,"o":"m 253 1226 l 392 1226 l 392 1075 l 253 1075 l 253 1226 m 496 1226 l 635 1226 l 635 1075 l 496 1075 l 496 1226 m 443 -17 q 151 106 254 -17 q 47 476 47 229 q 151 847 47 724 q 443 969 254 969 q 735 847 632 969 q 839 476 839 724 q 735 106 839 229 q 443 -17 632 -17 m 443 136 q 601 216 547 136 q 656 442 656 296 l 656 511 q 601 737 656 657 q 443 817 547 817 q 285 737 339 817 q 231 511 231 657 l 231 442 q 285 216 231 296 q 443 136 339 136 z "},"Ò":{"ha":886,"x_min":47,"x_max":839,"o":"m 251 1222 l 253 1226 l 419 1226 l 539 1043 l 401 1043 l 251 1222 m 443 -17 q 151 106 254 -17 q 47 476 47 229 q 151 847 47 724 q 443 969 254 969 q 735 847 632 969 q 839 476 839 724 q 735 106 839 229 q 443 -17 632 -17 m 443 136 q 601 216 547 136 q 656 442 656 296 l 656 511 q 601 737 656 657 q 443 817 547 817 q 285 737 339 817 q 231 511 231 657 l 231 442 q 285 216 231 296 q 443 136 339 136 z "},"Ő":{"ha":886,"x_min":47,"x_max":839,"o":"m 374 1226 l 513 1226 l 514 1222 l 397 1043 l 288 1043 l 374 1226 m 568 1226 l 707 1226 l 708 1222 l 592 1043 l 482 1043 l 568 1226 m 443 -17 q 151 106 254 -17 q 47 476 47 229 q 151 847 47 724 q 443 969 254 969 q 735 847 632 969 q 839 476 839 724 q 735 106 839 229 q 443 -17 632 -17 m 443 136 q 601 216 547 136 q 656 442 656 296 l 656 511 q 601 737 656 657 q 443 817 547 817 q 285 737 339 817 q 231 511 231 657 l 231 442 q 285 216 231 296 q 443 136 339 136 z "},"Ō":{"ha":886,"x_min":47,"x_max":839,"o":"m 267 1175 l 621 1175 l 621 1054 l 267 1054 l 267 1175 m 443 -17 q 151 106 254 -17 q 47 476 47 229 q 151 847 47 724 q 443 969 254 969 q 735 847 632 969 q 839 476 839 724 q 735 106 839 229 q 443 -17 632 -17 m 443 136 q 601 216 547 136 q 656 442 656 296 l 656 511 q 601 737 656 657 q 443 817 547 817 q 285 737 339 817 q 231 511 231 657 l 231 442 q 285 216 231 296 q 443 136 339 136 z "},"Ø":{"ha":886,"x_min":47,"x_max":839,"o":"m 153 104 q 47 476 47 229 q 151 847 47 724 q 443 969 254 969 q 658 914 569 969 l 715 1004 l 832 1004 l 733 847 q 839 476 839 722 q 735 106 839 229 q 443 -17 632 -17 q 228 38 318 -17 l 172 -51 l 56 -51 l 153 104 m 569 772 q 443 817 521 817 q 285 737 339 817 q 231 511 231 657 l 231 442 q 256 269 231 340 l 569 772 m 443 136 q 601 216 547 136 q 656 442 656 296 l 656 511 q 629 681 656 614 l 317 179 q 443 136 367 136 z "},"Ǿ":{"ha":886,"x_min":47,"x_max":839,"o":"m 467 1226 l 635 1226 l 636 1222 l 486 1043 l 347 1043 l 467 1226 m 153 104 q 47 476 47 229 q 151 847 47 724 q 443 969 254 969 q 658 914 569 969 l 715 1004 l 832 1004 l 733 847 q 839 476 839 722 q 735 106 839 229 q 443 -17 632 -17 q 228 38 318 -17 l 172 -51 l 56 -51 l 153 104 m 569 772 q 443 817 521 817 q 285 737 339 817 q 231 511 231 657 l 231 442 q 256 269 231 340 l 569 772 m 443 136 q 601 216 547 136 q 656 442 656 296 l 656 511 q 629 681 656 614 l 317 179 q 443 136 367 136 z "},"Õ":{"ha":886,"x_min":47,"x_max":839,"o":"m 210 1057 q 245 1174 210 1122 q 347 1226 281 1226 q 389 1220 369 1226 q 443 1200 408 1214 q 492 1181 474 1188 q 532 1175 511 1175 q 568 1187 556 1175 q 585 1226 581 1199 l 678 1226 q 642 1109 678 1161 q 540 1057 607 1057 q 499 1063 518 1057 q 446 1083 481 1069 q 397 1102 417 1096 q 357 1108 378 1108 q 320 1097 333 1108 q 303 1057 307 1085 l 210 1057 m 443 -17 q 151 106 254 -17 q 47 476 47 229 q 151 847 47 724 q 443 969 254 969 q 735 847 632 969 q 839 476 839 724 q 735 106 839 229 q 443 -17 632 -17 m 443 136 q 601 216 547 136 q 656 442 656 296 l 656 511 q 601 737 656 657 q 443 817 547 817 q 285 737 339 817 q 231 511 231 657 l 231 442 q 285 216 231 296 q 443 136 339 136 z "},"Œ":{"ha":1139,"x_min":42,"x_max":1100,"o":"m 358 -17 q 125 107 208 -17 q 42 476 42 231 q 125 846 42 722 q 358 969 208 969 q 567 867 489 969 l 567 953 l 1090 953 l 1090 794 l 744 794 l 744 567 l 1031 567 l 1031 408 l 744 408 l 744 158 l 1100 158 l 1100 0 l 567 0 l 567 85 q 358 -17 490 -17 m 394 136 q 524 208 482 136 q 565 442 565 281 l 565 511 q 524 744 565 672 q 394 817 482 817 q 267 744 308 817 q 225 511 225 672 l 225 442 q 267 208 225 281 q 394 136 308 136 z "},"P":{"ha":760,"x_min":83,"x_max":722,"o":"m 83 953 l 424 953 q 644 874 567 953 q 722 667 722 794 q 685 510 722 578 q 580 406 647 443 q 424 369 513 369 l 261 369 l 261 0 l 83 0 l 83 953 m 406 526 q 504 563 469 526 q 539 667 539 600 q 503 760 539 725 q 406 794 468 794 l 261 794 l 261 526 l 406 526 z "},"Þ":{"ha":760,"x_min":83,"x_max":722,"o":"m 83 953 l 261 953 l 261 783 l 424 783 q 644 704 567 783 q 722 497 722 625 q 685 341 722 408 q 580 237 647 274 q 424 200 513 200 l 261 200 l 261 0 l 83 0 l 83 953 m 406 357 q 504 394 469 357 q 539 497 539 431 q 503 590 539 556 q 406 625 468 625 l 261 625 l 261 357 l 406 357 z "},"Q":{"ha":886,"x_min":47,"x_max":839,"o":"m 460 -17 l 443 -17 q 151 106 254 -17 q 47 476 47 229 q 151 847 47 724 q 443 969 254 969 q 735 847 632 969 q 839 476 839 724 q 785 188 839 301 q 632 24 732 75 l 815 -172 l 597 -172 l 460 -17 m 443 136 q 601 216 547 136 q 656 442 656 296 l 656 511 q 601 737 656 657 q 443 817 547 817 q 285 737 339 817 q 231 511 231 657 l 231 442 q 285 216 231 296 q 443 136 339 136 z "},"R":{"ha":822,"x_min":83,"x_max":797,"o":"m 83 953 l 482 953 q 698 878 622 953 q 774 681 774 803 q 731 531 774 594 q 614 436 689 467 l 797 0 l 604 0 l 446 397 l 261 397 l 261 0 l 83 0 l 83 953 m 457 554 q 551 587 519 554 q 582 681 582 619 q 553 765 582 735 q 464 794 524 794 l 261 794 l 261 554 l 457 554 z "},"Ŕ":{"ha":822,"x_min":83,"x_max":797,"o":"m 435 1226 l 601 1226 l 603 1222 l 453 1043 l 315 1043 l 435 1226 m 83 953 l 482 953 q 698 878 622 953 q 774 681 774 803 q 731 531 774 594 q 614 436 689 467 l 797 0 l 604 0 l 446 397 l 261 397 l 261 0 l 83 0 l 83 953 m 457 554 q 551 587 519 554 q 582 681 582 619 q 553 765 582 735 q 464 794 524 794 l 261 794 l 261 554 l 457 554 z "},"Ř":{"ha":822,"x_min":83,"x_max":797,"o":"m 225 1226 l 349 1226 l 411 1131 l 474 1226 l 599 1226 l 481 1039 l 344 1039 l 225 1226 m 83 953 l 482 953 q 698 878 622 953 q 774 681 774 803 q 731 531 774 594 q 614 436 689 467 l 797 0 l 604 0 l 446 397 l 261 397 l 261 0 l 83 0 l 83 953 m 457 554 q 551 587 519 554 q 582 681 582 619 q 553 765 582 735 q 464 794 524 794 l 261 794 l 261 554 l 457 554 z "},"Ŗ":{"ha":822,"x_min":83,"x_max":797,"o":"m 83 953 l 482 953 q 698 878 622 953 q 774 681 774 803 q 731 531 774 594 q 614 436 689 467 l 797 0 l 604 0 l 446 397 l 261 397 l 261 0 l 83 0 l 83 953 m 457 554 q 551 587 519 554 q 582 681 582 619 q 553 765 582 735 q 464 794 524 794 l 261 794 l 261 554 l 457 554 m 393 -247 l 325 -247 l 325 -76 l 497 -76 l 497 -232 l 433 -365 l 344 -365 l 393 -247 z "},"S":{"ha":760,"x_min":42,"x_max":707,"o":"m 371 -17 q 206 17 281 -17 q 86 118 131 51 q 42 279 42 185 l 43 310 l 228 310 l 226 288 q 267 177 226 218 q 379 136 307 136 q 488 169 453 136 q 524 249 524 201 q 499 326 524 296 q 437 372 474 356 q 333 411 400 389 q 192 467 246 439 q 99 551 138 494 q 61 703 61 608 q 104 849 61 789 q 219 940 147 910 q 379 969 292 969 q 602 899 515 969 q 689 689 689 829 l 689 672 l 507 672 l 507 685 q 472 781 507 746 q 378 817 438 817 q 280 788 315 817 q 244 715 244 760 q 268 651 244 676 q 327 611 292 626 q 425 576 363 596 q 571 520 515 547 q 667 436 626 493 q 707 286 707 379 q 617 56 707 129 q 371 -17 528 -17 z "},"Ś":{"ha":760,"x_min":42,"x_max":707,"o":"m 404 1226 l 571 1226 l 572 1222 l 422 1043 l 285 1043 l 404 1226 m 371 -17 q 206 17 281 -17 q 86 118 131 51 q 42 279 42 185 l 43 310 l 228 310 l 226 288 q 267 177 226 218 q 379 136 307 136 q 488 169 453 136 q 524 249 524 201 q 499 326 524 296 q 437 372 474 356 q 333 411 400 389 q 192 467 246 439 q 99 551 138 494 q 61 703 61 608 q 104 849 61 789 q 219 940 147 910 q 379 969 292 969 q 602 899 515 969 q 689 689 689 829 l 689 672 l 507 672 l 507 685 q 472 781 507 746 q 378 817 438 817 q 280 788 315 817 q 244 715 244 760 q 268 651 244 676 q 327 611 292 626 q 425 576 363 596 q 571 520 515 547 q 667 436 626 493 q 707 286 707 379 q 617 56 707 129 q 371 -17 528 -17 z "},"Š":{"ha":760,"x_min":42,"x_max":707,"o":"m 193 1226 l 318 1226 l 381 1131 l 442 1226 l 567 1226 l 449 1039 l 313 1039 l 193 1226 m 371 -17 q 206 17 281 -17 q 86 118 131 51 q 42 279 42 185 l 43 310 l 228 310 l 226 288 q 267 177 226 218 q 379 136 307 136 q 488 169 453 136 q 524 249 524 201 q 499 326 524 296 q 437 372 474 356 q 333 411 400 389 q 192 467 246 439 q 99 551 138 494 q 61 703 61 608 q 104 849 61 789 q 219 940 147 910 q 379 969 292 969 q 602 899 515 969 q 689 689 689 829 l 689 672 l 507 672 l 507 685 q 472 781 507 746 q 378 817 438 817 q 280 788 315 817 q 244 715 244 760 q 268 651 244 676 q 327 611 292 626 q 425 576 363 596 q 571 520 515 547 q 667 436 626 493 q 707 286 707 379 q 617 56 707 129 q 371 -17 528 -17 z "},"Ş":{"ha":760,"x_min":42,"x_max":707,"o":"m 363 -253 q 246 -242 299 -253 l 246 -174 l 344 -174 q 382 -166 369 -174 q 394 -140 394 -158 q 384 -115 394 -124 q 347 -107 374 -107 l 301 -107 l 313 -12 q 118 77 194 1 q 42 279 42 153 l 43 310 l 228 310 l 226 288 q 267 177 226 218 q 379 136 307 136 q 488 169 453 136 q 524 249 524 201 q 499 326 524 296 q 437 372 474 356 q 333 411 400 389 q 192 467 246 439 q 99 551 138 494 q 61 703 61 608 q 104 849 61 789 q 219 940 147 910 q 379 969 292 969 q 602 899 515 969 q 689 689 689 829 l 689 672 l 507 672 l 507 685 q 472 781 507 746 q 378 817 438 817 q 280 788 315 817 q 244 715 244 760 q 268 651 244 676 q 327 611 292 626 q 425 576 363 596 q 571 520 515 547 q 667 436 626 493 q 707 286 707 379 q 627 66 707 139 q 407 -15 547 -7 l 404 -46 q 483 -72 453 -49 q 514 -140 514 -96 q 467 -228 514 -203 q 363 -253 421 -253 z "},"Ŝ":{"ha":760,"x_min":42,"x_max":707,"o":"m 313 1226 l 449 1226 l 567 1039 l 442 1039 l 381 1135 l 318 1039 l 193 1039 l 313 1226 m 371 -17 q 206 17 281 -17 q 86 118 131 51 q 42 279 42 185 l 43 310 l 228 310 l 226 288 q 267 177 226 218 q 379 136 307 136 q 488 169 453 136 q 524 249 524 201 q 499 326 524 296 q 437 372 474 356 q 333 411 400 389 q 192 467 246 439 q 99 551 138 494 q 61 703 61 608 q 104 849 61 789 q 219 940 147 910 q 379 969 292 969 q 602 899 515 969 q 689 689 689 829 l 689 672 l 507 672 l 507 685 q 472 781 507 746 q 378 817 438 817 q 280 788 315 817 q 244 715 244 760 q 268 651 244 676 q 327 611 292 626 q 425 576 363 596 q 571 520 515 547 q 667 436 626 493 q 707 286 707 379 q 617 56 707 129 q 371 -17 528 -17 z "},"T":{"ha":696,"x_min":24,"x_max":674,"o":"m 260 794 l 24 794 l 24 953 l 674 953 l 674 794 l 438 794 l 438 0 l 260 0 l 260 794 z "},"Ŧ":{"ha":696,"x_min":24,"x_max":674,"o":"m 260 425 l 103 425 l 103 546 l 260 546 l 260 794 l 24 794 l 24 953 l 674 953 l 674 794 l 438 794 l 438 546 l 593 546 l 593 425 l 438 425 l 438 0 l 260 0 l 260 425 z "},"Ť":{"ha":696,"x_min":24,"x_max":674,"o":"m 161 1226 l 286 1226 l 349 1131 l 410 1226 l 535 1226 l 417 1039 l 281 1039 l 161 1226 m 260 794 l 24 794 l 24 953 l 674 953 l 674 794 l 438 794 l 438 0 l 260 0 l 260 794 z "},"Ţ":{"ha":696,"x_min":24,"x_max":674,"o":"m 260 794 l 24 794 l 24 953 l 674 953 l 674 794 l 438 794 l 438 0 l 260 0 l 260 794 m 331 -247 l 263 -247 l 263 -76 l 433 -76 l 433 -232 l 371 -365 l 281 -365 l 331 -247 z "},"U":{"ha":822,"x_min":85,"x_max":739,"o":"m 411 -17 q 170 65 256 -17 q 85 299 85 146 l 85 953 l 263 953 l 263 304 q 301 179 263 222 q 411 136 340 136 q 522 179 482 136 q 561 304 561 222 l 561 953 l 739 953 l 739 299 q 653 65 739 146 q 411 -17 567 -17 z "},"Ú":{"ha":822,"x_min":85,"x_max":739,"o":"m 435 1226 l 601 1226 l 603 1222 l 453 1043 l 315 1043 l 435 1226 m 411 -17 q 170 65 256 -17 q 85 299 85 146 l 85 953 l 263 953 l 263 304 q 301 179 263 222 q 411 136 340 136 q 522 179 482 136 q 561 304 561 222 l 561 953 l 739 953 l 739 299 q 653 65 739 146 q 411 -17 567 -17 z "},"Ŭ":{"ha":822,"x_min":85,"x_max":739,"o":"m 410 1078 q 314 1100 356 1078 q 249 1156 272 1122 q 226 1226 226 1190 l 329 1226 q 356 1195 333 1210 q 410 1181 379 1181 q 468 1195 444 1181 q 493 1226 492 1210 l 597 1226 q 574 1156 597 1190 q 508 1100 550 1122 q 410 1078 465 1078 m 411 -17 q 170 65 256 -17 q 85 299 85 146 l 85 953 l 263 953 l 263 304 q 301 179 263 222 q 411 136 340 136 q 522 179 482 136 q 561 304 561 222 l 561 953 l 739 953 l 739 299 q 653 65 739 146 q 411 -17 567 -17 z "},"Û":{"ha":822,"x_min":85,"x_max":739,"o":"m 344 1226 l 481 1226 l 599 1039 l 474 1039 l 411 1135 l 349 1039 l 225 1039 l 344 1226 m 411 -17 q 170 65 256 -17 q 85 299 85 146 l 85 953 l 263 953 l 263 304 q 301 179 263 222 q 411 136 340 136 q 522 179 482 136 q 561 304 561 222 l 561 953 l 739 953 l 739 299 q 653 65 739 146 q 411 -17 567 -17 z "},"Ü":{"ha":822,"x_min":85,"x_max":739,"o":"m 221 1226 l 360 1226 l 360 1075 l 221 1075 l 221 1226 m 463 1226 l 603 1226 l 603 1075 l 463 1075 l 463 1226 m 411 -17 q 170 65 256 -17 q 85 299 85 146 l 85 953 l 263 953 l 263 304 q 301 179 263 222 q 411 136 340 136 q 522 179 482 136 q 561 304 561 222 l 561 953 l 739 953 l 739 299 q 653 65 739 146 q 411 -17 567 -17 z "},"Ù":{"ha":822,"x_min":85,"x_max":739,"o":"m 219 1222 l 221 1226 l 388 1226 l 507 1043 l 369 1043 l 219 1222 m 411 -17 q 170 65 256 -17 q 85 299 85 146 l 85 953 l 263 953 l 263 304 q 301 179 263 222 q 411 136 340 136 q 522 179 482 136 q 561 304 561 222 l 561 953 l 739 953 l 739 299 q 653 65 739 146 q 411 -17 567 -17 z "},"Ű":{"ha":822,"x_min":85,"x_max":739,"o":"m 340 1226 l 479 1226 l 481 1222 l 364 1043 l 254 1043 l 340 1226 m 535 1226 l 674 1226 l 675 1222 l 558 1043 l 449 1043 l 535 1226 m 411 -17 q 170 65 256 -17 q 85 299 85 146 l 85 953 l 263 953 l 263 304 q 301 179 263 222 q 411 136 340 136 q 522 179 482 136 q 561 304 561 222 l 561 953 l 739 953 l 739 299 q 653 65 739 146 q 411 -17 567 -17 z "},"Ū":{"ha":822,"x_min":85,"x_max":739,"o":"m 233 1175 l 589 1175 l 589 1054 l 233 1054 l 233 1175 m 411 -17 q 170 65 256 -17 q 85 299 85 146 l 85 953 l 263 953 l 263 304 q 301 179 263 222 q 411 136 340 136 q 522 179 482 136 q 561 304 561 222 l 561 953 l 739 953 l 739 299 q 653 65 739 146 q 411 -17 567 -17 z "},"Ų":{"ha":822,"x_min":85,"x_max":739,"o":"m 739 953 l 739 310 q 693 117 739 193 q 563 7 647 40 q 533 -37 546 -11 q 521 -90 521 -64 q 536 -141 521 -121 q 583 -161 551 -161 l 614 -161 l 614 -237 q 522 -257 564 -257 q 425 -227 465 -257 q 385 -132 385 -197 q 425 -17 385 -67 l 411 -17 q 170 67 256 -17 q 85 310 85 151 l 85 953 l 263 953 l 263 315 q 301 182 263 228 q 411 136 340 136 q 522 183 482 136 q 561 315 561 229 l 561 953 l 739 953 z "},"Ů":{"ha":822,"x_min":85,"x_max":739,"o":"m 411 1001 q 317 1040 357 1001 q 278 1135 278 1079 q 317 1229 278 1190 q 411 1268 356 1268 q 506 1228 467 1268 q 544 1135 544 1189 q 506 1040 544 1079 q 411 1001 467 1001 m 411 1071 q 456 1090 438 1071 q 475 1135 475 1108 q 456 1180 475 1161 q 411 1199 438 1199 q 366 1181 385 1199 q 347 1135 347 1163 q 366 1090 347 1108 q 411 1071 385 1071 m 411 -17 q 170 65 256 -17 q 85 299 85 146 l 85 953 l 263 953 l 263 304 q 301 179 263 222 q 411 136 340 136 q 522 179 482 136 q 561 304 561 222 l 561 953 l 739 953 l 739 299 q 653 65 739 146 q 411 -17 567 -17 z "},"Ũ":{"ha":822,"x_min":85,"x_max":739,"o":"m 178 1057 q 213 1175 178 1124 q 314 1226 247 1226 q 356 1220 336 1226 q 410 1200 375 1214 q 458 1181 439 1188 q 499 1175 478 1175 q 535 1187 522 1175 q 553 1226 549 1199 l 644 1226 q 610 1108 644 1160 q 507 1057 575 1057 q 466 1063 485 1057 q 413 1083 447 1069 q 364 1102 383 1096 q 324 1108 344 1108 q 269 1057 276 1108 l 178 1057 m 411 -17 q 170 65 256 -17 q 85 299 85 146 l 85 953 l 263 953 l 263 304 q 301 179 263 222 q 411 136 340 136 q 522 179 482 136 q 561 304 561 222 l 561 953 l 739 953 l 739 299 q 653 65 739 146 q 411 -17 567 -17 z "},"V":{"ha":760,"x_min":0,"x_max":760,"o":"m 0 953 l 183 953 l 383 271 l 389 271 l 586 953 l 760 953 l 469 0 l 290 0 l 0 953 z "},"W":{"ha":1075,"x_min":0,"x_max":1074,"o":"m 0 953 l 176 953 l 290 367 q 301 294 296 340 q 308 233 307 249 l 314 233 q 321 295 315 249 q 332 367 326 342 l 447 953 l 649 953 l 763 367 q 774 290 768 331 q 781 233 779 249 l 786 233 q 793 292 788 247 q 804 367 799 338 l 921 953 l 1074 953 l 867 0 l 688 0 l 558 607 q 546 683 551 638 q 539 742 540 728 l 533 742 q 526 679 532 726 q 514 607 519 632 l 386 0 l 207 0 l 0 953 z "},"Ẃ":{"ha":1075,"x_min":0,"x_max":1074,"o":"m 561 1226 l 728 1226 l 729 1222 l 579 1043 l 442 1043 l 561 1226 m 0 953 l 176 953 l 290 367 q 301 294 296 340 q 308 233 307 249 l 314 233 q 321 295 315 249 q 332 367 326 342 l 447 953 l 649 953 l 763 367 q 774 290 768 331 q 781 233 779 249 l 786 233 q 793 292 788 247 q 804 367 799 338 l 921 953 l 1074 953 l 867 0 l 688 0 l 558 607 q 546 683 551 638 q 539 742 540 728 l 533 742 q 526 679 532 726 q 514 607 519 632 l 386 0 l 207 0 l 0 953 z "},"Ŵ":{"ha":1075,"x_min":0,"x_max":1074,"o":"m 471 1226 l 607 1226 l 725 1039 l 600 1039 l 539 1135 l 476 1039 l 351 1039 l 471 1226 m 0 953 l 176 953 l 290 367 q 301 294 296 340 q 308 233 307 249 l 314 233 q 321 295 315 249 q 332 367 326 342 l 447 953 l 649 953 l 763 367 q 774 290 768 331 q 781 233 779 249 l 786 233 q 793 292 788 247 q 804 367 799 338 l 921 953 l 1074 953 l 867 0 l 688 0 l 558 607 q 546 683 551 638 q 539 742 540 728 l 533 742 q 526 679 532 726 q 514 607 519 632 l 386 0 l 207 0 l 0 953 z "},"Ẅ":{"ha":1075,"x_min":0,"x_max":1074,"o":"m 347 1226 l 486 1226 l 486 1075 l 347 1075 l 347 1226 m 590 1226 l 729 1226 l 729 1075 l 590 1075 l 590 1226 m 0 953 l 176 953 l 290 367 q 301 294 296 340 q 308 233 307 249 l 314 233 q 321 295 315 249 q 332 367 326 342 l 447 953 l 649 953 l 763 367 q 774 290 768 331 q 781 233 779 249 l 786 233 q 793 292 788 247 q 804 367 799 338 l 921 953 l 1074 953 l 867 0 l 688 0 l 558 607 q 546 683 551 638 q 539 742 540 728 l 533 742 q 526 679 532 726 q 514 607 519 632 l 386 0 l 207 0 l 0 953 z "},"Ẁ":{"ha":1075,"x_min":0,"x_max":1074,"o":"m 346 1222 l 347 1226 l 514 1226 l 633 1043 l 496 1043 l 346 1222 m 0 953 l 176 953 l 290 367 q 301 294 296 340 q 308 233 307 249 l 314 233 q 321 295 315 249 q 332 367 326 342 l 447 953 l 649 953 l 763 367 q 774 290 768 331 q 781 233 779 249 l 786 233 q 793 292 788 247 q 804 367 799 338 l 921 953 l 1074 953 l 867 0 l 688 0 l 558 607 q 546 683 551 638 q 539 742 540 728 l 533 742 q 526 679 532 726 q 514 607 519 632 l 386 0 l 207 0 l 0 953 z "},"X":{"ha":760,"x_min":0,"x_max":758,"o":"m 269 500 l 25 953 l 224 953 l 383 642 l 389 642 l 549 953 l 733 953 l 488 503 l 758 0 l 561 0 l 375 360 l 369 360 l 185 0 l 0 0 l 269 500 z "},"Y":{"ha":760,"x_min":0,"x_max":760,"o":"m 292 360 l 0 953 l 188 953 l 382 535 l 388 535 l 581 953 l 760 953 l 469 360 l 469 0 l 292 0 l 292 360 z "},"Ý":{"ha":760,"x_min":0,"x_max":760,"o":"m 404 1226 l 571 1226 l 572 1222 l 422 1043 l 285 1043 l 404 1226 m 292 360 l 0 953 l 188 953 l 382 535 l 388 535 l 581 953 l 760 953 l 469 360 l 469 0 l 292 0 l 292 360 z "},"Ŷ":{"ha":760,"x_min":0,"x_max":760,"o":"m 313 1226 l 449 1226 l 567 1039 l 442 1039 l 381 1135 l 318 1039 l 193 1039 l 313 1226 m 292 360 l 0 953 l 188 953 l 382 535 l 388 535 l 581 953 l 760 953 l 469 360 l 469 0 l 292 0 l 292 360 z "},"Ÿ":{"ha":760,"x_min":0,"x_max":760,"o":"m 189 1226 l 328 1226 l 328 1075 l 189 1075 l 189 1226 m 432 1226 l 571 1226 l 571 1075 l 432 1075 l 432 1226 m 292 360 l 0 953 l 188 953 l 382 535 l 388 535 l 581 953 l 760 953 l 469 360 l 469 0 l 292 0 l 292 360 z "},"Ỳ":{"ha":760,"x_min":0,"x_max":760,"o":"m 188 1222 l 189 1226 l 356 1226 l 475 1043 l 338 1043 l 188 1222 m 292 360 l 0 953 l 188 953 l 382 535 l 388 535 l 581 953 l 760 953 l 469 360 l 469 0 l 292 0 l 292 360 z "},"Z":{"ha":696,"x_min":22,"x_max":667,"o":"m 22 68 l 414 794 l 51 794 l 51 953 l 657 953 l 657 883 l 265 158 l 667 158 l 667 0 l 22 0 l 22 68 z "},"Ź":{"ha":696,"x_min":22,"x_max":667,"o":"m 372 1226 l 539 1226 l 540 1222 l 390 1043 l 253 1043 l 372 1226 m 22 68 l 414 794 l 51 794 l 51 953 l 657 953 l 657 883 l 265 158 l 667 158 l 667 0 l 22 0 l 22 68 z "},"Ž":{"ha":696,"x_min":22,"x_max":667,"o":"m 161 1226 l 286 1226 l 349 1131 l 410 1226 l 535 1226 l 417 1039 l 281 1039 l 161 1226 m 22 68 l 414 794 l 51 794 l 51 953 l 657 953 l 657 883 l 265 158 l 667 158 l 667 0 l 22 0 l 22 68 z "},"Ż":{"ha":696,"x_min":22,"x_max":667,"o":"m 274 1226 l 422 1226 l 422 1067 l 274 1067 l 274 1226 m 22 68 l 414 794 l 51 794 l 51 953 l 657 953 l 657 883 l 265 158 l 667 158 l 667 0 l 22 0 l 22 68 z "},"a":{"ha":633,"x_min":19,"x_max":622,"o":"m 203 -17 q 77 30 135 -17 q 19 189 19 76 q 114 386 19 328 q 382 444 208 444 l 382 521 q 366 588 382 564 q 306 611 350 611 q 239 588 260 611 q 218 535 218 565 l 218 514 l 56 514 q 54 544 54 522 q 122 692 54 636 q 301 747 189 747 q 488 692 426 747 q 550 532 550 636 l 550 172 q 561 135 550 147 q 589 124 572 124 l 622 124 l 622 6 q 524 -17 581 -17 q 441 9 475 -17 q 394 79 407 35 l 388 79 q 312 7 353 31 q 203 -17 271 -17 m 272 122 q 355 167 328 122 q 382 282 382 211 l 382 324 q 244 297 297 324 q 190 204 190 269 q 210 144 190 165 q 272 122 231 122 z "},"á":{"ha":633,"x_min":19,"x_max":622,"o":"m 325 1004 l 492 1004 l 493 1000 l 343 821 l 206 821 l 325 1004 m 203 -17 q 77 30 135 -17 q 19 189 19 76 q 114 386 19 328 q 382 444 208 444 l 382 521 q 366 588 382 564 q 306 611 350 611 q 239 588 260 611 q 218 535 218 565 l 218 514 l 56 514 q 54 544 54 522 q 122 692 54 636 q 301 747 189 747 q 488 692 426 747 q 550 532 550 636 l 550 172 q 561 135 550 147 q 589 124 572 124 l 622 124 l 622 6 q 524 -17 581 -17 q 441 9 475 -17 q 394 79 407 35 l 388 79 q 312 7 353 31 q 203 -17 271 -17 m 272 122 q 355 167 328 122 q 382 282 382 211 l 382 324 q 244 297 297 324 q 190 204 190 269 q 210 144 190 165 q 272 122 231 122 z "},"ă":{"ha":633,"x_min":19,"x_max":622,"o":"m 300 856 q 203 878 246 856 q 138 934 161 900 q 115 1004 115 968 l 219 1004 q 247 973 224 988 q 300 958 269 958 q 357 973 333 958 q 383 1004 381 988 l 488 1004 q 464 934 488 968 q 398 878 440 900 q 300 856 356 856 m 203 -17 q 77 30 135 -17 q 19 189 19 76 q 114 386 19 328 q 382 444 208 444 l 382 521 q 366 588 382 564 q 306 611 350 611 q 239 588 260 611 q 218 535 218 565 l 218 514 l 56 514 q 54 544 54 522 q 122 692 54 636 q 301 747 189 747 q 488 692 426 747 q 550 532 550 636 l 550 172 q 561 135 550 147 q 589 124 572 124 l 622 124 l 622 6 q 524 -17 581 -17 q 441 9 475 -17 q 394 79 407 35 l 388 79 q 312 7 353 31 q 203 -17 271 -17 m 272 122 q 355 167 328 122 q 382 282 382 211 l 382 324 q 244 297 297 324 q 190 204 190 269 q 210 144 190 165 q 272 122 231 122 z "},"â":{"ha":633,"x_min":19,"x_max":622,"o":"m 233 1004 l 371 1004 l 489 817 l 364 817 l 301 913 l 239 817 l 115 817 l 233 1004 m 203 -17 q 77 30 135 -17 q 19 189 19 76 q 114 386 19 328 q 382 444 208 444 l 382 521 q 366 588 382 564 q 306 611 350 611 q 239 588 260 611 q 218 535 218 565 l 218 514 l 56 514 q 54 544 54 522 q 122 692 54 636 q 301 747 189 747 q 488 692 426 747 q 550 532 550 636 l 550 172 q 561 135 550 147 q 589 124 572 124 l 622 124 l 622 6 q 524 -17 581 -17 q 441 9 475 -17 q 394 79 407 35 l 388 79 q 312 7 353 31 q 203 -17 271 -17 m 272 122 q 355 167 328 122 q 382 282 382 211 l 382 324 q 244 297 297 324 q 190 204 190 269 q 210 144 190 165 q 272 122 231 122 z "},"ä":{"ha":633,"x_min":19,"x_max":622,"o":"m 111 1004 l 250 1004 l 250 853 l 111 853 l 111 1004 m 353 1004 l 492 1004 l 492 853 l 353 853 l 353 1004 m 203 -17 q 77 30 135 -17 q 19 189 19 76 q 114 386 19 328 q 382 444 208 444 l 382 521 q 366 588 382 564 q 306 611 350 611 q 239 588 260 611 q 218 535 218 565 l 218 514 l 56 514 q 54 544 54 522 q 122 692 54 636 q 301 747 189 747 q 488 692 426 747 q 550 532 550 636 l 550 172 q 561 135 550 147 q 589 124 572 124 l 622 124 l 622 6 q 524 -17 581 -17 q 441 9 475 -17 q 394 79 407 35 l 388 79 q 312 7 353 31 q 203 -17 271 -17 m 272 122 q 355 167 328 122 q 382 282 382 211 l 382 324 q 244 297 297 324 q 190 204 190 269 q 210 144 190 165 q 272 122 231 122 z "},"à":{"ha":633,"x_min":19,"x_max":622,"o":"m 110 1000 l 111 1004 l 278 1004 l 397 821 l 260 821 l 110 1000 m 203 -17 q 77 30 135 -17 q 19 189 19 76 q 114 386 19 328 q 382 444 208 444 l 382 521 q 366 588 382 564 q 306 611 350 611 q 239 588 260 611 q 218 535 218 565 l 218 514 l 56 514 q 54 544 54 522 q 122 692 54 636 q 301 747 189 747 q 488 692 426 747 q 550 532 550 636 l 550 172 q 561 135 550 147 q 589 124 572 124 l 622 124 l 622 6 q 524 -17 581 -17 q 441 9 475 -17 q 394 79 407 35 l 388 79 q 312 7 353 31 q 203 -17 271 -17 m 272 122 q 355 167 328 122 q 382 282 382 211 l 382 324 q 244 297 297 324 q 190 204 190 269 q 210 144 190 165 q 272 122 231 122 z "},"ā":{"ha":633,"x_min":19,"x_max":622,"o":"m 124 953 l 479 953 l 479 832 l 124 832 l 124 953 m 203 -17 q 77 30 135 -17 q 19 189 19 76 q 114 386 19 328 q 382 444 208 444 l 382 521 q 366 588 382 564 q 306 611 350 611 q 239 588 260 611 q 218 535 218 565 l 218 514 l 56 514 q 54 544 54 522 q 122 692 54 636 q 301 747 189 747 q 488 692 426 747 q 550 532 550 636 l 550 172 q 561 135 550 147 q 589 124 572 124 l 622 124 l 622 6 q 524 -17 581 -17 q 441 9 475 -17 q 394 79 407 35 l 388 79 q 312 7 353 31 q 203 -17 271 -17 m 272 122 q 355 167 328 122 q 382 282 382 211 l 382 324 q 244 297 297 324 q 190 204 190 269 q 210 144 190 165 q 272 122 231 122 z "},"ą":{"ha":633,"x_min":19,"x_max":674,"o":"m 582 -258 q 485 -228 526 -258 q 444 -133 444 -199 q 489 -12 444 -67 q 394 79 417 4 l 388 79 q 312 7 353 31 q 203 -17 271 -17 q 77 30 135 -17 q 19 189 19 76 q 114 386 19 328 q 382 444 208 444 l 382 521 q 366 588 382 564 q 306 611 350 611 q 239 588 260 611 q 218 535 218 565 l 218 514 l 56 514 q 54 544 54 522 q 122 692 54 636 q 301 747 189 747 q 488 692 426 747 q 550 532 550 636 l 550 172 q 561 135 550 147 q 589 124 572 124 l 622 124 l 622 6 q 581 -92 581 -47 q 596 -142 581 -122 q 643 -162 611 -162 l 674 -162 l 674 -239 q 582 -258 624 -258 m 272 122 q 355 167 328 122 q 382 282 382 211 l 382 324 q 244 297 297 324 q 190 204 190 269 q 210 144 190 165 q 272 122 231 122 z "},"å":{"ha":633,"x_min":19,"x_max":622,"o":"m 301 779 q 208 818 247 779 q 168 913 168 857 q 207 1007 168 968 q 301 1046 246 1046 q 396 1006 357 1046 q 435 913 435 967 q 396 818 435 857 q 301 779 357 779 m 301 849 q 347 867 328 849 q 365 913 365 886 q 347 958 365 939 q 301 976 328 976 q 256 958 275 976 q 238 913 238 940 q 256 867 238 886 q 301 849 275 849 m 203 -17 q 77 30 135 -17 q 19 189 19 76 q 114 386 19 328 q 382 444 208 444 l 382 521 q 366 588 382 564 q 306 611 350 611 q 239 588 260 611 q 218 535 218 565 l 218 514 l 56 514 q 54 544 54 522 q 122 692 54 636 q 301 747 189 747 q 488 692 426 747 q 550 532 550 636 l 550 172 q 561 135 550 147 q 589 124 572 124 l 622 124 l 622 6 q 524 -17 581 -17 q 441 9 475 -17 q 394 79 407 35 l 388 79 q 312 7 353 31 q 203 -17 271 -17 m 272 122 q 355 167 328 122 q 382 282 382 211 l 382 324 q 244 297 297 324 q 190 204 190 269 q 210 144 190 165 q 272 122 231 122 z "},"ǻ":{"ha":694,"x_min":19,"x_max":622,"o":"m 346 1226 l 513 1226 l 514 1222 l 379 1067 l 242 1067 l 346 1226 m 301 779 q 208 817 247 779 q 168 908 168 854 q 207 999 168 961 q 301 1038 246 1038 q 396 999 357 1038 q 435 908 435 961 q 396 817 435 856 q 301 779 357 779 m 301 846 q 347 864 328 846 q 365 908 365 882 q 347 952 365 935 q 301 969 328 969 q 256 952 274 969 q 238 908 238 935 q 256 864 238 882 q 301 846 274 846 m 203 -17 q 77 30 135 -17 q 19 189 19 76 q 114 386 19 328 q 382 444 208 444 l 382 521 q 366 588 382 564 q 306 611 350 611 q 239 588 260 611 q 218 535 218 565 l 218 514 l 56 514 q 54 544 54 522 q 122 692 54 636 q 301 747 189 747 q 488 692 426 747 q 550 532 550 636 l 550 172 q 561 135 550 147 q 589 124 572 124 l 622 124 l 622 6 q 524 -17 581 -17 q 441 9 475 -17 q 394 79 407 35 l 388 79 q 312 7 353 31 q 203 -17 271 -17 m 272 122 q 355 167 328 122 q 382 282 382 211 l 382 324 q 244 297 297 324 q 190 204 190 269 q 210 144 190 165 q 272 122 231 122 z "},"ã":{"ha":633,"x_min":19,"x_max":622,"o":"m 68 835 q 103 953 68 901 q 204 1004 138 1004 q 246 998 226 1004 q 300 978 265 992 q 349 959 329 965 q 389 953 368 953 q 426 965 413 953 q 443 1004 439 976 l 535 1004 q 500 886 535 938 q 397 835 465 835 q 356 841 375 835 q 303 861 338 847 q 254 880 274 874 q 214 886 235 886 q 160 835 167 886 l 68 835 m 203 -17 q 77 30 135 -17 q 19 189 19 76 q 114 386 19 328 q 382 444 208 444 l 382 521 q 366 588 382 564 q 306 611 350 611 q 239 588 260 611 q 218 535 218 565 l 218 514 l 56 514 q 54 544 54 522 q 122 692 54 636 q 301 747 189 747 q 488 692 426 747 q 550 532 550 636 l 550 172 q 561 135 550 147 q 589 124 572 124 l 622 124 l 622 6 q 524 -17 581 -17 q 441 9 475 -17 q 394 79 407 35 l 388 79 q 312 7 353 31 q 203 -17 271 -17 m 272 122 q 355 167 328 122 q 382 282 382 211 l 382 324 q 244 297 297 324 q 190 204 190 269 q 210 144 190 165 q 272 122 231 122 z "},"æ":{"ha":1013,"x_min":51,"x_max":958,"o":"m 263 -17 q 117 30 183 -17 q 51 189 51 76 q 146 386 51 328 q 414 444 240 444 l 414 521 q 398 588 414 564 q 338 611 382 611 q 271 588 292 611 q 250 535 250 565 l 250 514 l 88 514 q 86 544 86 522 q 153 692 86 636 q 333 747 221 747 q 521 678 456 747 q 694 747 586 747 q 893 654 828 747 q 958 365 958 561 l 958 324 l 588 324 q 615 170 589 221 q 700 119 640 119 q 768 156 743 119 q 793 258 793 193 l 958 258 q 888 53 958 122 q 700 -17 817 -17 q 482 82 551 -17 q 387 9 439 35 q 263 -17 335 -17 m 783 444 q 694 611 783 611 q 618 569 643 611 q 589 444 593 526 l 783 444 m 304 122 q 387 167 360 122 q 414 282 414 211 l 414 324 q 276 297 329 324 q 222 204 222 269 q 242 144 222 165 q 304 122 263 122 z "},"ǽ":{"ha":1013,"x_min":51,"x_max":958,"o":"m 531 1004 l 697 1004 l 699 1000 l 549 821 l 411 821 l 531 1004 m 263 -17 q 117 30 183 -17 q 51 189 51 76 q 146 386 51 328 q 414 444 240 444 l 414 521 q 398 588 414 564 q 338 611 382 611 q 271 588 292 611 q 250 535 250 565 l 250 514 l 88 514 q 86 544 86 522 q 153 692 86 636 q 333 747 221 747 q 521 678 456 747 q 694 747 586 747 q 893 654 828 747 q 958 365 958 561 l 958 324 l 588 324 q 615 170 589 221 q 700 119 640 119 q 768 156 743 119 q 793 258 793 193 l 958 258 q 888 53 958 122 q 700 -17 817 -17 q 482 82 551 -17 q 387 9 439 35 q 263 -17 335 -17 m 783 444 q 694 611 783 611 q 618 569 643 611 q 589 444 593 526 l 783 444 m 304 122 q 387 167 360 122 q 414 282 414 211 l 414 324 q 276 297 329 324 q 222 204 222 269 q 242 144 222 165 q 304 122 263 122 z "},"b":{"ha":696,"x_min":76,"x_max":639,"o":"m 404 -17 q 308 10 351 -17 q 239 90 265 38 l 232 90 l 215 0 l 76 0 l 76 1004 l 243 1004 l 243 656 l 250 656 q 313 723 269 699 q 413 747 357 747 q 577 652 515 747 q 639 367 639 557 q 577 78 639 174 q 404 -17 515 -17 m 354 135 q 439 185 413 135 q 465 339 465 236 l 465 392 q 439 545 465 494 q 354 596 413 596 q 269 544 296 596 q 243 389 243 492 l 243 339 q 269 185 243 236 q 354 135 296 135 z "},"c":{"ha":633,"x_min":57,"x_max":583,"o":"m 333 -17 q 124 76 190 -17 q 57 365 57 168 q 124 654 57 561 q 328 747 192 747 q 516 676 449 747 q 583 456 583 604 l 413 456 q 328 607 413 607 q 253 553 276 607 q 231 392 231 500 l 231 339 q 255 177 231 231 q 333 124 279 124 q 398 161 378 124 q 418 275 418 199 l 583 275 q 518 55 583 126 q 333 -17 453 -17 z "},"ć":{"ha":633,"x_min":57,"x_max":583,"o":"m 353 1004 l 521 1004 l 521 1000 l 372 821 l 233 821 l 353 1004 m 333 -17 q 124 76 190 -17 q 57 365 57 168 q 124 654 57 561 q 328 747 192 747 q 516 676 449 747 q 583 456 583 604 l 413 456 q 328 607 413 607 q 253 553 276 607 q 231 392 231 500 l 231 339 q 255 177 231 231 q 333 124 279 124 q 398 161 378 124 q 418 275 418 199 l 583 275 q 518 55 583 126 q 333 -17 453 -17 z "},"č":{"ha":633,"x_min":57,"x_max":583,"o":"m 143 1004 l 268 1004 l 331 908 l 392 1004 l 517 1004 l 399 817 l 263 817 l 143 1004 m 333 -17 q 124 76 190 -17 q 57 365 57 168 q 124 654 57 561 q 328 747 192 747 q 516 676 449 747 q 583 456 583 604 l 413 456 q 328 607 413 607 q 253 553 276 607 q 231 392 231 500 l 231 339 q 255 177 231 231 q 333 124 279 124 q 398 161 378 124 q 418 275 418 199 l 583 275 q 518 55 583 126 q 333 -17 453 -17 z "},"ç":{"ha":633,"x_min":57,"x_max":583,"o":"m 319 -253 q 203 -242 256 -253 l 203 -174 l 301 -174 q 339 -166 326 -174 q 351 -140 351 -158 q 341 -115 351 -124 q 304 -107 331 -107 l 260 -107 l 271 -11 q 109 99 161 7 q 57 365 57 190 q 124 654 57 561 q 328 747 192 747 q 516 676 449 747 q 583 456 583 604 l 413 456 q 328 607 413 607 q 253 553 276 607 q 231 392 231 500 l 231 339 q 255 177 231 231 q 333 124 279 124 q 398 161 378 124 q 418 275 418 199 l 583 275 q 526 65 583 136 q 364 -15 469 -6 l 361 -46 q 440 -72 410 -49 q 471 -140 471 -96 q 424 -228 471 -203 q 319 -253 378 -253 z "},"ĉ":{"ha":633,"x_min":57,"x_max":583,"o":"m 263 1004 l 399 1004 l 517 817 l 392 817 l 331 913 l 268 817 l 143 817 l 263 1004 m 333 -17 q 124 76 190 -17 q 57 365 57 168 q 124 654 57 561 q 328 747 192 747 q 516 676 449 747 q 583 456 583 604 l 413 456 q 328 607 413 607 q 253 553 276 607 q 231 392 231 500 l 231 339 q 255 177 231 231 q 333 124 279 124 q 398 161 378 124 q 418 275 418 199 l 583 275 q 518 55 583 126 q 333 -17 453 -17 z "},"ċ":{"ha":633,"x_min":57,"x_max":583,"o":"m 256 1004 l 404 1004 l 404 844 l 256 844 l 256 1004 m 333 -17 q 124 76 190 -17 q 57 365 57 168 q 124 654 57 561 q 328 747 192 747 q 516 676 449 747 q 583 456 583 604 l 413 456 q 328 607 413 607 q 253 553 276 607 q 231 392 231 500 l 231 339 q 255 177 231 231 q 333 124 279 124 q 398 161 378 124 q 418 275 418 199 l 583 275 q 518 55 583 126 q 333 -17 453 -17 z "},"d":{"ha":696,"x_min":57,"x_max":619,"o":"m 292 -17 q 119 78 181 -17 q 57 367 57 174 q 119 652 57 557 q 283 747 181 747 q 383 723 339 747 q 446 656 426 699 l 453 656 l 453 1004 l 619 1004 l 619 0 l 481 0 l 464 90 l 457 90 q 388 10 431 38 q 292 -17 344 -17 m 342 135 q 426 185 400 135 q 453 339 453 236 l 453 389 q 426 544 453 492 q 342 596 400 596 q 257 545 283 596 q 231 392 231 494 l 231 339 q 257 185 231 236 q 342 135 283 135 z "},"ð":{"ha":696,"x_min":57,"x_max":640,"o":"m 349 -17 q 129 76 201 -17 q 57 365 57 169 q 124 649 57 551 q 310 747 192 747 q 378 736 344 747 l 382 742 q 329 826 363 779 l 150 811 l 150 913 l 254 922 q 181 999 236 943 l 183 1004 l 358 1004 q 428 938 392 976 l 608 954 l 608 853 l 504 843 q 640 365 640 644 q 568 76 640 169 q 349 -17 496 -17 m 349 124 q 439 177 411 124 q 467 339 467 231 l 467 392 q 439 553 467 500 q 349 607 411 607 q 258 553 286 607 q 231 392 231 500 l 231 339 q 258 177 231 231 q 349 124 286 124 z "},"ď":{"ha":818,"x_min":57,"x_max":854,"o":"m 292 -17 q 119 78 181 -17 q 57 367 57 174 q 119 652 57 557 q 283 747 181 747 q 383 723 339 747 q 446 656 426 699 l 453 656 l 453 1004 l 619 1004 l 619 0 l 481 0 l 464 90 l 457 90 q 388 10 431 38 q 292 -17 344 -17 m 739 763 l 663 763 l 663 953 l 854 953 l 854 779 l 763 546 l 663 546 l 739 763 m 342 135 q 426 185 400 135 q 453 339 453 236 l 453 389 q 426 544 453 492 q 342 596 400 596 q 257 545 283 596 q 231 392 231 494 l 231 339 q 257 185 231 236 q 342 135 283 135 z "},"đ":{"ha":700,"x_min":57,"x_max":694,"o":"m 292 -17 q 119 78 181 -17 q 57 367 57 174 q 119 652 57 557 q 283 747 181 747 q 383 723 339 747 q 446 656 426 699 l 453 656 l 453 810 l 269 810 l 269 931 l 453 931 l 453 1004 l 619 1004 l 619 931 l 694 931 l 694 810 l 619 810 l 619 0 l 481 0 l 464 90 l 457 90 q 388 10 431 38 q 292 -17 344 -17 m 342 135 q 426 185 400 135 q 453 339 453 236 l 453 389 q 426 544 453 492 q 342 596 400 596 q 257 545 283 596 q 231 392 231 494 l 231 339 q 257 185 231 236 q 342 135 283 135 z "},"e":{"ha":633,"x_min":43,"x_max":588,"o":"m 329 -17 q 115 77 186 -17 q 43 365 43 171 q 324 747 43 747 q 522 654 457 747 q 588 365 588 561 l 588 324 l 217 324 q 244 170 218 221 q 329 119 269 119 q 397 156 372 119 q 422 258 422 193 l 588 258 q 517 53 588 122 q 329 -17 446 -17 m 413 444 q 324 611 413 611 q 247 569 272 611 q 218 444 222 526 l 413 444 z "},"é":{"ha":633,"x_min":43,"x_max":588,"o":"m 340 1004 l 507 1004 l 508 1000 l 358 821 l 221 821 l 340 1004 m 329 -17 q 115 77 186 -17 q 43 365 43 171 q 324 747 43 747 q 522 654 457 747 q 588 365 588 561 l 588 324 l 217 324 q 244 170 218 221 q 329 119 269 119 q 397 156 372 119 q 422 258 422 193 l 588 258 q 517 53 588 122 q 329 -17 446 -17 m 413 444 q 324 611 413 611 q 247 569 272 611 q 218 444 222 526 l 413 444 z "},"ĕ":{"ha":633,"x_min":43,"x_max":588,"o":"m 317 856 q 220 878 263 856 q 155 934 178 900 q 132 1004 132 968 l 235 1004 q 262 973 239 988 q 317 958 285 958 q 374 973 350 958 q 400 1004 397 988 l 503 1004 q 480 934 503 968 q 415 878 457 900 q 317 856 372 856 m 329 -17 q 115 77 186 -17 q 43 365 43 171 q 324 747 43 747 q 522 654 457 747 q 588 365 588 561 l 588 324 l 217 324 q 244 170 218 221 q 329 119 269 119 q 397 156 372 119 q 422 258 422 193 l 588 258 q 517 53 588 122 q 329 -17 446 -17 m 413 444 q 324 611 413 611 q 247 569 272 611 q 218 444 222 526 l 413 444 z "},"ě":{"ha":633,"x_min":43,"x_max":588,"o":"m 131 1004 l 256 1004 l 318 908 l 379 1004 l 504 1004 l 386 817 l 250 817 l 131 1004 m 329 -17 q 115 77 186 -17 q 43 365 43 171 q 324 747 43 747 q 522 654 457 747 q 588 365 588 561 l 588 324 l 217 324 q 244 170 218 221 q 329 119 269 119 q 397 156 372 119 q 422 258 422 193 l 588 258 q 517 53 588 122 q 329 -17 446 -17 m 413 444 q 324 611 413 611 q 247 569 272 611 q 218 444 222 526 l 413 444 z "},"ê":{"ha":633,"x_min":43,"x_max":588,"o":"m 250 1004 l 386 1004 l 504 817 l 379 817 l 318 913 l 256 817 l 131 817 l 250 1004 m 329 -17 q 115 77 186 -17 q 43 365 43 171 q 324 747 43 747 q 522 654 457 747 q 588 365 588 561 l 588 324 l 217 324 q 244 170 218 221 q 329 119 269 119 q 397 156 372 119 q 422 258 422 193 l 588 258 q 517 53 588 122 q 329 -17 446 -17 m 413 444 q 324 611 413 611 q 247 569 272 611 q 218 444 222 526 l 413 444 z "},"ë":{"ha":633,"x_min":43,"x_max":588,"o":"m 126 1004 l 265 1004 l 265 853 l 126 853 l 126 1004 m 369 1004 l 508 1004 l 508 853 l 369 853 l 369 1004 m 329 -17 q 115 77 186 -17 q 43 365 43 171 q 324 747 43 747 q 522 654 457 747 q 588 365 588 561 l 588 324 l 217 324 q 244 170 218 221 q 329 119 269 119 q 397 156 372 119 q 422 258 422 193 l 588 258 q 517 53 588 122 q 329 -17 446 -17 m 413 444 q 324 611 413 611 q 247 569 272 611 q 218 444 222 526 l 413 444 z "},"ė":{"ha":633,"x_min":43,"x_max":588,"o":"m 243 1004 l 392 1004 l 392 844 l 243 844 l 243 1004 m 329 -17 q 115 77 186 -17 q 43 365 43 171 q 324 747 43 747 q 522 654 457 747 q 588 365 588 561 l 588 324 l 217 324 q 244 170 218 221 q 329 119 269 119 q 397 156 372 119 q 422 258 422 193 l 588 258 q 517 53 588 122 q 329 -17 446 -17 m 413 444 q 324 611 413 611 q 247 569 272 611 q 218 444 222 526 l 413 444 z "},"è":{"ha":633,"x_min":43,"x_max":588,"o":"m 125 1000 l 126 1004 l 293 1004 l 413 821 l 275 821 l 125 1000 m 329 -17 q 115 77 186 -17 q 43 365 43 171 q 324 747 43 747 q 522 654 457 747 q 588 365 588 561 l 588 324 l 217 324 q 244 170 218 221 q 329 119 269 119 q 397 156 372 119 q 422 258 422 193 l 588 258 q 517 53 588 122 q 329 -17 446 -17 m 413 444 q 324 611 413 611 q 247 569 272 611 q 218 444 222 526 l 413 444 z "},"ē":{"ha":633,"x_min":43,"x_max":588,"o":"m 140 953 l 494 953 l 494 832 l 140 832 l 140 953 m 329 -17 q 115 77 186 -17 q 43 365 43 171 q 324 747 43 747 q 522 654 457 747 q 588 365 588 561 l 588 324 l 217 324 q 244 170 218 221 q 329 119 269 119 q 397 156 372 119 q 422 258 422 193 l 588 258 q 517 53 588 122 q 329 -17 446 -17 m 413 444 q 324 611 413 611 q 247 569 272 611 q 218 444 222 526 l 413 444 z "},"ę":{"ha":633,"x_min":43,"x_max":588,"o":"m 410 -257 q 313 -227 354 -257 q 272 -132 272 -197 q 313 -17 272 -67 q 111 83 179 -11 q 43 365 43 176 q 324 747 43 747 q 522 654 457 747 q 588 365 588 561 l 588 324 l 217 324 q 244 170 218 221 q 329 119 269 119 q 397 156 372 119 q 422 258 422 193 l 588 258 q 551 99 588 163 q 450 7 515 36 q 422 -37 435 -11 q 408 -90 408 -64 q 424 -141 408 -121 q 471 -161 439 -161 l 501 -161 l 501 -237 q 410 -257 451 -257 m 413 444 q 324 611 413 611 q 247 569 272 611 q 218 444 222 526 l 413 444 z "},"f":{"ha":379,"x_min":13,"x_max":379,"o":"m 86 590 l 13 590 l 13 731 l 86 731 l 86 819 q 126 959 86 903 q 258 1015 167 1015 q 322 1010 286 1015 q 379 999 357 1006 l 379 875 l 311 875 q 268 860 283 875 q 253 815 253 844 l 253 731 l 379 731 l 379 590 l 253 590 l 253 0 l 86 0 l 86 590 z "},"g":{"ha":696,"x_min":22,"x_max":688,"o":"m 183 -253 q 69 -206 115 -253 q 22 -85 22 -158 q 115 64 22 13 q 57 174 57 100 q 87 252 57 219 q 164 301 117 285 q 75 499 75 367 q 145 681 75 614 q 344 747 215 747 q 467 726 414 747 q 521 790 504 753 q 538 853 538 826 l 675 853 q 557 667 675 703 q 615 499 615 601 q 545 317 615 383 q 344 250 475 250 l 275 250 q 239 238 253 250 q 225 206 225 225 q 238 175 225 188 q 268 163 250 163 l 521 163 q 640 110 592 163 q 688 -28 688 58 q 656 -146 688 -94 q 571 -225 625 -197 q 451 -253 517 -253 l 183 -253 m 344 374 q 422 406 396 374 q 449 499 449 439 q 422 591 449 558 q 344 624 396 624 q 268 591 294 624 q 242 499 242 558 q 268 406 242 439 q 344 374 294 374 m 444 -126 q 498 -108 476 -126 q 519 -58 519 -89 q 500 -10 519 -28 q 451 8 481 8 l 257 8 q 210 -11 229 8 q 190 -58 190 -31 q 209 -108 190 -89 q 257 -126 228 -126 l 444 -126 z "},"ğ":{"ha":696,"x_min":22,"x_max":688,"o":"m 347 856 q 251 878 293 856 q 185 934 208 900 q 163 1004 163 968 l 265 1004 q 292 973 269 988 q 347 958 315 958 q 404 973 381 958 q 431 1004 428 988 l 533 1004 q 510 934 533 968 q 445 878 488 900 q 347 856 403 856 m 183 -253 q 69 -206 115 -253 q 22 -85 22 -158 q 115 64 22 13 q 57 174 57 100 q 87 252 57 219 q 164 301 117 285 q 75 499 75 367 q 145 681 75 614 q 344 747 215 747 q 467 726 414 747 q 521 790 504 753 q 538 853 538 826 l 675 853 q 557 667 675 703 q 615 499 615 601 q 545 317 615 383 q 344 250 475 250 l 275 250 q 239 238 253 250 q 225 206 225 225 q 238 175 225 188 q 268 163 250 163 l 521 163 q 640 110 592 163 q 688 -28 688 58 q 656 -146 688 -94 q 571 -225 625 -197 q 451 -253 517 -253 l 183 -253 m 344 374 q 422 406 396 374 q 449 499 449 439 q 422 591 449 558 q 344 624 396 624 q 268 591 294 624 q 242 499 242 558 q 268 406 242 439 q 344 374 294 374 m 444 -126 q 498 -108 476 -126 q 519 -58 519 -89 q 500 -10 519 -28 q 451 8 481 8 l 257 8 q 210 -11 229 8 q 190 -58 190 -31 q 209 -108 190 -89 q 257 -126 228 -126 l 444 -126 z "},"ĝ":{"ha":696,"x_min":22,"x_max":688,"o":"m 281 1004 l 417 1004 l 535 817 l 410 817 l 349 913 l 286 817 l 161 817 l 281 1004 m 183 -253 q 69 -206 115 -253 q 22 -85 22 -158 q 115 64 22 13 q 57 174 57 100 q 87 252 57 219 q 164 301 117 285 q 75 499 75 367 q 145 681 75 614 q 344 747 215 747 q 467 726 414 747 q 549 768 532 729 q 567 853 567 807 l 675 853 q 557 667 675 703 q 615 499 615 601 q 545 317 615 383 q 344 250 475 250 l 275 250 q 239 238 253 250 q 225 206 225 225 q 238 175 225 188 q 268 163 250 163 l 521 163 q 640 110 592 163 q 688 -28 688 58 q 656 -146 688 -94 q 571 -225 625 -197 q 451 -253 517 -253 l 183 -253 m 344 374 q 422 406 396 374 q 449 499 449 439 q 422 591 449 558 q 344 624 396 624 q 268 591 294 624 q 242 499 242 558 q 268 406 242 439 q 344 374 294 374 m 444 -126 q 498 -108 476 -126 q 519 -58 519 -89 q 500 -10 519 -28 q 451 8 481 8 l 257 8 q 210 -11 229 8 q 190 -58 190 -31 q 209 -108 190 -89 q 257 -126 228 -126 l 444 -126 z "},"ģ":{"ha":696,"x_min":22,"x_max":688,"o":"m 246 975 l 310 1108 l 400 1108 l 350 990 l 418 990 l 418 819 l 246 819 l 246 975 m 183 -253 q 69 -206 115 -253 q 22 -85 22 -158 q 115 64 22 13 q 57 174 57 100 q 87 252 57 219 q 164 301 117 285 q 75 499 75 367 q 145 681 75 614 q 344 747 215 747 q 467 726 414 747 q 521 790 504 753 q 538 853 538 826 l 675 853 q 557 667 675 703 q 615 499 615 601 q 545 317 615 383 q 344 250 475 250 l 275 250 q 239 238 253 250 q 225 206 225 225 q 238 175 225 188 q 268 163 250 163 l 521 163 q 640 110 592 163 q 688 -28 688 58 q 656 -146 688 -94 q 571 -225 625 -197 q 451 -253 517 -253 l 183 -253 m 344 374 q 422 406 396 374 q 449 499 449 439 q 422 591 449 558 q 344 624 396 624 q 268 591 294 624 q 242 499 242 558 q 268 406 242 439 q 344 374 294 374 m 444 -126 q 498 -108 476 -126 q 519 -58 519 -89 q 500 -10 519 -28 q 451 8 481 8 l 257 8 q 210 -11 229 8 q 190 -58 190 -31 q 209 -108 190 -89 q 257 -126 228 -126 l 444 -126 z "},"ġ":{"ha":696,"x_min":22,"x_max":688,"o":"m 274 1004 l 422 1004 l 422 844 l 274 844 l 274 1004 m 183 -253 q 69 -206 115 -253 q 22 -85 22 -158 q 115 64 22 13 q 57 174 57 100 q 87 252 57 219 q 164 301 117 285 q 75 499 75 367 q 145 681 75 614 q 344 747 215 747 q 467 726 414 747 q 521 790 504 753 q 538 853 538 826 l 675 853 q 557 667 675 703 q 615 499 615 601 q 545 317 615 383 q 344 250 475 250 l 275 250 q 239 238 253 250 q 225 206 225 225 q 238 175 225 188 q 268 163 250 163 l 521 163 q 640 110 592 163 q 688 -28 688 58 q 656 -146 688 -94 q 571 -225 625 -197 q 451 -253 517 -253 l 183 -253 m 344 374 q 422 406 396 374 q 449 499 449 439 q 422 591 449 558 q 344 624 396 624 q 268 591 294 624 q 242 499 242 558 q 268 406 242 439 q 344 374 294 374 m 444 -126 q 498 -108 476 -126 q 519 -58 519 -89 q 500 -10 519 -28 q 451 8 481 8 l 257 8 q 210 -11 229 8 q 190 -58 190 -31 q 209 -108 190 -89 q 257 -126 228 -126 l 444 -126 z "},"h":{"ha":696,"x_min":76,"x_max":619,"o":"m 76 1004 l 243 1004 l 243 653 l 249 653 q 321 720 276 693 q 425 747 365 747 q 567 691 515 747 q 619 513 619 635 l 619 0 l 453 0 l 453 467 q 428 565 453 535 q 357 596 404 596 q 276 553 308 596 q 243 450 243 511 l 243 0 l 76 0 l 76 1004 z "},"ħ":{"ha":696,"x_min":0,"x_max":619,"o":"m 76 810 l 0 810 l 0 931 l 76 931 l 76 1004 l 243 1004 l 243 931 l 425 931 l 425 810 l 243 810 l 243 653 l 249 653 q 321 720 276 693 q 425 747 365 747 q 567 691 515 747 q 619 513 619 635 l 619 0 l 453 0 l 453 467 q 428 565 453 535 q 357 596 404 596 q 276 553 308 596 q 243 450 243 511 l 243 0 l 76 0 l 76 810 z "},"ĥ":{"ha":696,"x_min":-31,"x_max":619,"o":"m 89 1226 l 225 1226 l 343 1039 l 218 1039 l 157 1135 l 94 1039 l -31 1039 l 89 1226 m 76 1004 l 243 1004 l 243 653 l 249 653 q 321 720 276 693 q 425 747 365 747 q 567 691 515 747 q 619 513 619 635 l 619 0 l 453 0 l 453 467 q 428 565 453 535 q 357 596 404 596 q 276 553 308 596 q 243 450 243 511 l 243 0 l 76 0 l 76 1004 z "},"i":{"ha":317,"x_min":75,"x_max":242,"o":"m 75 1004 l 242 1004 l 242 853 l 75 853 l 75 1004 m 75 731 l 242 731 l 242 0 l 75 0 l 75 731 z "},"ı":{"ha":317,"x_min":75,"x_max":242,"o":"m 75 731 l 242 731 l 242 0 l 75 0 l 75 731 z "},"í":{"ha":317,"x_min":63,"x_max":350,"o":"m 182 1004 l 349 1004 l 350 1000 l 201 821 l 63 821 l 182 1004 m 75 731 l 242 731 l 242 0 l 75 0 l 75 731 z "},"ĭ":{"ha":317,"x_min":-28,"x_max":344,"o":"m 158 856 q 62 878 104 856 q -4 934 19 900 q -28 1004 -28 968 l 76 1004 q 103 973 81 988 q 158 958 126 958 q 215 973 192 958 q 242 1004 239 988 l 344 1004 q 322 934 344 968 q 256 878 299 900 q 158 856 214 856 m 75 731 l 242 731 l 242 0 l 75 0 l 75 731 z "},"î":{"ha":317,"x_min":-29,"x_max":346,"o":"m 92 1004 l 228 1004 l 346 817 l 221 817 l 160 913 l 97 817 l -29 817 l 92 1004 m 75 731 l 242 731 l 242 0 l 75 0 l 75 731 z "},"ï":{"ha":317,"x_min":-32,"x_max":350,"o":"m -32 1004 l 107 1004 l 107 853 l -32 853 l -32 1004 m 211 1004 l 350 1004 l 350 853 l 211 853 l 211 1004 m 75 731 l 242 731 l 242 0 l 75 0 l 75 731 z "},"ì":{"ha":317,"x_min":-33,"x_max":254,"o":"m -33 1000 l -32 1004 l 135 1004 l 254 821 l 117 821 l -33 1000 m 75 731 l 242 731 l 242 0 l 75 0 l 75 731 z "},"ĳ":{"ha":633,"x_min":75,"x_max":558,"o":"m 75 1004 l 242 1004 l 242 853 l 75 853 l 75 1004 m 392 1004 l 558 1004 l 558 853 l 392 853 l 392 1004 m 75 731 l 242 731 l 242 0 l 75 0 l 75 731 m 389 -253 q 324 -248 360 -253 q 265 -236 289 -243 l 265 -112 l 326 -112 q 392 -46 392 -112 l 392 731 l 558 731 l 558 -57 q 519 -197 558 -142 q 389 -253 481 -253 z "},"ī":{"ha":317,"x_min":-19,"x_max":336,"o":"m -19 953 l 336 953 l 336 832 l -19 832 l -19 953 m 75 731 l 242 731 l 242 0 l 75 0 l 75 731 z "},"į":{"ha":317,"x_min":64,"x_max":293,"o":"m 233 844 l 85 844 l 85 1004 l 233 1004 l 233 844 m 293 -168 l 293 -244 q 201 -264 243 -264 q 104 -234 144 -264 q 64 -139 64 -204 q 79 -62 64 -94 q 124 0 94 -31 l 75 0 l 75 731 l 242 731 l 242 0 q 214 -42 228 -15 q 200 -97 200 -69 q 215 -148 200 -128 q 263 -168 231 -168 l 293 -168 z "},"ĩ":{"ha":317,"x_min":-75,"x_max":393,"o":"m -75 835 q -40 953 -75 901 q 61 1004 -6 1004 q 104 998 85 1004 q 158 978 124 992 q 208 959 189 965 q 247 953 226 953 q 283 965 271 953 q 300 1004 296 976 l 393 1004 q 358 887 393 939 q 256 835 322 835 q 215 841 233 835 q 161 861 196 847 q 113 880 132 874 q 72 886 93 886 q 35 874 49 886 q 18 835 22 863 l -75 835 m 75 731 l 242 731 l 242 0 l 75 0 l 75 731 z "},"j":{"ha":317,"x_min":-51,"x_max":242,"o":"m 75 1004 l 242 1004 l 242 853 l 75 853 l 75 1004 m 72 -253 q 8 -248 43 -253 q -51 -236 -28 -243 l -51 -112 l 10 -112 q 75 -46 75 -112 l 75 731 l 242 731 l 242 -57 q 203 -197 242 -142 q 72 -253 164 -253 z "},"ĵ":{"ha":317,"x_min":-51,"x_max":347,"o":"m 93 1004 l 231 1004 l 347 817 l 224 817 l 161 913 l 99 817 l -26 817 l 93 1004 m 72 -253 q 8 -248 43 -253 q -51 -236 -28 -243 l -51 -112 l 10 -112 q 75 -46 75 -112 l 75 731 l 242 731 l 242 -57 q 203 -197 242 -142 q 72 -253 164 -253 z "},"k":{"ha":633,"x_min":75,"x_max":635,"o":"m 75 1004 l 242 1004 l 242 440 l 446 731 l 624 731 l 407 433 l 635 0 l 450 0 l 303 303 l 242 228 l 242 0 l 75 0 l 75 1004 z "},"ķ":{"ha":633,"x_min":75,"x_max":635,"o":"m 75 1004 l 242 1004 l 242 440 l 446 731 l 624 731 l 407 433 l 635 0 l 450 0 l 303 303 l 242 228 l 242 0 l 75 0 l 75 1004 m 299 -247 l 232 -247 l 232 -76 l 403 -76 l 403 -232 l 340 -365 l 250 -365 l 299 -247 z "},"ĸ":{"ha":635,"x_min":75,"x_max":635,"o":"m 75 731 l 242 731 l 242 440 l 446 731 l 624 731 l 407 433 l 635 0 l 450 0 l 303 303 l 242 228 l 242 0 l 75 0 l 75 731 z "},"l":{"ha":317,"x_min":75,"x_max":242,"o":"m 75 1004 l 242 1004 l 242 0 l 75 0 l 75 1004 z "},"ĺ":{"ha":317,"x_min":63,"x_max":350,"o":"m 182 1226 l 349 1226 l 350 1222 l 201 1043 l 63 1043 l 182 1226 m 75 1004 l 242 1004 l 242 0 l 75 0 l 75 1004 z "},"ľ":{"ha":439,"x_min":75,"x_max":506,"o":"m 75 1004 l 242 1004 l 242 0 l 75 0 l 75 1004 m 390 763 l 314 763 l 314 953 l 506 953 l 506 779 l 414 546 l 314 546 l 390 763 z "},"ļ":{"ha":317,"x_min":74,"x_max":244,"o":"m 75 1004 l 242 1004 l 242 0 l 75 0 l 75 1004 m 142 -247 l 74 -247 l 74 -76 l 244 -76 l 244 -232 l 182 -365 l 92 -365 l 142 -247 z "},"ŀ":{"ha":464,"x_min":75,"x_max":464,"o":"m 75 1004 l 242 1004 l 242 0 l 75 0 l 75 1004 m 296 568 l 464 568 l 464 386 l 296 386 l 296 568 z "},"ł":{"ha":317,"x_min":-19,"x_max":351,"o":"m 75 321 l -19 238 l -19 371 l 75 454 l 75 1004 l 242 1004 l 242 603 l 351 701 l 351 567 l 242 469 l 242 0 l 75 0 l 75 321 z "},"m":{"ha":1013,"x_min":76,"x_max":940,"o":"m 76 731 l 215 731 l 232 640 l 240 640 q 313 717 269 688 q 414 747 357 747 q 571 640 531 747 q 650 717 601 688 q 760 747 699 747 q 940 513 940 747 l 940 0 l 774 0 l 774 467 q 754 566 774 536 q 692 596 735 596 q 620 558 650 596 q 590 461 590 519 l 590 0 l 426 0 l 426 467 q 406 566 426 536 q 343 596 386 596 q 272 555 300 596 q 243 450 243 514 l 243 0 l 76 0 l 76 731 z "},"n":{"ha":696,"x_min":76,"x_max":619,"o":"m 76 731 l 215 731 l 232 640 l 240 640 q 318 717 272 688 q 425 747 364 747 q 567 691 515 747 q 619 513 619 635 l 619 0 l 453 0 l 453 467 q 428 565 453 535 q 357 596 404 596 q 276 553 308 596 q 243 450 243 511 l 243 0 l 76 0 l 76 731 z "},"ń":{"ha":696,"x_min":76,"x_max":619,"o":"m 372 1004 l 539 1004 l 540 1000 l 390 821 l 253 821 l 372 1004 m 76 731 l 215 731 l 232 640 l 240 640 q 318 717 272 688 q 425 747 364 747 q 567 691 515 747 q 619 513 619 635 l 619 0 l 453 0 l 453 467 q 428 565 453 535 q 357 596 404 596 q 276 553 308 596 q 243 450 243 511 l 243 0 l 76 0 l 76 731 z "},"ŉ":{"ha":939,"x_min":93,"x_max":863,"o":"m 161 782 l 93 782 l 93 953 l 265 953 l 265 797 l 203 665 l 113 665 l 161 782 m 319 731 l 458 731 l 475 640 l 483 640 q 561 717 515 688 q 668 747 607 747 q 810 691 758 747 q 863 513 863 635 l 863 0 l 696 0 l 696 467 q 672 565 696 535 q 600 596 647 596 q 519 553 551 596 q 486 450 486 511 l 486 0 l 319 0 l 319 731 z "},"ň":{"ha":696,"x_min":76,"x_max":619,"o":"m 161 1004 l 286 1004 l 349 908 l 410 1004 l 535 1004 l 417 817 l 281 817 l 161 1004 m 76 731 l 215 731 l 232 640 l 240 640 q 318 717 272 688 q 425 747 364 747 q 567 691 515 747 q 619 513 619 635 l 619 0 l 453 0 l 453 467 q 428 565 453 535 q 357 596 404 596 q 276 553 308 596 q 243 450 243 511 l 243 0 l 76 0 l 76 731 z "},"ņ":{"ha":696,"x_min":76,"x_max":619,"o":"m 76 731 l 215 731 l 232 640 l 240 640 q 318 717 272 688 q 425 747 364 747 q 567 691 515 747 q 619 513 619 635 l 619 0 l 453 0 l 453 467 q 428 565 453 535 q 357 596 404 596 q 276 553 308 596 q 243 450 243 511 l 243 0 l 76 0 l 76 731 m 331 -247 l 263 -247 l 263 -76 l 433 -76 l 433 -232 l 371 -365 l 281 -365 l 331 -247 z "},"ŋ":{"ha":696,"x_min":76,"x_max":619,"o":"m 450 -253 q 385 -248 421 -253 q 326 -236 350 -243 l 326 -112 l 388 -112 q 453 -46 453 -112 l 453 467 q 428 565 453 535 q 357 596 404 596 q 276 553 308 596 q 243 450 243 511 l 243 0 l 76 0 l 76 731 l 215 731 l 232 640 l 240 640 q 318 717 272 688 q 425 747 364 747 q 567 691 515 747 q 619 513 619 635 l 619 -57 q 581 -197 619 -142 q 450 -253 542 -253 z "},"ñ":{"ha":696,"x_min":76,"x_max":619,"o":"m 115 835 q 150 953 115 901 q 251 1004 185 1004 q 293 998 274 1004 q 347 978 313 992 q 396 959 376 965 q 436 953 415 953 q 473 965 460 953 q 490 1004 486 976 l 582 1004 q 547 886 582 938 q 444 835 513 835 q 403 841 422 835 q 350 861 385 847 q 301 880 321 874 q 261 886 282 886 q 207 835 214 886 l 115 835 m 76 731 l 215 731 l 232 640 l 240 640 q 318 717 272 688 q 425 747 364 747 q 567 691 515 747 q 619 513 619 635 l 619 0 l 453 0 l 453 467 q 428 565 453 535 q 357 596 404 596 q 276 553 308 596 q 243 450 243 511 l 243 0 l 76 0 l 76 731 z "},"o":{"ha":696,"x_min":57,"x_max":640,"o":"m 349 -17 q 129 76 201 -17 q 57 365 57 169 q 129 654 57 561 q 349 747 201 747 q 568 654 496 747 q 640 365 640 561 q 568 76 640 169 q 349 -17 496 -17 m 349 124 q 439 177 411 124 q 467 339 467 231 l 467 392 q 439 553 467 500 q 349 607 411 607 q 258 553 286 607 q 231 392 231 500 l 231 339 q 258 177 231 231 q 349 124 286 124 z "},"ó":{"ha":696,"x_min":57,"x_max":640,"o":"m 372 1004 l 539 1004 l 540 1000 l 390 821 l 253 821 l 372 1004 m 349 -17 q 129 76 201 -17 q 57 365 57 169 q 129 654 57 561 q 349 747 201 747 q 568 654 496 747 q 640 365 640 561 q 568 76 640 169 q 349 -17 496 -17 m 349 124 q 439 177 411 124 q 467 339 467 231 l 467 392 q 439 553 467 500 q 349 607 411 607 q 258 553 286 607 q 231 392 231 500 l 231 339 q 258 177 231 231 q 349 124 286 124 z "},"ŏ":{"ha":696,"x_min":57,"x_max":640,"o":"m 347 856 q 251 878 293 856 q 185 934 208 900 q 163 1004 163 968 l 265 1004 q 292 973 269 988 q 347 958 315 958 q 404 973 381 958 q 431 1004 428 988 l 533 1004 q 510 934 533 968 q 445 878 488 900 q 347 856 403 856 m 349 -17 q 129 76 201 -17 q 57 365 57 169 q 129 654 57 561 q 349 747 201 747 q 568 654 496 747 q 640 365 640 561 q 568 76 640 169 q 349 -17 496 -17 m 349 124 q 439 177 411 124 q 467 339 467 231 l 467 392 q 439 553 467 500 q 349 607 411 607 q 258 553 286 607 q 231 392 231 500 l 231 339 q 258 177 231 231 q 349 124 286 124 z "},"ô":{"ha":696,"x_min":57,"x_max":640,"o":"m 281 1004 l 417 1004 l 535 817 l 410 817 l 349 913 l 286 817 l 161 817 l 281 1004 m 349 -17 q 129 76 201 -17 q 57 365 57 169 q 129 654 57 561 q 349 747 201 747 q 568 654 496 747 q 640 365 640 561 q 568 76 640 169 q 349 -17 496 -17 m 349 124 q 439 177 411 124 q 467 339 467 231 l 467 392 q 439 553 467 500 q 349 607 411 607 q 258 553 286 607 q 231 392 231 500 l 231 339 q 258 177 231 231 q 349 124 286 124 z "},"ö":{"ha":696,"x_min":57,"x_max":640,"o":"m 157 1004 l 296 1004 l 296 853 l 157 853 l 157 1004 m 400 1004 l 539 1004 l 539 853 l 400 853 l 400 1004 m 349 -17 q 129 76 201 -17 q 57 365 57 169 q 129 654 57 561 q 349 747 201 747 q 568 654 496 747 q 640 365 640 561 q 568 76 640 169 q 349 -17 496 -17 m 349 124 q 439 177 411 124 q 467 339 467 231 l 467 392 q 439 553 467 500 q 349 607 411 607 q 258 553 286 607 q 231 392 231 500 l 231 339 q 258 177 231 231 q 349 124 286 124 z "},"ò":{"ha":696,"x_min":57,"x_max":640,"o":"m 156 1000 l 157 1004 l 324 1004 l 443 821 l 306 821 l 156 1000 m 349 -17 q 129 76 201 -17 q 57 365 57 169 q 129 654 57 561 q 349 747 201 747 q 568 654 496 747 q 640 365 640 561 q 568 76 640 169 q 349 -17 496 -17 m 349 124 q 439 177 411 124 q 467 339 467 231 l 467 392 q 439 553 467 500 q 349 607 411 607 q 258 553 286 607 q 231 392 231 500 l 231 339 q 258 177 231 231 q 349 124 286 124 z "},"ő":{"ha":696,"x_min":57,"x_max":640,"o":"m 278 1004 l 417 1004 l 418 1000 l 301 821 l 192 821 l 278 1004 m 472 1004 l 611 1004 l 613 1000 l 496 821 l 386 821 l 472 1004 m 349 -17 q 129 76 201 -17 q 57 365 57 169 q 129 654 57 561 q 349 747 201 747 q 568 654 496 747 q 640 365 640 561 q 568 76 640 169 q 349 -17 496 -17 m 349 124 q 439 177 411 124 q 467 339 467 231 l 467 392 q 439 553 467 500 q 349 607 411 607 q 258 553 286 607 q 231 392 231 500 l 231 339 q 258 177 231 231 q 349 124 286 124 z "},"ō":{"ha":696,"x_min":57,"x_max":640,"o":"m 171 953 l 525 953 l 525 832 l 171 832 l 171 953 m 349 -17 q 129 76 201 -17 q 57 365 57 169 q 129 654 57 561 q 349 747 201 747 q 568 654 496 747 q 640 365 640 561 q 568 76 640 169 q 349 -17 496 -17 m 349 124 q 439 177 411 124 q 467 339 467 231 l 467 392 q 439 553 467 500 q 349 607 411 607 q 258 553 286 607 q 231 392 231 500 l 231 339 q 258 177 231 231 q 349 124 286 124 z "},"ø":{"ha":696,"x_min":57,"x_max":640,"o":"m 135 69 q 57 365 57 164 q 129 654 57 561 q 349 747 201 747 q 488 718 429 747 l 518 775 l 622 775 l 561 663 q 640 365 640 569 q 568 76 640 169 q 349 -17 496 -17 q 207 13 268 -17 l 176 -44 l 72 -44 l 135 69 m 414 585 q 349 607 388 607 q 258 553 286 607 q 231 392 231 500 l 231 339 q 235 254 231 292 l 414 585 m 349 124 q 439 177 411 124 q 467 339 467 231 l 467 392 q 461 479 467 426 l 281 147 q 349 124 308 124 z "},"ǿ":{"ha":696,"x_min":57,"x_max":640,"o":"m 372 1004 l 539 1004 l 540 1000 l 390 821 l 253 821 l 372 1004 m 135 69 q 57 365 57 164 q 129 654 57 561 q 349 747 201 747 q 488 718 429 747 l 518 775 l 622 775 l 561 663 q 640 365 640 569 q 568 76 640 169 q 349 -17 496 -17 q 207 13 268 -17 l 176 -44 l 72 -44 l 135 69 m 414 585 q 349 607 388 607 q 258 553 286 607 q 231 392 231 500 l 231 339 q 235 254 231 292 l 414 585 m 349 124 q 439 177 411 124 q 467 339 467 231 l 467 392 q 461 479 467 426 l 281 147 q 349 124 308 124 z "},"õ":{"ha":696,"x_min":57,"x_max":640,"o":"m 115 835 q 150 953 115 901 q 251 1004 185 1004 q 293 998 274 1004 q 347 978 313 992 q 396 959 376 965 q 436 953 415 953 q 473 965 460 953 q 490 1004 486 976 l 582 1004 q 547 886 582 938 q 444 835 513 835 q 403 841 422 835 q 350 861 385 847 q 301 880 321 874 q 261 886 282 886 q 207 835 214 886 l 115 835 m 349 -17 q 129 76 201 -17 q 57 365 57 169 q 129 654 57 561 q 349 747 201 747 q 568 654 496 747 q 640 365 640 561 q 568 76 640 169 q 349 -17 496 -17 m 349 124 q 439 177 411 124 q 467 339 467 231 l 467 392 q 439 553 467 500 q 349 607 411 607 q 258 553 286 607 q 231 392 231 500 l 231 339 q 258 177 231 231 q 349 124 286 124 z "},"œ":{"ha":1075,"x_min":57,"x_max":1013,"o":"m 349 -17 q 129 76 201 -17 q 57 365 57 169 q 129 654 57 561 q 349 747 201 747 q 553 656 483 747 q 749 747 622 747 q 947 654 882 747 q 1013 365 1013 561 l 1013 324 l 642 324 q 669 170 643 221 q 754 119 694 119 q 822 156 797 119 q 847 258 847 193 l 1013 258 q 942 53 1013 122 q 754 -17 871 -17 q 554 74 624 -17 q 349 -17 482 -17 m 838 444 q 749 611 838 611 q 672 569 697 611 q 643 444 647 526 l 838 444 m 349 124 q 439 177 411 124 q 467 339 467 231 l 467 392 q 439 553 467 500 q 349 607 411 607 q 258 553 286 607 q 231 392 231 500 l 231 339 q 258 177 231 231 q 349 124 286 124 z "},"p":{"ha":696,"x_min":76,"x_max":639,"o":"m 76 731 l 215 731 l 232 640 l 239 640 q 308 720 265 693 q 404 747 351 747 q 577 652 515 747 q 639 364 639 557 q 577 78 639 174 q 413 -17 515 -17 q 313 8 357 -17 q 250 75 269 32 l 243 75 l 243 -240 l 76 -240 l 76 731 m 354 135 q 439 185 413 135 q 465 339 465 236 l 465 392 q 439 545 465 494 q 354 596 413 596 q 269 545 296 596 q 243 392 243 494 l 243 342 q 269 187 243 239 q 354 135 296 135 z "},"þ":{"ha":696,"x_min":76,"x_max":639,"o":"m 76 1004 l 243 1004 l 243 647 l 244 647 q 313 722 271 696 q 404 747 354 747 q 577 652 515 747 q 639 364 639 557 q 577 78 639 174 q 413 -17 515 -17 q 313 8 357 -17 q 250 75 269 32 l 243 75 l 243 -240 l 76 -240 l 76 1004 m 354 135 q 439 185 413 135 q 465 339 465 236 l 465 392 q 439 545 465 494 q 354 596 413 596 q 269 545 296 596 q 243 392 243 494 l 243 342 q 269 187 243 239 q 354 135 296 135 z "},"q":{"ha":696,"x_min":57,"x_max":619,"o":"m 453 75 l 446 75 q 383 8 426 32 q 283 -17 339 -17 q 119 78 181 -17 q 57 364 57 174 q 119 652 57 557 q 292 747 181 747 q 388 720 344 747 q 457 640 431 693 l 464 640 l 481 731 l 619 731 l 619 -240 l 453 -240 l 453 75 m 342 135 q 426 187 400 135 q 453 342 453 239 l 453 392 q 426 545 453 494 q 342 596 400 596 q 257 545 283 596 q 231 392 231 494 l 231 339 q 257 185 231 236 q 342 135 283 135 z "},"r":{"ha":443,"x_min":76,"x_max":439,"o":"m 76 731 l 215 731 l 235 624 l 243 624 q 290 713 261 679 q 369 747 319 747 q 415 742 396 747 q 439 736 435 738 l 439 575 l 379 575 q 281 536 318 575 q 243 407 243 497 l 243 0 l 76 0 l 76 731 z "},"ŕ":{"ha":443,"x_min":58,"x_max":439,"o":"m 178 1004 l 346 1004 l 347 1000 l 197 821 l 58 821 l 178 1004 m 76 731 l 215 731 l 235 624 l 243 624 q 290 713 261 679 q 369 747 319 747 q 415 742 396 747 q 439 736 435 738 l 439 575 l 379 575 q 281 536 318 575 q 243 407 243 497 l 243 0 l 76 0 l 76 731 z "},"ř":{"ha":443,"x_min":-32,"x_max":439,"o":"m -32 1004 l 93 1004 l 156 908 l 217 1004 l 342 1004 l 224 817 l 88 817 l -32 1004 m 76 731 l 215 731 l 235 624 l 243 624 q 290 713 261 679 q 369 747 319 747 q 415 742 396 747 q 439 736 435 738 l 439 575 l 379 575 q 281 536 318 575 q 243 407 243 497 l 243 0 l 76 0 l 76 731 z "},"ŗ":{"ha":443,"x_min":76,"x_max":439,"o":"m 76 731 l 215 731 l 235 624 l 243 624 q 290 713 261 679 q 369 747 319 747 q 415 742 396 747 q 439 736 435 738 l 439 575 l 379 575 q 281 536 318 575 q 243 407 243 497 l 243 0 l 76 0 l 76 731 m 150 -247 l 82 -247 l 82 -76 l 254 -76 l 254 -232 l 190 -365 l 100 -365 l 150 -247 z "},"s":{"ha":633,"x_min":46,"x_max":583,"o":"m 311 -17 q 116 47 186 -17 q 46 215 46 110 l 47 232 l 217 232 l 217 222 q 247 144 218 168 q 317 119 276 119 q 385 138 356 119 q 414 199 414 157 q 381 263 414 243 q 275 303 347 283 q 163 342 206 322 q 88 406 119 361 q 57 525 57 450 q 130 690 57 632 q 318 747 203 747 q 495 694 425 747 q 565 549 565 640 l 564 517 l 394 517 l 394 519 q 313 611 393 611 q 250 592 274 611 q 226 539 226 572 q 258 483 226 500 q 358 447 290 465 q 474 409 429 429 q 551 344 518 389 q 583 219 583 299 q 311 -17 583 -17 z "},"ś":{"ha":633,"x_min":46,"x_max":583,"o":"m 340 1004 l 507 1004 l 508 1000 l 358 821 l 221 821 l 340 1004 m 311 -17 q 116 47 186 -17 q 46 215 46 110 l 47 232 l 217 232 l 217 222 q 247 144 218 168 q 317 119 276 119 q 385 138 356 119 q 414 199 414 157 q 381 263 414 243 q 275 303 347 283 q 163 342 206 322 q 88 406 119 361 q 57 525 57 450 q 130 690 57 632 q 318 747 203 747 q 495 694 425 747 q 565 549 565 640 l 564 517 l 394 517 l 394 518 q 373 588 394 565 q 313 611 351 611 q 250 592 274 611 q 226 539 226 572 q 258 483 226 500 q 358 447 290 465 q 474 409 429 429 q 551 344 518 389 q 583 219 583 299 q 311 -17 583 -17 z "},"š":{"ha":633,"x_min":46,"x_max":583,"o":"m 131 1004 l 256 1004 l 318 908 l 379 1004 l 504 1004 l 386 817 l 250 817 l 131 1004 m 311 -17 q 116 47 186 -17 q 46 215 46 110 l 47 232 l 217 232 l 217 222 q 247 144 218 168 q 317 119 276 119 q 385 138 356 119 q 414 199 414 157 q 381 263 414 243 q 275 303 347 283 q 163 342 206 322 q 88 406 119 361 q 57 525 57 450 q 130 690 57 632 q 318 747 203 747 q 495 694 425 747 q 565 549 565 640 l 564 517 l 394 517 l 394 518 q 373 588 394 565 q 313 611 351 611 q 250 592 274 611 q 226 539 226 572 q 258 483 226 500 q 358 447 290 465 q 474 409 429 429 q 551 344 518 389 q 583 219 583 299 q 311 -17 583 -17 z "},"ş":{"ha":633,"x_min":46,"x_max":583,"o":"m 300 -253 q 183 -242 236 -253 l 183 -174 l 282 -174 q 319 -166 307 -174 q 332 -140 332 -158 q 321 -115 332 -124 q 285 -107 310 -107 l 239 -107 l 250 -12 q 99 62 153 1 q 46 215 46 122 l 47 232 l 217 232 l 217 222 q 247 144 218 168 q 317 119 276 119 q 385 138 356 119 q 414 199 414 157 q 381 263 414 243 q 275 303 347 283 q 163 342 206 322 q 88 406 119 361 q 57 525 57 450 q 130 690 57 632 q 318 747 203 747 q 495 694 425 747 q 565 549 565 640 l 564 517 l 394 517 l 394 518 q 373 588 394 565 q 313 611 351 611 q 250 592 274 611 q 226 539 226 572 q 258 483 226 500 q 358 447 290 465 q 474 409 429 429 q 551 344 518 389 q 583 219 583 299 q 344 -15 583 -1 l 342 -46 q 421 -72 390 -49 q 451 -140 451 -96 q 405 -228 451 -203 q 300 -253 358 -253 z "},"ŝ":{"ha":633,"x_min":46,"x_max":583,"o":"m 250 1004 l 386 1004 l 504 817 l 379 817 l 318 913 l 256 817 l 131 817 l 250 1004 m 311 -17 q 116 47 186 -17 q 46 215 46 110 l 47 232 l 217 232 l 217 222 q 247 144 218 168 q 317 119 276 119 q 385 138 356 119 q 414 199 414 157 q 381 263 414 243 q 275 303 347 283 q 163 342 206 322 q 88 406 119 361 q 57 525 57 450 q 130 690 57 632 q 318 747 203 747 q 495 694 425 747 q 565 549 565 640 l 564 517 l 394 517 l 394 518 q 373 588 394 565 q 313 611 351 611 q 250 592 274 611 q 226 539 226 572 q 258 483 226 500 q 358 447 290 465 q 474 409 429 429 q 551 344 518 389 q 583 219 583 299 q 311 -17 583 -17 z "},"ß":{"ha":696,"x_min":56,"x_max":657,"o":"m 56 722 q 138 947 56 874 q 353 1021 219 1021 q 551 951 474 1021 q 628 761 628 881 q 591 631 628 692 q 496 549 554 571 l 496 543 q 612 447 567 517 q 657 297 657 378 q 620 142 657 210 q 520 38 583 75 q 379 0 457 0 l 289 0 l 289 142 l 361 142 q 451 188 414 142 q 489 299 489 235 q 451 406 489 361 q 361 450 414 450 l 289 450 l 289 607 l 357 607 q 430 651 400 607 q 460 757 460 696 q 430 847 460 813 q 346 881 400 881 q 256 842 289 881 q 222 733 222 803 l 222 0 l 56 0 l 56 722 z "},"ſ":{"ha":317,"x_min":13,"x_max":379,"o":"m 86 590 l 13 590 l 13 731 l 86 731 l 86 819 q 126 959 86 903 q 258 1015 167 1015 q 322 1010 286 1015 q 379 999 357 1006 l 379 875 l 311 875 q 268 860 283 875 q 253 815 253 844 l 253 0 l 86 0 l 86 590 z "},"t":{"ha":379,"x_min":13,"x_max":358,"o":"m 258 -17 q 126 40 167 -17 q 86 179 86 96 l 86 590 l 13 590 l 13 731 l 86 731 l 111 936 l 253 936 l 253 731 l 358 731 l 358 590 l 253 590 l 253 183 q 268 139 253 154 q 311 124 283 124 l 358 124 l 358 0 q 311 -12 340 -7 q 258 -17 282 -17 z "},"ŧ":{"ha":379,"x_min":13,"x_max":358,"o":"m 258 -17 q 126 40 167 -17 q 86 179 86 96 l 86 364 l 15 364 l 15 485 l 86 485 l 86 590 l 13 590 l 13 731 l 86 731 l 111 936 l 253 936 l 253 731 l 358 731 l 358 590 l 253 590 l 253 485 l 353 485 l 353 364 l 253 364 l 253 183 q 268 139 253 154 q 311 124 283 124 l 358 124 l 358 0 q 311 -12 340 -7 q 258 -17 282 -17 z "},"ť":{"ha":546,"x_min":13,"x_max":608,"o":"m 493 763 l 417 763 l 417 953 l 608 953 l 608 779 l 533 590 l 433 590 l 493 763 m 258 -17 q 126 40 167 -17 q 86 179 86 96 l 86 590 l 13 590 l 13 731 l 86 731 l 111 936 l 253 936 l 253 731 l 358 731 l 358 590 l 253 590 l 253 183 q 268 139 253 154 q 311 124 283 124 l 358 124 l 358 0 q 311 -12 340 -7 q 258 -17 282 -17 z "},"ţ":{"ha":379,"x_min":13,"x_max":358,"o":"m 258 -17 q 126 40 167 -17 q 86 179 86 96 l 86 590 l 13 590 l 13 731 l 86 731 l 111 936 l 253 936 l 253 731 l 358 731 l 358 590 l 253 590 l 253 183 q 268 139 253 154 q 311 124 283 124 l 358 124 l 358 0 q 311 -12 340 -7 q 258 -17 282 -17 m 172 -247 l 104 -247 l 104 -76 l 276 -76 l 276 -232 l 213 -365 l 122 -365 l 172 -247 z "},"u":{"ha":696,"x_min":76,"x_max":619,"o":"m 271 -17 q 128 40 181 -17 q 76 218 76 96 l 76 731 l 243 731 l 243 264 q 267 165 243 194 q 339 135 290 135 q 420 176 388 135 q 453 278 453 217 l 453 731 l 619 731 l 619 0 l 481 0 l 464 90 l 456 90 q 378 13 424 43 q 271 -17 332 -17 z "},"ú":{"ha":696,"x_min":76,"x_max":619,"o":"m 372 1004 l 539 1004 l 540 1000 l 390 821 l 253 821 l 372 1004 m 271 -17 q 128 40 181 -17 q 76 218 76 96 l 76 731 l 243 731 l 243 264 q 267 165 243 194 q 339 135 290 135 q 420 176 388 135 q 453 278 453 217 l 453 731 l 619 731 l 619 0 l 481 0 l 464 90 l 456 90 q 378 13 424 43 q 271 -17 332 -17 z "},"ŭ":{"ha":696,"x_min":76,"x_max":619,"o":"m 347 856 q 251 878 293 856 q 185 934 208 900 q 163 1004 163 968 l 265 1004 q 292 973 269 988 q 347 958 315 958 q 404 973 381 958 q 431 1004 428 988 l 533 1004 q 510 934 533 968 q 445 878 488 900 q 347 856 403 856 m 271 -17 q 128 40 181 -17 q 76 218 76 96 l 76 731 l 243 731 l 243 264 q 267 165 243 194 q 339 135 290 135 q 420 176 388 135 q 453 278 453 217 l 453 731 l 619 731 l 619 0 l 481 0 l 464 90 l 456 90 q 378 13 424 43 q 271 -17 332 -17 z "},"û":{"ha":696,"x_min":76,"x_max":619,"o":"m 281 1004 l 417 1004 l 535 817 l 410 817 l 349 913 l 286 817 l 161 817 l 281 1004 m 271 -17 q 128 40 181 -17 q 76 218 76 96 l 76 731 l 243 731 l 243 264 q 267 165 243 194 q 339 135 290 135 q 420 176 388 135 q 453 278 453 217 l 453 731 l 619 731 l 619 0 l 481 0 l 464 90 l 456 90 q 378 13 424 43 q 271 -17 332 -17 z "},"ü":{"ha":696,"x_min":76,"x_max":619,"o":"m 157 1004 l 296 1004 l 296 853 l 157 853 l 157 1004 m 400 1004 l 539 1004 l 539 853 l 400 853 l 400 1004 m 271 -17 q 128 40 181 -17 q 76 218 76 96 l 76 731 l 243 731 l 243 264 q 267 165 243 194 q 339 135 290 135 q 420 176 388 135 q 453 278 453 217 l 453 731 l 619 731 l 619 0 l 481 0 l 464 90 l 456 90 q 378 13 424 43 q 271 -17 332 -17 z "},"ù":{"ha":696,"x_min":76,"x_max":619,"o":"m 156 1000 l 157 1004 l 324 1004 l 443 821 l 306 821 l 156 1000 m 271 -17 q 128 40 181 -17 q 76 218 76 96 l 76 731 l 243 731 l 243 264 q 267 165 243 194 q 339 135 290 135 q 420 176 388 135 q 453 278 453 217 l 453 731 l 619 731 l 619 0 l 481 0 l 464 90 l 456 90 q 378 13 424 43 q 271 -17 332 -17 z "},"ű":{"ha":696,"x_min":76,"x_max":619,"o":"m 278 1004 l 417 1004 l 418 1000 l 301 821 l 192 821 l 278 1004 m 472 1004 l 611 1004 l 613 1000 l 496 821 l 386 821 l 472 1004 m 271 -17 q 128 40 181 -17 q 76 218 76 96 l 76 731 l 243 731 l 243 264 q 267 165 243 194 q 339 135 290 135 q 420 176 388 135 q 453 278 453 217 l 453 731 l 619 731 l 619 0 l 481 0 l 464 90 l 456 90 q 378 13 424 43 q 271 -17 332 -17 z "},"ū":{"ha":696,"x_min":76,"x_max":619,"o":"m 171 953 l 525 953 l 525 832 l 171 832 l 171 953 m 271 -17 q 128 40 181 -17 q 76 218 76 96 l 76 731 l 243 731 l 243 264 q 267 165 243 194 q 339 135 290 135 q 420 176 388 135 q 453 278 453 217 l 453 731 l 619 731 l 619 0 l 481 0 l 464 90 l 456 90 q 378 13 424 43 q 271 -17 332 -17 z "},"ų":{"ha":696,"x_min":76,"x_max":671,"o":"m 671 -168 l 671 -244 q 579 -264 621 -264 q 482 -234 522 -264 q 442 -139 442 -204 q 457 -62 442 -94 q 501 0 472 -31 l 481 0 l 464 90 l 456 90 q 378 13 424 43 q 271 -17 332 -17 q 128 40 181 -17 q 76 218 76 96 l 76 731 l 243 731 l 243 264 q 267 165 243 194 q 339 135 290 135 q 420 176 388 135 q 453 278 453 217 l 453 731 l 619 731 l 619 0 q 592 -42 606 -15 q 578 -97 578 -69 q 593 -148 578 -128 q 640 -168 608 -168 l 671 -168 z "},"ů":{"ha":696,"x_min":76,"x_max":619,"o":"m 349 779 q 255 818 294 779 q 215 913 215 857 q 254 1007 215 968 q 349 1046 293 1046 q 443 1006 404 1046 q 482 913 482 967 q 443 818 482 857 q 349 779 404 779 m 349 849 q 394 867 375 849 q 413 913 413 886 q 394 958 413 939 q 349 976 375 976 q 303 958 322 976 q 285 913 285 940 q 303 867 285 886 q 349 849 322 849 m 271 -17 q 128 40 181 -17 q 76 218 76 96 l 76 731 l 243 731 l 243 264 q 267 165 243 194 q 339 135 290 135 q 420 176 388 135 q 453 278 453 217 l 453 731 l 619 731 l 619 0 l 481 0 l 464 90 l 456 90 q 378 13 424 43 q 271 -17 332 -17 z "},"ũ":{"ha":696,"x_min":76,"x_max":619,"o":"m 115 835 q 150 953 115 901 q 251 1004 185 1004 q 293 998 274 1004 q 347 978 313 992 q 396 959 376 965 q 436 953 415 953 q 473 965 460 953 q 490 1004 486 976 l 582 1004 q 547 886 582 938 q 444 835 513 835 q 403 841 422 835 q 350 861 385 847 q 301 880 321 874 q 261 886 282 886 q 207 835 214 886 l 115 835 m 271 -17 q 128 40 181 -17 q 76 218 76 96 l 76 731 l 243 731 l 243 264 q 267 165 243 194 q 339 135 290 135 q 420 176 388 135 q 453 278 453 217 l 453 731 l 619 731 l 619 0 l 481 0 l 464 90 l 456 90 q 378 13 424 43 q 271 -17 332 -17 z "},"v":{"ha":633,"x_min":6,"x_max":628,"o":"m 6 731 l 181 731 l 275 417 q 301 303 286 382 q 321 197 317 224 l 326 197 q 343 299 331 222 q 368 417 356 376 l 461 731 l 628 731 l 401 0 l 232 0 l 6 731 z "},"w":{"ha":886,"x_min":1,"x_max":885,"o":"m 1 731 l 168 731 l 238 431 q 259 293 251 369 q 267 201 267 217 l 272 201 q 282 293 274 222 q 303 429 290 364 l 365 731 l 532 731 l 594 428 q 613 305 604 383 q 625 201 622 226 l 631 201 q 645 301 633 225 q 667 428 657 376 l 731 731 l 885 731 l 708 0 l 540 0 l 468 349 q 453 453 458 394 q 447 529 449 511 l 439 529 q 433 454 438 511 q 418 350 428 397 l 347 0 l 179 0 l 1 731 z "},"ẃ":{"ha":886,"x_min":1,"x_max":885,"o":"m 467 1004 l 635 1004 l 636 1000 l 486 821 l 347 821 l 467 1004 m 1 731 l 168 731 l 238 431 q 259 293 251 369 q 267 201 267 217 l 272 201 q 282 293 274 222 q 303 429 290 364 l 365 731 l 532 731 l 594 428 q 613 305 604 383 q 625 201 622 226 l 631 201 q 645 301 633 225 q 667 428 657 376 l 731 731 l 885 731 l 708 0 l 540 0 l 468 349 q 453 453 458 394 q 447 529 449 511 l 439 529 q 433 454 438 511 q 418 350 428 397 l 347 0 l 179 0 l 1 731 z "},"ŵ":{"ha":886,"x_min":1,"x_max":885,"o":"m 376 1004 l 513 1004 l 631 817 l 506 817 l 444 913 l 382 817 l 257 817 l 376 1004 m 1 731 l 168 731 l 238 431 q 259 293 251 369 q 267 201 267 217 l 272 201 q 282 293 274 222 q 303 429 290 364 l 365 731 l 532 731 l 594 428 q 613 305 604 383 q 625 201 622 226 l 631 201 q 645 301 633 225 q 667 428 657 376 l 731 731 l 885 731 l 708 0 l 540 0 l 468 349 q 453 453 458 394 q 447 529 449 511 l 439 529 q 433 454 438 511 q 418 350 428 397 l 347 0 l 179 0 l 1 731 z "},"ẅ":{"ha":886,"x_min":1,"x_max":885,"o":"m 253 1004 l 392 1004 l 392 853 l 253 853 l 253 1004 m 496 1004 l 635 1004 l 635 853 l 496 853 l 496 1004 m 1 731 l 168 731 l 238 431 q 259 293 251 369 q 267 201 267 217 l 272 201 q 282 293 274 222 q 303 429 290 364 l 365 731 l 532 731 l 594 428 q 613 305 604 383 q 625 201 622 226 l 631 201 q 645 301 633 225 q 667 428 657 376 l 731 731 l 885 731 l 708 0 l 540 0 l 468 349 q 453 453 458 394 q 447 529 449 511 l 439 529 q 433 454 438 511 q 418 350 428 397 l 347 0 l 179 0 l 1 731 z "},"ẁ":{"ha":886,"x_min":1,"x_max":885,"o":"m 251 1000 l 253 1004 l 419 1004 l 539 821 l 401 821 l 251 1000 m 1 731 l 168 731 l 238 431 q 259 293 251 369 q 267 201 267 217 l 272 201 q 282 293 274 222 q 303 429 290 364 l 365 731 l 532 731 l 594 428 q 613 305 604 383 q 625 201 622 226 l 631 201 q 645 301 633 225 q 667 428 657 376 l 731 731 l 885 731 l 708 0 l 540 0 l 468 349 q 453 453 458 394 q 447 529 449 511 l 439 529 q 433 454 438 511 q 418 350 428 397 l 347 0 l 179 0 l 1 731 z "},"x":{"ha":633,"x_min":7,"x_max":626,"o":"m 218 378 l 24 731 l 213 731 l 321 518 l 328 518 l 436 731 l 615 731 l 418 382 l 626 0 l 439 0 l 315 242 l 308 242 l 185 0 l 7 0 l 218 378 z "},"y":{"ha":633,"x_min":6,"x_max":628,"o":"m 169 -253 q 94 -248 126 -253 q 61 -240 61 -243 l 61 -112 l 136 -112 q 204 -85 174 -112 q 249 0 235 -57 l 6 731 l 182 731 l 292 388 q 315 286 303 353 q 331 197 328 219 l 336 197 q 350 283 339 218 q 371 386 361 347 l 461 731 l 628 731 l 428 38 q 328 -175 389 -97 q 169 -253 267 -253 z "},"ý":{"ha":633,"x_min":6,"x_max":628,"o":"m 340 1004 l 507 1004 l 508 1000 l 358 821 l 221 821 l 340 1004 m 169 -253 q 94 -248 126 -253 q 61 -240 61 -243 l 61 -112 l 136 -112 q 204 -85 174 -112 q 249 0 235 -57 l 6 731 l 182 731 l 292 388 q 315 286 303 353 q 331 197 328 219 l 336 197 q 350 283 339 218 q 371 386 361 347 l 461 731 l 628 731 l 428 38 q 328 -175 389 -97 q 169 -253 267 -253 z "},"ŷ":{"ha":633,"x_min":6,"x_max":628,"o":"m 250 1004 l 386 1004 l 504 817 l 379 817 l 318 913 l 256 817 l 131 817 l 250 1004 m 169 -253 q 94 -248 126 -253 q 61 -240 61 -243 l 61 -112 l 136 -112 q 204 -85 174 -112 q 249 0 235 -57 l 6 731 l 182 731 l 292 388 q 315 286 303 353 q 331 197 328 219 l 336 197 q 350 283 339 218 q 371 386 361 347 l 461 731 l 628 731 l 428 38 q 328 -175 389 -97 q 169 -253 267 -253 z "},"ÿ":{"ha":633,"x_min":6,"x_max":628,"o":"m 126 1004 l 265 1004 l 265 853 l 126 853 l 126 1004 m 369 1004 l 508 1004 l 508 853 l 369 853 l 369 1004 m 169 -253 q 94 -248 126 -253 q 61 -240 61 -243 l 61 -112 l 136 -112 q 204 -85 174 -112 q 249 0 235 -57 l 6 731 l 182 731 l 292 388 q 315 286 303 353 q 331 197 328 219 l 336 197 q 350 283 339 218 q 371 386 361 347 l 461 731 l 628 731 l 428 38 q 328 -175 389 -97 q 169 -253 267 -253 z "},"ỳ":{"ha":633,"x_min":6,"x_max":628,"o":"m 125 1000 l 126 1004 l 293 1004 l 413 821 l 275 821 l 125 1000 m 169 -253 q 94 -248 126 -253 q 61 -240 61 -243 l 61 -112 l 136 -112 q 204 -85 174 -112 q 249 0 235 -57 l 6 731 l 182 731 l 292 388 q 315 286 303 353 q 331 197 328 219 l 336 197 q 350 283 339 218 q 371 386 361 347 l 461 731 l 628 731 l 428 38 q 328 -175 389 -97 q 169 -253 267 -253 z "},"z":{"ha":569,"x_min":25,"x_max":544,"o":"m 25 71 l 308 590 l 42 590 l 42 731 l 535 731 l 535 661 l 250 140 l 544 140 l 544 0 l 25 0 l 25 71 z "},"ź":{"ha":569,"x_min":25,"x_max":544,"o":"m 308 1004 l 475 1004 l 476 1000 l 326 821 l 189 821 l 308 1004 m 25 71 l 308 590 l 42 590 l 42 731 l 535 731 l 535 661 l 250 140 l 544 140 l 544 0 l 25 0 l 25 71 z "},"ž":{"ha":569,"x_min":25,"x_max":544,"o":"m 99 1004 l 224 1004 l 286 908 l 347 1004 l 472 1004 l 354 817 l 218 817 l 99 1004 m 25 71 l 308 590 l 42 590 l 42 731 l 535 731 l 535 661 l 250 140 l 544 140 l 544 0 l 25 0 l 25 71 z "},"ż":{"ha":569,"x_min":25,"x_max":544,"o":"m 211 1004 l 360 1004 l 360 844 l 211 844 l 211 1004 m 25 71 l 308 590 l 42 590 l 42 731 l 535 731 l 535 661 l 250 140 l 544 140 l 544 0 l 25 0 l 25 71 z "},"ﬁ":{"ha":696,"x_min":13,"x_max":621,"o":"m 86 590 l 13 590 l 13 731 l 86 731 l 86 819 q 126 959 86 903 q 258 1015 167 1015 q 322 1010 286 1015 q 379 999 357 1006 l 379 875 l 311 875 q 268 860 283 875 q 253 815 253 844 l 253 731 l 379 731 l 379 590 l 253 590 l 253 0 l 86 0 l 86 590 m 454 1004 l 621 1004 l 621 853 l 454 853 l 454 1004 m 454 731 l 621 731 l 621 0 l 454 0 l 454 731 z "},"ﬂ":{"ha":696,"x_min":13,"x_max":621,"o":"m 86 590 l 13 590 l 13 731 l 86 731 l 86 819 q 126 959 86 903 q 258 1015 167 1015 q 322 1010 286 1015 q 379 999 357 1006 l 379 875 l 311 875 q 268 860 283 875 q 253 815 253 844 l 253 731 l 379 731 l 379 590 l 253 590 l 253 0 l 86 0 l 86 590 m 454 1004 l 621 1004 l 621 0 l 454 0 l 454 1004 z "},"ª":{"ha":421,"x_min":19,"x_max":426,"o":"m 143 504 q 58 535 97 504 q 19 643 19 567 q 82 776 19 736 q 258 815 144 815 l 258 867 q 249 908 258 893 q 213 922 239 922 q 172 909 185 922 q 160 876 160 896 l 160 863 l 44 863 q 43 882 43 868 q 88 982 43 944 q 210 1019 133 1019 q 336 982 294 1019 q 378 874 378 944 l 378 638 q 385 613 378 621 q 404 604 393 604 l 426 604 l 426 518 q 360 504 396 504 q 305 522 328 504 q 274 568 282 539 l 268 568 q 217 520 246 536 q 143 504 189 504 m 190 603 q 242 632 225 603 q 258 706 258 661 l 258 733 q 140 653 140 733 q 190 603 140 603 z "},"º":{"ha":415,"x_min":14,"x_max":408,"o":"m 211 503 q 63 566 111 503 q 14 761 14 629 q 63 956 14 893 q 211 1019 111 1019 q 360 956 311 1019 q 408 761 408 893 q 360 566 408 629 q 211 503 311 503 m 211 604 q 267 639 250 604 q 285 743 285 674 l 285 779 q 267 883 285 849 q 211 918 250 918 q 155 883 172 918 q 138 779 138 849 l 138 743 q 155 639 138 674 q 211 604 172 604 z "},"ⁿ":{"ha":451,"x_min":43,"x_max":408,"o":"m 43 1008 l 143 1008 l 154 949 l 160 949 q 278 1019 204 1019 q 408 861 408 1019 l 408 517 l 289 517 l 289 831 q 274 893 289 874 q 232 913 260 913 q 182 886 201 913 q 163 819 163 860 l 163 517 l 43 517 l 43 1008 z "},"π":{"ha":872,"x_min":28,"x_max":807,"o":"m 106 0 q 165 280 139 100 q 194 590 192 460 q 101 586 132 590 q 44 572 69 582 l 28 689 q 250 731 85 731 l 807 731 l 796 590 l 681 590 l 681 217 q 699 0 681 68 l 535 0 q 514 204 514 38 l 514 590 l 361 590 q 327 261 353 443 q 271 0 301 79 l 106 0 z "},"¹":{"ha":379,"x_min":44,"x_max":351,"o":"m 46 540 l 149 540 l 149 864 l 44 864 l 44 942 q 124 964 76 946 q 204 1004 171 982 l 260 1004 l 260 540 l 351 540 l 351 444 l 46 444 l 46 540 z "},"²":{"ha":379,"x_min":21,"x_max":351,"o":"m 21 469 q 47 573 21 528 q 126 679 74 618 q 208 783 182 742 q 233 871 233 824 q 223 907 233 892 q 189 922 213 922 q 153 901 165 922 q 140 846 140 879 l 140 807 l 31 807 q 28 820 29 810 q 26 844 26 831 q 74 976 26 933 q 193 1019 121 1019 q 306 983 263 1019 q 349 869 349 946 q 330 781 349 822 q 289 710 311 739 q 215 619 267 681 q 160 547 176 572 l 351 547 l 351 444 l 21 444 l 21 469 z "},"³":{"ha":379,"x_min":19,"x_max":356,"o":"m 190 433 q 65 480 110 433 q 19 607 19 526 l 19 628 l 133 628 l 133 604 q 189 529 133 529 q 227 548 213 529 q 242 604 242 567 q 183 685 242 685 l 149 685 l 149 778 l 185 778 q 218 799 204 778 q 232 857 232 819 q 189 924 232 924 q 143 854 143 924 l 143 832 l 29 832 l 29 861 q 73 976 29 932 q 188 1019 117 1019 q 303 978 260 1019 q 347 861 347 936 q 329 788 347 817 q 276 736 311 760 q 334 683 313 718 q 356 599 356 649 q 310 478 356 522 q 190 433 264 433 z "},"⁄":{"ha":190,"x_min":-231,"x_max":411,"o":"m 319 969 l 411 969 l -137 -17 l -231 -17 l 319 969 z "},"½":{"ha":950,"x_min":44,"x_max":921,"o":"m 724 969 l 815 969 l 267 -17 l 174 -17 l 724 969 m 46 489 l 149 489 l 149 813 l 44 813 l 44 890 q 124 913 76 894 q 204 953 171 931 l 260 953 l 260 489 l 351 489 l 351 393 l 46 393 l 46 489 m 590 25 q 617 128 590 83 q 696 235 643 174 q 777 338 751 297 q 803 426 803 379 q 792 463 803 447 q 758 478 782 478 q 722 456 735 478 q 710 401 710 435 l 710 363 l 600 363 q 597 376 599 365 q 596 400 596 386 q 643 532 596 489 q 763 575 690 575 q 875 538 832 575 q 918 425 918 501 q 900 336 918 378 q 859 265 882 294 q 786 176 836 235 q 729 103 742 122 l 921 103 l 921 0 l 590 0 l 590 25 z "},"¼":{"ha":950,"x_min":44,"x_max":918,"o":"m 731 969 l 822 969 l 274 -17 l 181 -17 l 731 969 m 46 489 l 149 489 l 149 813 l 44 813 l 44 890 q 124 913 76 894 q 204 953 171 931 l 260 953 l 260 489 l 351 489 l 351 393 l 46 393 l 46 489 m 750 124 l 551 124 l 551 208 q 693 575 632 351 l 803 575 q 736 375 782 479 q 656 219 690 271 l 750 219 l 750 271 q 790 360 767 303 q 822 453 813 418 l 860 453 l 860 219 l 918 219 l 918 124 l 860 124 l 860 0 l 750 0 l 750 124 z "},"¾":{"ha":950,"x_min":40,"x_max":914,"o":"m 211 383 q 85 430 131 383 q 40 557 40 476 l 40 578 l 154 578 l 154 554 q 210 479 154 479 q 248 498 233 479 q 263 554 263 517 q 204 635 263 635 l 169 635 l 169 728 l 206 728 q 239 749 225 728 q 253 807 253 769 q 210 874 253 874 q 164 804 164 874 l 164 782 l 50 782 l 50 811 q 94 926 50 882 q 208 969 138 969 q 324 928 281 969 q 368 811 368 886 q 350 738 368 767 q 297 686 332 710 q 355 633 333 668 q 376 549 376 599 q 331 428 376 472 q 211 383 285 383 m 725 969 l 817 969 l 268 -17 l 175 -17 l 725 969 m 746 124 l 547 124 l 547 208 q 689 575 628 351 l 799 575 q 732 375 778 479 q 651 219 686 271 l 746 219 l 746 271 q 785 360 763 303 q 818 453 808 418 l 856 453 l 856 219 l 914 219 l 914 124 l 856 124 l 856 0 l 746 0 l 746 124 z "},"⅛":{"ha":950,"x_min":44,"x_max":913,"o":"m 719 969 l 811 969 l 263 -17 l 169 -17 l 719 969 m 46 489 l 149 489 l 149 813 l 44 813 l 44 890 q 124 913 76 894 q 204 953 171 931 l 260 953 l 260 489 l 351 489 l 351 393 l 46 393 l 46 489 m 746 -18 q 620 28 661 -18 q 579 150 579 75 q 644 282 579 242 q 605 338 619 304 q 590 407 590 371 q 631 522 590 476 q 746 568 672 568 q 860 522 819 568 q 901 407 901 476 q 888 337 901 369 q 847 283 874 304 q 896 228 879 263 q 913 150 913 194 q 872 28 913 75 q 746 -18 831 -18 m 746 328 q 789 400 789 328 q 746 474 789 474 q 703 400 703 474 q 746 328 703 328 m 746 76 q 799 156 799 76 q 746 235 799 235 q 707 215 721 235 q 693 156 693 194 q 707 97 693 117 q 746 76 721 76 z "},"⅜":{"ha":950,"x_min":32,"x_max":913,"o":"m 714 969 l 806 969 l 257 -17 l 164 -17 l 714 969 m 203 367 q 77 413 122 367 q 32 540 32 460 l 32 561 l 146 561 l 146 538 q 201 463 146 463 q 240 481 225 463 q 254 538 254 500 q 196 618 254 618 l 161 618 l 161 711 l 197 711 q 231 732 217 711 q 244 790 244 753 q 201 857 244 857 q 156 788 156 857 l 156 765 l 42 765 l 42 794 q 85 909 42 865 q 200 953 129 953 q 316 911 272 953 q 360 794 360 869 q 342 722 360 750 q 289 669 324 693 q 347 617 325 651 q 368 532 368 582 q 322 411 368 456 q 203 367 276 367 m 746 -17 q 620 30 661 -17 q 579 151 579 76 q 644 283 579 243 q 605 339 619 306 q 590 408 590 372 q 631 524 590 478 q 746 569 672 569 q 860 524 819 569 q 901 408 901 478 q 888 338 901 371 q 847 285 874 306 q 896 230 879 264 q 913 151 913 196 q 872 30 913 76 q 746 -17 831 -17 m 746 329 q 789 401 789 329 q 746 475 789 475 q 703 401 703 475 q 746 329 703 329 m 746 78 q 799 157 799 78 q 746 236 799 236 q 707 216 721 236 q 693 157 693 196 q 707 98 693 118 q 746 78 721 78 z "},"⅝":{"ha":950,"x_min":35,"x_max":913,"o":"m 711 969 l 803 969 l 254 -17 l 161 -17 l 711 969 m 206 378 q 81 426 128 378 q 35 558 35 475 l 150 558 q 165 494 150 518 q 206 471 179 471 q 245 497 231 471 q 260 574 260 524 q 246 643 260 618 q 211 668 232 668 q 156 618 175 668 l 51 635 l 69 953 l 350 953 l 350 849 l 167 849 l 161 735 q 232 758 194 758 q 335 711 294 758 q 375 574 375 664 q 329 429 375 481 q 206 378 283 378 m 746 -18 q 620 28 661 -18 q 579 150 579 75 q 644 282 579 242 q 605 338 619 304 q 590 407 590 371 q 631 522 590 476 q 746 568 672 568 q 860 522 819 568 q 901 407 901 476 q 888 337 901 369 q 847 283 874 304 q 896 228 879 263 q 913 150 913 194 q 872 28 913 75 q 746 -18 831 -18 m 746 328 q 789 400 789 328 q 746 474 789 474 q 703 400 703 474 q 746 328 703 328 m 746 76 q 799 156 799 76 q 746 235 799 235 q 707 215 721 235 q 693 156 693 194 q 707 97 693 117 q 746 76 721 76 z "},"⅞":{"ha":950,"x_min":60,"x_max":913,"o":"m 676 969 l 768 969 l 219 -17 l 126 -17 l 676 969 m 121 400 q 165 637 121 519 q 278 849 210 754 l 60 849 l 60 953 l 403 953 l 403 879 q 286 663 332 771 q 240 440 240 554 l 240 393 l 121 393 l 121 400 m 746 -18 q 620 28 661 -18 q 579 150 579 75 q 644 282 579 242 q 605 338 619 304 q 590 407 590 371 q 631 522 590 476 q 746 568 672 568 q 860 522 819 568 q 901 407 901 476 q 888 337 901 369 q 847 283 874 304 q 896 228 879 263 q 913 150 913 194 q 872 28 913 75 q 746 -18 831 -18 m 746 328 q 789 400 789 328 q 746 474 789 474 q 703 400 703 474 q 746 328 703 328 m 746 76 q 799 156 799 76 q 746 235 799 235 q 707 215 721 235 q 693 156 693 194 q 707 97 693 117 q 746 76 721 76 z "},"*":{"ha":443,"x_min":11,"x_max":433,"o":"m 182 671 l 65 588 l 11 682 l 140 740 l 11 801 l 65 893 l 182 811 l 168 953 l 276 953 l 263 813 l 379 893 l 433 801 l 304 740 l 433 682 l 379 588 l 263 671 l 276 529 l 168 529 l 182 671 z "},"\\":{"ha":317,"x_min":1,"x_max":317,"o":"m 1 1021 l 119 1021 l 317 -68 l 197 -68 l 1 1021 z "},"·":{"ha":317,"x_min":74,"x_max":242,"o":"m 74 568 l 242 568 l 242 386 l 74 386 l 74 568 z "},"•":{"ha":399,"x_min":32,"x_max":367,"o":"m 199 306 q 115 329 153 306 q 54 392 76 353 q 32 478 32 432 q 81 599 32 549 q 199 649 129 649 q 317 598 268 649 q 367 478 367 547 q 344 392 367 432 q 283 329 321 353 q 199 306 244 306 z "},":":{"ha":379,"x_min":76,"x_max":268,"o":"m 76 731 l 268 731 l 268 540 l 76 540 l 76 731 m 76 190 l 268 190 l 268 0 l 76 0 l 76 190 z "},",":{"ha":317,"x_min":63,"x_max":254,"o":"m 139 0 l 63 0 l 63 190 l 254 190 l 254 17 l 163 -217 l 63 -217 l 139 0 z "},"…":{"ha":1139,"x_min":94,"x_max":1044,"o":"m 94 190 l 286 190 l 286 0 l 94 0 l 94 190 m 474 190 l 665 190 l 665 0 l 474 0 l 474 190 m 853 190 l 1044 190 l 1044 0 l 853 0 l 853 190 z "},"!":{"ha":379,"x_min":83,"x_max":296,"o":"m 83 953 l 296 953 l 246 274 l 132 274 l 83 953 m 94 190 l 286 190 l 286 0 l 94 0 l 94 190 z "},"‼":{"ha":758,"x_min":83,"x_max":675,"o":"m 83 953 l 296 953 l 246 274 l 132 274 l 83 953 m 463 953 l 675 953 l 625 274 l 511 274 l 463 953 m 94 190 l 286 190 l 286 0 l 94 0 l 94 190 m 474 190 l 665 190 l 665 0 l 474 0 l 474 190 z "},"¡":{"ha":379,"x_min":83,"x_max":296,"o":"m 94 731 l 286 731 l 286 540 l 94 540 l 94 731 m 132 457 l 246 457 l 296 -222 l 83 -222 l 132 457 z "},"#":{"ha":633,"x_min":7,"x_max":625,"o":"m 94 271 l 7 271 l 7 388 l 121 388 l 164 583 l 61 583 l 61 700 l 190 700 l 251 969 l 374 969 l 313 700 l 417 700 l 478 969 l 600 969 l 539 700 l 625 700 l 625 583 l 513 583 l 469 388 l 571 388 l 571 271 l 443 271 l 382 0 l 260 0 l 321 271 l 217 271 l 156 0 l 33 0 l 94 271 m 347 388 l 390 583 l 286 583 l 243 388 l 347 388 z "},".":{"ha":317,"x_min":63,"x_max":254,"o":"m 63 190 l 254 190 l 254 0 l 63 0 l 63 190 z "},"?":{"ha":696,"x_min":65,"x_max":629,"o":"m 281 333 q 301 426 281 388 q 361 513 321 464 q 426 605 404 564 q 447 707 447 646 q 426 783 447 744 q 350 821 406 821 q 266 776 289 821 q 243 675 243 731 q 244 650 243 660 q 244 638 244 640 l 69 638 q 67 657 68 643 q 65 686 65 671 q 99 830 65 765 q 199 932 132 894 q 361 969 265 969 q 556 901 483 969 q 629 722 629 833 q 603 579 629 632 q 529 471 578 526 q 474 394 492 428 q 456 313 456 361 l 456 274 l 281 274 l 281 333 m 274 190 l 465 190 l 465 0 l 274 0 l 274 190 z "},"¿":{"ha":696,"x_min":67,"x_max":631,"o":"m 231 731 l 422 731 l 422 540 l 231 540 l 231 731 m 335 -239 q 140 -171 213 -239 q 67 8 67 -103 q 92 151 67 99 q 167 260 118 204 q 222 336 204 303 q 240 418 240 369 l 240 457 l 415 457 l 415 397 q 395 305 415 343 q 335 218 375 267 q 270 126 292 167 q 249 24 249 85 q 269 -52 249 -14 q 346 -90 290 -90 q 430 -45 407 -90 q 453 56 453 0 q 452 81 453 71 q 451 93 451 90 l 626 93 q 629 74 628 88 q 631 44 631 60 q 597 -99 631 -35 q 497 -201 564 -164 q 335 -239 431 -239 z "},"\"":{"ha":540,"x_min":63,"x_max":483,"o":"m 63 749 l 63 953 l 232 953 l 232 749 l 203 565 l 93 565 l 63 749 m 314 749 l 314 953 l 483 953 l 483 749 l 454 565 l 344 565 l 314 749 z "},"'":{"ha":271,"x_min":51,"x_max":221,"o":"m 51 749 l 51 953 l 221 953 l 221 749 l 192 565 l 82 565 l 51 749 z "},";":{"ha":379,"x_min":75,"x_max":268,"o":"m 76 731 l 268 731 l 268 540 l 76 540 l 76 731 m 151 0 l 75 0 l 75 190 l 267 190 l 267 17 l 175 -217 l 75 -217 l 151 0 z "},"/":{"ha":317,"x_min":1,"x_max":317,"o":"m 199 1021 l 317 1021 l 121 -68 l 1 -68 l 199 1021 z "},"_":{"ha":633,"x_min":0,"x_max":632,"o":"m 0 -87 l 632 -87 l 632 -183 l 0 -183 l 0 -87 z "},"‗":{"ha":694,"x_min":0,"x_max":694,"o":"m 0 -122 l 694 -122 l 694 -193 l 0 -193 l 0 -122 m 0 -243 l 694 -243 l 694 -314 l 0 -314 l 0 -243 z "},"‾":{"ha":694,"x_min":0,"x_max":694,"o":"m 0 1194 l 694 1194 l 694 1099 l 0 1099 l 0 1194 z "},"{":{"ha":443,"x_min":33,"x_max":414,"o":"m 414 -221 q 214 -178 288 -221 q 140 -15 140 -135 l 140 253 q 108 316 140 296 q 33 336 76 336 l 33 464 q 108 484 76 464 q 140 547 140 504 l 140 815 q 214 978 140 935 q 414 1021 288 1021 l 414 914 q 336 895 368 914 q 304 829 304 876 q 299 663 304 774 l 294 557 q 257 445 292 483 q 144 407 222 407 l 144 393 q 257 356 222 393 q 294 243 292 318 l 299 138 q 304 -29 304 26 q 414 -114 304 -114 l 414 -221 z "},"}":{"ha":443,"x_min":29,"x_max":410,"o":"m 29 -114 q 139 -29 139 -114 q 144 138 139 26 l 149 243 q 186 356 151 318 q 299 393 221 393 l 299 407 q 186 445 221 407 q 149 557 151 483 l 144 663 q 139 829 139 774 q 107 895 139 876 q 29 914 75 914 l 29 1021 q 229 978 156 1021 q 303 815 303 935 l 303 547 q 335 484 303 504 q 410 464 367 464 l 410 336 q 335 316 367 336 q 303 253 303 296 l 303 -15 q 229 -178 303 -135 q 29 -221 156 -221 l 29 -114 z "},"[":{"ha":379,"x_min":68,"x_max":344,"o":"m 68 1021 l 344 1021 l 344 889 l 229 889 l 229 -92 l 344 -92 l 344 -224 l 68 -224 l 68 1021 z "},"]":{"ha":379,"x_min":35,"x_max":311,"o":"m 35 -92 l 150 -92 l 150 889 l 35 889 l 35 1021 l 311 1021 l 311 -224 l 35 -224 l 35 -92 z "},"(":{"ha":379,"x_min":42,"x_max":358,"o":"m 249 -218 q 95 69 149 -90 q 42 400 42 229 q 95 732 42 571 q 249 1021 149 893 l 358 1021 q 240 722 286 886 q 194 403 194 558 q 240 82 194 247 q 358 -218 286 -83 l 249 -218 z "},")":{"ha":379,"x_min":21,"x_max":338,"o":"m 21 -218 q 139 82 93 -83 q 185 403 185 247 q 139 722 185 558 q 21 1021 93 886 l 131 1021 q 284 732 231 893 q 338 400 338 571 q 284 69 338 229 q 131 -218 231 -90 l 21 -218 z "},"―":{"ha":1139,"x_min":142,"x_max":993,"o":"m 142 442 l 993 442 l 993 310 l 142 310 l 142 442 z "},"—":{"ha":1139,"x_min":0,"x_max":1139,"o":"m 0 443 l 1139 443 l 1139 307 l 0 307 l 0 443 z "},"–":{"ha":633,"x_min":0,"x_max":633,"o":"m 0 443 l 633 443 l 633 307 l 0 307 l 0 443 z "},"-":{"ha":379,"x_min":22,"x_max":357,"o":"m 22 457 l 357 457 l 357 293 l 22 293 l 22 457 z "},"­":{"ha":379,"x_min":22,"x_max":357,"o":"m 22 457 l 357 457 l 357 293 l 22 293 l 22 457 z "},"«":{"ha":633,"x_min":26,"x_max":596,"o":"m 26 453 l 215 731 l 342 731 l 192 453 l 342 175 l 215 175 l 26 453 m 281 453 l 469 731 l 596 731 l 446 453 l 596 175 l 469 175 l 281 453 z "},"»":{"ha":633,"x_min":38,"x_max":607,"o":"m 188 453 l 38 731 l 164 731 l 353 453 l 164 175 l 38 175 l 188 453 m 442 453 l 292 731 l 418 731 l 607 453 l 418 175 l 292 175 l 442 453 z "},"‹":{"ha":379,"x_min":26,"x_max":342,"o":"m 26 453 l 215 731 l 342 731 l 192 453 l 342 175 l 215 175 l 26 453 z "},"›":{"ha":379,"x_min":38,"x_max":353,"o":"m 188 453 l 38 731 l 164 731 l 353 453 l 164 175 l 38 175 l 188 453 z "},"„":{"ha":569,"x_min":63,"x_max":508,"o":"m 139 0 l 63 0 l 63 190 l 254 190 l 254 17 l 163 -217 l 63 -217 l 139 0 m 393 0 l 317 0 l 317 190 l 508 190 l 508 17 l 417 -217 l 317 -217 l 393 0 z "},"“":{"ha":569,"x_min":61,"x_max":507,"o":"m 61 719 l 153 953 l 253 953 l 176 736 l 253 736 l 253 546 l 61 546 l 61 719 m 315 719 l 407 953 l 507 953 l 431 736 l 507 736 l 507 546 l 315 546 l 315 719 z "},"”":{"ha":569,"x_min":63,"x_max":508,"o":"m 139 763 l 63 763 l 63 953 l 254 953 l 254 779 l 163 546 l 63 546 l 139 763 m 393 763 l 317 763 l 317 953 l 508 953 l 508 779 l 417 546 l 317 546 l 393 763 z "},"‘":{"ha":317,"x_min":63,"x_max":254,"o":"m 63 719 l 154 953 l 254 953 l 178 736 l 254 736 l 254 546 l 63 546 l 63 719 z "},"‛":{"ha":317,"x_min":63,"x_max":254,"o":"m 63 779 l 63 953 l 254 953 l 254 763 l 178 763 l 254 546 l 154 546 l 63 779 z "},"’":{"ha":317,"x_min":63,"x_max":254,"o":"m 139 763 l 63 763 l 63 953 l 254 953 l 254 779 l 163 546 l 63 546 l 139 763 z "},"‚":{"ha":317,"x_min":63,"x_max":254,"o":"m 139 0 l 63 0 l 63 190 l 254 190 l 254 17 l 163 -217 l 63 -217 l 139 0 z "}," ":{"ha":317,"x_min":0,"x_max":0,"o":""},"€":{"ha":633,"x_min":14,"x_max":603,"o":"m 500 -17 q 239 72 344 -17 q 97 315 133 160 l 14 315 l 14 428 l 82 428 q 81 476 81 443 q 82 525 81 508 l 14 525 l 14 638 l 97 638 q 239 881 133 793 q 500 969 344 969 q 603 956 557 969 l 603 817 q 514 829 561 829 q 362 778 425 829 q 269 638 299 728 l 519 638 l 519 525 l 249 525 q 247 476 247 508 q 249 428 247 443 l 519 428 l 519 315 l 269 315 q 362 174 299 224 q 514 124 425 124 q 603 136 561 124 l 603 -1 q 500 -17 550 -17 z "},"¢":{"ha":633,"x_min":57,"x_max":583,"o":"m 288 97 q 113 203 169 111 q 57 476 57 296 q 114 750 57 657 q 288 856 171 843 l 288 1004 l 364 1004 l 364 857 q 526 774 468 846 q 583 567 583 703 l 429 567 q 364 717 429 693 l 364 233 q 435 386 435 254 l 583 386 q 526 176 583 247 q 364 96 468 104 l 364 -68 l 288 -68 l 288 97 m 288 715 q 231 646 249 699 q 214 503 214 593 l 214 450 q 288 239 214 272 l 288 715 z "},"¤":{"ha":633,"x_min":0,"x_max":632,"o":"m 317 150 q 143 215 222 150 l 85 157 l 0 242 l 69 311 q 31 475 31 385 q 68 636 31 564 l 0 706 l 83 792 l 142 733 q 317 801 221 801 q 408 783 364 801 q 490 733 453 765 l 549 792 l 632 706 l 564 638 q 603 475 603 563 q 563 310 603 388 l 632 242 l 547 157 l 489 215 q 317 150 410 150 m 317 275 q 401 302 363 275 q 462 375 439 329 q 485 475 485 421 q 462 576 485 531 q 401 649 439 622 q 317 676 363 676 q 232 649 271 676 q 170 576 193 622 q 147 475 147 531 q 170 375 147 421 q 232 302 193 329 q 317 275 271 275 z "},"$":{"ha":633,"x_min":46,"x_max":583,"o":"m 275 96 q 106 167 167 106 q 46 326 46 229 l 47 343 l 200 343 l 200 333 q 221 261 200 289 q 275 224 242 233 l 275 422 q 163 462 207 442 q 88 524 118 482 q 57 636 57 567 q 117 789 57 732 q 275 856 176 846 l 275 1004 l 351 1004 l 351 857 q 506 796 446 849 q 565 660 565 743 l 564 628 l 411 628 l 411 642 q 351 731 411 708 l 351 551 q 470 512 424 532 q 550 448 517 492 q 583 331 583 404 q 351 96 583 113 l 351 -68 l 275 -68 l 275 96 m 275 731 q 228 700 246 721 q 210 650 210 679 q 226 605 210 622 q 275 575 243 588 l 275 731 m 351 221 q 408 251 386 229 q 431 310 431 274 q 410 362 431 342 q 351 397 390 382 l 351 221 z "},"ƒ":{"ha":633,"x_min":26,"x_max":621,"o":"m 144 -253 q 82 -248 117 -253 q 26 -236 47 -243 l 44 -112 l 113 -112 q 158 -97 140 -112 q 179 -53 175 -82 l 263 536 l 161 536 l 181 676 l 282 676 l 301 819 q 363 959 314 903 q 503 1015 411 1015 q 565 1010 531 1015 q 621 999 600 1006 l 603 875 l 535 875 q 490 860 507 875 q 468 815 472 844 l 449 676 l 575 676 l 556 536 l 429 536 l 346 -57 q 285 -197 333 -140 q 144 -253 236 -253 z "},"₣":{"ha":700,"x_min":56,"x_max":693,"o":"m 56 953 l 546 953 l 546 794 l 233 794 l 233 554 l 372 554 l 372 663 l 511 663 l 531 556 l 539 556 q 651 679 572 679 q 679 674 668 679 q 693 668 690 669 l 693 507 l 675 507 q 576 468 614 507 q 539 339 539 429 l 539 0 l 372 0 l 372 396 l 233 396 l 233 0 l 56 0 l 56 953 z "},"₤":{"ha":633,"x_min":13,"x_max":601,"o":"m 28 150 l 99 150 l 99 310 l 13 310 l 13 428 l 99 428 l 99 485 l 13 485 l 13 603 l 99 603 l 99 693 q 165 899 99 829 q 350 969 231 969 q 534 901 467 969 q 601 700 601 832 l 601 693 l 436 693 l 436 718 q 413 801 436 772 q 350 829 390 829 q 289 803 311 829 q 267 729 267 778 l 267 603 l 425 603 l 425 485 l 267 485 l 267 428 l 425 428 l 425 310 l 265 310 l 250 150 l 592 150 l 592 0 l 28 0 l 28 150 z "},"₧":{"ha":1333,"x_min":69,"x_max":1296,"o":"m 1068 -17 q 872 60 936 -17 l 872 0 q 827 -12 854 -7 q 778 -17 800 -17 q 646 40 686 -17 q 606 179 606 96 l 606 590 l 576 590 q 477 428 554 488 q 286 369 400 369 l 247 369 l 247 0 l 69 0 l 69 953 l 286 953 q 485 892 410 953 q 579 731 561 832 l 606 731 l 646 936 l 767 936 l 767 731 l 967 731 q 1065 747 1014 747 q 1183 719 1135 747 q 1256 647 1232 690 q 1281 557 1281 603 l 1279 517 l 1118 517 l 1118 535 q 1102 590 1117 569 q 1060 611 1088 611 q 1013 592 1028 611 q 997 550 997 574 q 1026 486 997 508 q 1117 435 1054 464 q 1208 387 1172 410 q 1270 322 1244 364 q 1296 217 1296 281 q 1237 43 1296 103 q 1068 -17 1178 -17 m 268 526 q 367 563 332 526 q 401 667 401 600 q 366 760 401 725 q 268 794 331 794 l 247 794 l 247 526 l 268 526 m 1063 119 q 1113 138 1094 119 q 1132 188 1132 157 q 1103 256 1132 232 q 1014 306 1074 281 q 922 353 958 331 q 860 421 886 376 q 835 535 835 465 q 842 590 835 560 l 767 590 l 767 183 q 782 139 767 154 q 825 124 797 124 l 836 124 q 825 203 825 161 q 826 222 825 214 q 828 231 828 229 l 989 231 l 989 208 q 1008 144 989 169 q 1063 119 1028 119 z "},"£":{"ha":633,"x_min":13,"x_max":601,"o":"m 28 150 l 99 150 l 99 400 l 13 400 l 13 540 l 99 540 l 99 693 q 165 899 99 829 q 350 969 231 969 q 534 901 467 969 q 601 700 601 832 l 601 682 l 436 682 l 436 718 q 413 801 436 772 q 350 829 390 829 q 289 803 311 829 q 267 729 267 778 l 267 540 l 433 540 l 433 400 l 265 400 l 250 150 l 592 150 l 592 0 l 28 0 l 28 150 z "},"¥":{"ha":633,"x_min":6,"x_max":626,"o":"m 233 213 l 39 213 l 39 325 l 232 325 l 232 422 l 39 422 l 39 535 l 185 535 l 6 953 l 188 953 l 318 588 l 324 588 l 453 953 l 626 953 l 449 535 l 594 535 l 594 421 l 400 421 l 400 325 l 594 325 l 594 213 l 400 213 l 400 0 l 233 0 l 233 213 z "},"≡":{"ha":664,"x_min":46,"x_max":618,"o":"m 46 758 l 618 758 l 618 614 l 46 614 l 46 758 m 46 463 l 618 463 l 618 318 l 46 318 l 46 463 m 46 167 l 618 167 l 618 24 l 46 24 l 46 167 z "},"⌡":{"ha":839,"x_min":246,"x_max":507,"o":"m 246 -251 q 353 -172 353 -251 l 329 1193 l 488 1193 q 507 -192 507 -29 q 438 -315 507 -282 q 246 -347 368 -347 l 246 -251 z "},"⌠":{"ha":839,"x_min":332,"x_max":593,"o":"m 351 -347 q 332 1038 332 875 q 401 1160 332 1128 q 593 1193 471 1193 l 593 1097 q 486 1018 486 1097 l 510 -347 l 351 -347 z "},"+":{"ha":665,"x_min":46,"x_max":618,"o":"m 260 282 l 46 282 l 46 426 l 260 426 l 260 710 l 403 710 l 403 426 l 618 426 l 618 282 l 403 282 l 403 0 l 260 0 l 260 282 z "},"−":{"ha":665,"x_min":46,"x_max":618,"o":"m 46 426 l 618 426 l 618 282 l 46 282 l 46 426 z "},"×":{"ha":665,"x_min":40,"x_max":644,"o":"m 40 154 l 243 356 l 40 558 l 140 658 l 342 456 l 544 658 l 644 558 l 442 356 l 644 154 l 544 54 l 342 257 l 140 54 l 40 154 z "},"÷":{"ha":763,"x_min":46,"x_max":715,"o":"m 308 653 l 453 653 l 453 499 l 308 499 l 308 653 m 46 426 l 715 426 l 715 282 l 46 282 l 46 426 m 308 210 l 453 210 l 453 57 l 308 57 l 308 210 z "},"=":{"ha":665,"x_min":46,"x_max":618,"o":"m 46 572 l 618 572 l 618 428 l 46 428 l 46 572 m 46 276 l 618 276 l 618 133 l 46 133 l 46 276 z "},"≠":{"ha":763,"x_min":100,"x_max":672,"o":"m 218 133 l 100 133 l 100 276 l 290 276 l 368 428 l 100 428 l 100 572 l 440 572 l 492 672 l 604 672 l 553 572 l 672 572 l 672 428 l 481 428 l 403 276 l 672 276 l 672 133 l 331 133 l 281 35 l 168 35 l 218 133 z "},">":{"ha":665,"x_min":47,"x_max":619,"o":"m 47 151 l 479 363 l 47 574 l 47 738 l 619 450 l 619 274 l 47 -12 l 47 151 z "},"<":{"ha":665,"x_min":47,"x_max":619,"o":"m 47 274 l 47 450 l 619 738 l 619 574 l 188 363 l 619 151 l 619 -12 l 47 274 z "},"≥":{"ha":763,"x_min":96,"x_max":668,"o":"m 96 364 l 528 575 l 96 786 l 96 950 l 668 663 l 668 486 l 96 200 l 96 364 m 96 143 l 668 143 l 668 0 l 96 0 l 96 143 z "},"≤":{"ha":763,"x_min":96,"x_max":668,"o":"m 96 486 l 96 663 l 668 950 l 668 786 l 236 575 l 668 364 l 668 200 l 96 486 m 96 143 l 668 143 l 668 0 l 96 0 l 96 143 z "},"±":{"ha":763,"x_min":94,"x_max":667,"o":"m 308 440 l 94 440 l 94 585 l 308 585 l 308 826 l 451 826 l 451 585 l 667 585 l 667 440 l 451 440 l 451 200 l 308 200 l 308 440 m 94 143 l 667 143 l 667 0 l 94 0 l 94 143 z "},"≈":{"ha":763,"x_min":38,"x_max":722,"o":"m 38 479 q 63 510 38 483 q 133 558 89 536 q 236 581 178 581 q 301 570 271 581 q 378 539 331 560 q 454 507 421 518 q 524 496 488 496 q 619 518 575 496 q 693 567 664 540 q 722 597 722 594 l 722 431 q 697 400 722 426 q 626 351 671 374 q 524 329 582 329 q 459 340 489 329 q 382 371 429 350 q 306 403 339 392 q 236 414 272 414 q 140 392 185 414 q 67 342 96 369 q 38 313 38 315 l 38 479 m 38 186 q 63 217 38 190 q 133 265 89 243 q 236 288 178 288 q 301 277 271 288 q 378 246 331 267 q 454 214 421 225 q 524 203 488 203 q 619 225 575 203 q 693 274 664 247 q 722 304 722 301 l 722 138 q 697 107 722 133 q 626 58 671 81 q 524 36 582 36 q 459 47 489 36 q 382 78 429 57 q 306 110 339 99 q 236 121 272 121 q 140 99 185 121 q 67 49 96 76 q 38 19 38 22 l 38 186 z "},"~":{"ha":665,"x_min":38,"x_max":628,"o":"m 38 440 q 60 471 38 444 q 120 519 82 497 q 208 542 158 542 q 265 531 238 542 q 331 500 292 521 q 398 468 369 479 q 457 457 426 457 q 540 479 501 457 q 603 528 578 501 q 628 558 628 556 l 628 392 q 606 361 628 388 q 545 313 583 335 q 457 290 507 290 q 401 301 428 290 q 335 332 374 311 q 267 364 296 353 q 208 375 239 375 q 126 353 164 375 q 63 303 88 331 q 38 274 38 276 l 38 440 z "},"¬":{"ha":665,"x_min":40,"x_max":618,"o":"m 474 486 l 40 486 l 40 643 l 618 643 l 618 260 l 474 260 l 474 486 z "},"∞":{"ha":990,"x_min":65,"x_max":922,"o":"m 272 192 q 170 219 218 192 q 94 296 122 246 q 65 411 65 346 q 94 527 65 476 q 172 606 122 578 q 283 635 222 635 q 404 603 351 635 q 503 510 457 572 q 542 554 510 518 q 618 613 575 590 q 711 635 661 635 q 817 608 768 635 q 894 533 865 582 q 922 419 922 485 q 893 298 922 350 q 815 219 864 246 q 711 192 767 192 q 601 218 656 192 q 492 322 546 244 q 390 224 440 257 q 272 192 339 192 m 290 307 q 429 407 361 307 q 357 498 385 475 q 286 521 329 521 q 222 492 247 521 q 196 413 196 464 q 223 338 196 369 q 290 307 250 307 m 706 307 q 768 340 744 307 q 792 411 792 374 q 766 490 792 458 q 699 521 740 521 q 636 499 664 521 q 560 414 608 476 q 637 328 606 350 q 706 307 668 307 z "},"∩":{"ha":1003,"x_min":110,"x_max":890,"o":"m 110 569 q 162 765 110 676 q 303 903 214 853 q 499 953 392 953 q 694 903 606 953 q 835 765 783 853 q 888 569 888 678 l 890 0 l 724 0 l 724 569 q 694 691 724 638 q 613 774 664 744 q 500 804 561 804 q 388 774 439 804 q 306 691 336 744 q 276 569 276 638 l 276 0 l 110 0 l 110 569 z "},"∫":{"ha":381,"x_min":32,"x_max":360,"o":"m 32 -99 q 136 -18 136 -99 q 115 513 131 118 q 99 1038 99 907 q 168 1160 99 1128 q 360 1193 238 1193 l 360 1097 q 253 1018 253 1097 q 276 485 260 882 q 292 -40 292 89 q 223 -163 292 -131 q 32 -196 154 -196 l 32 -99 z "},"Ω":{"ha":1067,"x_min":136,"x_max":926,"o":"m 136 158 l 171 158 q 217 150 178 158 q 274 139 244 143 q 172 279 208 194 q 136 476 136 364 q 240 847 136 724 q 532 969 343 969 q 824 847 721 969 q 926 476 926 724 q 890 279 926 364 q 789 139 854 194 q 843 150 814 143 q 893 158 885 158 l 926 158 l 926 0 l 585 0 l 585 113 q 704 210 664 133 q 744 411 744 288 l 744 511 q 690 737 744 657 q 532 817 636 817 q 373 736 428 817 q 318 511 318 656 l 318 411 q 359 213 318 289 q 479 114 400 136 l 479 0 l 136 0 l 136 158 z "},"∆":{"ha":818,"x_min":18,"x_max":789,"o":"m 18 76 l 300 953 l 507 953 l 789 76 l 789 0 l 18 0 l 18 76 m 583 158 l 401 751 l 396 751 l 214 158 l 583 158 z "},"∏":{"ha":1143,"x_min":133,"x_max":1010,"o":"m 247 863 l 133 863 l 133 1004 l 1010 1004 l 1010 863 l 894 863 l 894 -178 l 726 -178 l 726 863 l 415 863 l 415 -178 l 247 -178 l 247 863 z "},"∑":{"ha":990,"x_min":107,"x_max":933,"o":"m 107 -90 l 510 415 l 119 911 l 119 1004 l 910 1004 l 910 868 l 369 868 l 369 863 l 706 438 l 354 -8 l 354 -14 l 933 -14 l 933 -178 l 107 -178 l 107 -90 z "},"√":{"ha":763,"x_min":28,"x_max":775,"o":"m 397 -206 q 163 407 318 -1 l 56 365 l 28 449 l 267 543 q 369 260 300 449 q 443 61 413 146 q 472 -42 457 22 l 663 1190 l 775 1190 l 550 -206 l 397 -206 z "},"µ":{"ha":696,"x_min":76,"x_max":619,"o":"m 76 731 l 243 731 l 243 264 q 267 165 243 194 q 339 135 290 135 q 420 176 388 135 q 453 278 453 217 l 453 731 l 619 731 l 619 0 l 481 0 l 464 90 l 456 90 q 390 13 429 43 q 299 -17 350 -17 q 243 -6 269 -17 l 243 -240 l 76 -240 l 76 731 z "},"∂":{"ha":686,"x_min":50,"x_max":633,"o":"m 301 -17 q 164 24 221 -17 q 78 133 107 64 q 50 283 50 201 q 87 463 50 385 q 183 582 124 540 q 313 624 243 624 q 406 594 367 624 q 461 533 444 565 l 467 533 q 468 581 468 542 q 444 733 468 664 q 376 843 419 803 q 281 883 333 883 q 131 836 196 883 l 131 981 q 308 1021 208 1021 q 469 969 394 1021 q 588 807 543 917 q 633 532 633 697 q 547 128 633 274 q 301 -17 460 -17 m 311 125 q 409 203 369 125 q 457 388 449 281 q 416 458 446 428 q 344 489 386 489 q 283 460 311 489 q 240 384 256 432 q 224 279 224 336 q 247 167 224 210 q 311 125 269 125 z "},"∟":{"ha":1360,"x_min":218,"x_max":1114,"o":"m 218 868 l 382 868 l 382 153 l 1114 153 l 1114 0 l 218 0 l 218 868 z "},"%":{"ha":1013,"x_min":49,"x_max":965,"o":"m 240 468 q 97 524 144 468 q 49 718 49 581 q 97 913 49 856 q 240 969 144 969 q 384 913 336 969 q 432 718 432 856 q 384 524 432 581 q 240 468 336 468 m 739 953 l 858 953 l 276 0 l 158 0 l 739 953 m 240 569 q 294 605 279 569 q 308 708 308 640 l 308 729 q 294 833 308 797 q 240 868 279 868 q 187 833 201 868 q 172 729 172 797 l 172 708 q 187 605 172 640 q 240 569 201 569 m 774 -17 q 630 40 678 -17 q 582 233 582 96 q 630 428 582 371 q 774 485 678 485 q 917 428 869 485 q 965 233 965 371 q 917 40 965 96 q 774 -17 869 -17 m 774 85 q 827 120 813 85 q 842 224 842 156 l 842 244 q 827 348 842 313 q 774 383 813 383 q 720 348 735 383 q 706 244 706 313 l 706 224 q 720 120 706 156 q 774 85 735 85 z "},"‰":{"ha":1139,"x_min":3,"x_max":1139,"o":"m 174 468 q 46 524 89 468 q 3 718 3 581 q 46 913 3 857 q 174 969 89 969 q 301 913 258 969 q 344 718 344 857 q 301 524 344 581 q 174 468 258 468 m 488 953 l 585 953 l 275 0 l 179 0 l 488 953 m 174 569 q 211 600 201 569 q 221 708 221 631 l 221 729 q 211 838 221 807 q 174 868 201 868 q 136 838 146 868 q 126 729 126 807 l 126 708 q 136 600 126 631 q 174 569 146 569 m 593 -17 q 465 40 508 -17 q 422 233 422 96 q 465 428 422 372 q 593 485 508 485 q 721 428 678 485 q 764 233 764 372 q 721 40 764 96 q 593 -17 678 -17 m 968 -17 q 840 40 883 -17 q 797 233 797 96 q 840 428 797 372 q 968 485 883 485 q 1096 428 1053 485 q 1139 233 1139 372 q 1096 40 1139 96 q 968 -17 1053 -17 m 593 85 q 631 115 621 85 q 640 224 640 146 l 640 244 q 631 353 640 322 q 593 383 621 383 q 556 353 565 383 q 546 244 546 322 l 546 224 q 556 115 546 146 q 593 85 565 85 m 968 85 q 1006 115 996 85 q 1015 224 1015 146 l 1015 244 q 1006 353 1015 322 q 968 383 996 383 q 931 353 940 383 q 921 244 921 322 l 921 224 q 931 115 921 146 q 968 85 940 85 z "},"⌐":{"ha":665,"x_min":47,"x_max":625,"o":"m 47 643 l 625 643 l 625 486 l 192 486 l 192 260 l 47 260 l 47 643 z "},"∕":{"ha":190,"x_min":-231,"x_max":411,"o":"m 319 969 l 411 969 l -137 -17 l -231 -17 l 319 969 z "},"∙":{"ha":379,"x_min":101,"x_max":275,"o":"m 101 571 l 275 571 l 275 383 l 101 383 l 101 571 z "},"↑":{"ha":694,"x_min":94,"x_max":604,"o":"m 274 715 l 94 642 l 94 714 l 335 988 l 364 988 l 604 714 l 604 642 l 425 715 l 425 -287 l 274 -287 l 274 715 z "},"→":{"ha":1389,"x_min":58,"x_max":1333,"o":"m 1061 275 l 58 275 l 58 425 l 1061 425 l 988 606 l 1060 606 l 1333 364 l 1333 335 l 1060 94 l 988 94 l 1061 275 z "},"↓":{"ha":694,"x_min":94,"x_max":606,"o":"m 94 -14 l 94 58 l 275 -15 l 275 988 l 425 988 l 425 -15 l 606 58 l 606 -14 l 364 -287 l 335 -287 l 94 -14 z "},"←":{"ha":1389,"x_min":58,"x_max":1333,"o":"m 58 336 l 58 365 l 332 606 l 404 606 l 331 425 l 1333 425 l 1333 275 l 331 275 l 404 94 l 332 94 l 58 336 z "},"↔":{"ha":1389,"x_min":58,"x_max":1333,"o":"m 58 336 l 58 365 l 332 606 l 404 606 l 331 426 l 1061 426 l 988 606 l 1060 606 l 1333 365 l 1333 336 l 1060 96 l 988 96 l 1061 275 l 331 275 l 404 96 l 332 96 l 58 336 z "},"↕":{"ha":694,"x_min":90,"x_max":601,"o":"m 90 -14 l 90 58 l 271 -15 l 271 715 l 90 642 l 90 714 l 332 988 l 361 988 l 601 714 l 601 642 l 421 715 l 421 -15 l 601 58 l 601 -14 l 361 -287 l 332 -287 l 90 -14 z "},"↨":{"ha":694,"x_min":90,"x_max":601,"o":"m 90 135 l 90 207 l 271 133 l 271 715 l 90 642 l 90 714 l 332 988 l 361 988 l 601 714 l 601 642 l 421 715 l 421 133 l 601 207 l 601 135 l 361 -139 l 332 -139 l 90 135 m 92 -204 l 601 -204 l 601 -324 l 92 -324 l 92 -204 z "},"@":{"ha":1111,"x_min":35,"x_max":1078,"o":"m 528 -212 q 163 -71 292 -212 q 35 364 35 71 q 106 712 35 576 q 299 908 178 847 q 572 969 419 969 q 940 841 803 969 q 1078 446 1078 713 q 1035 206 1078 299 q 930 72 993 113 q 801 31 867 31 q 706 53 738 31 q 657 118 675 75 l 650 118 q 582 52 619 74 q 483 31 544 31 q 369 73 421 31 q 317 217 317 115 q 403 396 317 343 q 646 449 489 449 l 646 518 q 631 578 646 557 q 576 600 617 600 q 515 580 533 600 q 497 531 497 560 l 497 513 l 350 513 q 349 540 349 519 q 410 673 349 622 q 572 724 471 724 q 742 673 686 724 q 799 528 799 622 l 799 211 q 840 158 799 158 q 936 228 896 158 q 976 447 976 297 q 868 769 976 664 q 571 874 760 874 q 251 744 365 874 q 136 363 136 615 q 232 3 136 122 q 528 -117 328 -117 q 646 -103 576 -117 q 750 -72 715 -90 l 750 -175 q 642 -201 710 -190 q 528 -212 575 -212 m 546 157 q 622 197 597 157 q 646 301 646 238 l 646 339 q 472 231 472 339 q 490 176 472 196 q 546 157 508 157 z "},"&":{"ha":822,"x_min":50,"x_max":801,"o":"m 374 -17 q 206 16 279 -17 q 91 110 132 49 q 50 256 50 172 q 94 406 50 346 q 213 489 139 465 l 213 494 q 107 578 144 528 q 69 708 69 629 q 156 901 69 833 q 388 969 242 969 q 546 937 476 969 q 653 845 615 904 q 692 708 692 786 l 692 669 l 525 669 l 525 696 q 385 829 525 829 q 281 795 318 829 q 243 701 243 761 q 281 594 243 633 q 379 554 319 554 l 436 554 l 436 414 l 383 414 q 224 264 224 414 q 264 159 224 194 q 376 124 304 124 q 488 160 450 124 q 525 265 525 197 l 525 554 l 801 554 l 801 414 l 692 414 l 692 269 q 609 60 692 138 q 374 -17 526 -17 z "},"¶":{"ha":633,"x_min":25,"x_max":624,"o":"m 260 347 q 140 398 193 356 q 56 506 86 440 q 25 649 25 571 q 60 801 25 732 q 157 912 96 871 q 292 953 218 953 l 624 953 l 624 847 l 557 847 l 557 -240 l 444 -240 l 444 847 l 371 847 l 371 -240 l 260 -240 l 260 347 z "},"§":{"ha":633,"x_min":51,"x_max":599,"o":"m 318 -253 q 141 -199 211 -253 q 71 -54 71 -146 l 72 -22 l 242 -22 q 263 -93 242 -69 q 324 -117 285 -117 q 386 -97 363 -117 q 410 -44 410 -78 q 390 23 410 -6 q 340 70 369 51 q 257 115 310 89 q 150 176 190 149 q 81 252 110 204 q 51 372 51 300 q 75 481 51 428 q 142 571 99 533 q 71 747 71 639 q 143 912 71 854 q 332 969 215 969 q 509 916 439 969 q 579 771 579 863 l 578 739 l 408 739 q 387 810 408 786 q 326 833 365 833 q 264 814 288 833 q 240 761 240 794 q 260 694 240 722 q 310 647 281 665 q 393 601 340 628 q 500 540 460 568 q 569 465 540 513 q 599 344 599 417 q 575 235 599 288 q 508 146 551 183 q 579 -31 579 75 q 507 -195 579 -137 q 318 -253 435 -253 m 404 217 q 435 296 435 254 q 414 375 435 342 q 362 430 393 408 q 276 481 331 451 l 244 499 q 215 421 215 460 q 237 340 215 374 q 290 285 258 307 q 376 232 322 263 l 404 217 z "},"©":{"ha":839,"x_min":22,"x_max":817,"o":"m 419 -17 q 208 44 297 -17 q 70 215 118 104 q 22 476 22 326 q 70 738 22 626 q 208 909 118 849 q 419 969 297 969 q 631 909 542 969 q 769 738 721 849 q 817 476 817 626 q 769 215 817 326 q 631 44 721 104 q 419 -17 542 -17 m 419 60 q 590 110 518 60 q 701 256 663 161 q 739 476 739 350 q 701 697 739 603 q 590 842 663 792 q 419 893 518 893 q 249 842 321 893 q 138 697 176 792 q 100 476 100 603 q 138 256 100 350 q 249 110 176 161 q 419 60 321 60 m 422 186 q 257 258 315 186 q 199 476 199 331 q 257 695 199 622 q 422 768 315 768 q 572 713 515 768 q 629 549 629 658 l 508 549 q 485 635 508 606 q 422 664 463 664 q 347 620 372 664 q 321 497 321 576 l 321 457 q 347 334 321 378 q 426 290 374 290 q 490 319 467 290 q 513 404 513 347 l 629 404 q 572 242 629 297 q 422 186 515 186 z "},"®":{"ha":839,"x_min":22,"x_max":817,"o":"m 419 -17 q 208 44 297 -17 q 70 215 118 104 q 22 476 22 326 q 70 738 22 626 q 208 909 118 849 q 419 969 297 969 q 631 909 542 969 q 769 738 721 849 q 817 476 817 626 q 769 215 817 326 q 631 44 721 104 q 419 -17 542 -17 m 419 60 q 590 110 518 60 q 701 256 663 161 q 739 476 739 350 q 701 697 739 603 q 590 842 663 792 q 419 893 518 893 q 249 842 321 893 q 138 697 176 792 q 100 476 100 603 q 138 256 100 350 q 249 110 176 161 q 419 60 321 60 m 599 190 q 493 297 493 190 q 470 395 493 367 q 411 424 447 424 l 361 424 l 361 194 l 242 194 l 242 758 l 461 758 q 574 719 529 758 q 618 617 618 679 q 594 533 618 565 q 531 485 571 500 l 531 479 q 587 434 561 468 q 613 329 613 400 q 622 258 613 281 q 653 229 632 236 l 653 201 q 629 194 647 197 q 599 190 611 190 m 418 531 q 474 549 453 531 q 496 594 496 567 q 476 635 496 621 q 422 650 456 650 l 361 650 l 361 531 l 418 531 z "},"™":{"ha":1139,"x_min":107,"x_max":1014,"o":"m 246 860 l 107 860 l 107 953 l 490 953 l 490 860 l 350 860 l 350 392 l 246 392 l 246 860 m 535 953 l 689 953 l 776 560 l 782 560 l 869 953 l 1014 953 l 1014 392 l 914 392 l 914 799 l 908 799 l 817 392 l 724 392 l 633 799 l 626 799 l 626 392 l 535 392 l 535 953 z "},"℅":{"ha":1097,"x_min":54,"x_max":1006,"o":"m 249 431 q 101 496 149 431 q 54 700 54 561 q 102 903 54 838 q 246 969 150 969 q 378 919 331 969 q 425 764 425 869 l 306 764 q 246 871 306 871 q 193 833 210 871 q 176 718 176 794 l 176 682 q 193 567 176 604 q 249 529 210 529 q 294 556 281 529 q 308 636 308 582 l 425 636 q 379 481 425 531 q 249 431 333 431 m 753 969 l 858 969 l 282 -17 l 175 -17 l 753 969 m 800 -18 q 645 48 696 -18 q 594 251 594 114 q 645 455 594 389 q 800 521 696 521 q 955 455 904 521 q 1006 251 1006 389 q 955 48 1006 114 q 800 -18 904 -18 m 800 81 q 864 118 844 81 q 883 233 883 156 l 883 269 q 864 385 883 347 q 800 422 844 422 q 736 385 756 422 q 717 269 717 347 l 717 233 q 736 118 717 156 q 800 81 756 81 z "},"°":{"ha":556,"x_min":78,"x_max":472,"o":"m 275 575 q 176 601 221 575 q 104 673 131 628 q 78 772 78 718 q 104 872 78 826 q 176 943 131 917 q 275 969 221 969 q 374 943 329 969 q 446 872 419 917 q 472 772 472 826 q 446 673 472 718 q 374 601 419 628 q 275 575 329 575 m 275 669 q 347 699 318 669 q 376 772 376 729 q 347 844 376 815 q 275 874 318 874 q 202 844 232 874 q 172 772 172 815 q 202 699 172 729 q 275 669 232 669 z "},"|":{"ha":319,"x_min":97,"x_max":222,"o":"m 97 1004 l 222 1004 l 222 -240 l 97 -240 l 97 1004 z "},"¦":{"ha":319,"x_min":97,"x_max":222,"o":"m 97 1004 l 222 1004 l 222 488 l 97 488 l 97 1004 m 97 276 l 222 276 l 222 -240 l 97 -240 l 97 276 z "},"ℓ":{"ha":681,"x_min":76,"x_max":582,"o":"m 406 -17 q 215 52 278 -17 q 150 232 151 121 l 150 236 q 76 183 83 188 l 76 307 q 150 365 117 336 l 150 706 q 216 946 150 871 q 382 1021 282 1021 q 529 966 476 1021 q 582 808 582 911 q 510 606 582 718 q 317 378 438 493 l 317 275 q 347 158 317 196 q 424 121 376 121 q 561 163 496 121 l 561 19 q 406 -17 489 -17 m 317 529 q 458 810 458 693 q 400 904 458 904 q 341 856 365 904 q 317 706 317 808 l 317 529 z "},"†":{"ha":633,"x_min":35,"x_max":597,"o":"m 264 590 l 35 565 l 35 722 l 264 699 l 240 953 l 390 953 l 367 699 l 597 722 l 597 565 l 367 590 l 394 -240 l 236 -240 l 264 590 z "},"‡":{"ha":633,"x_min":35,"x_max":597,"o":"m 264 18 l 35 -6 l 35 151 l 264 126 l 236 361 l 264 590 l 35 565 l 35 722 l 264 699 l 240 953 l 390 953 l 367 699 l 597 722 l 597 565 l 367 590 l 394 361 l 367 126 l 597 151 l 597 -6 l 367 18 l 390 -240 l 240 -240 l 264 18 z "},"℮":{"ha":833,"x_min":63,"x_max":776,"o":"m 419 -17 q 230 33 311 -17 q 106 168 149 82 q 63 365 63 254 q 106 563 63 476 q 230 698 149 649 q 419 747 311 747 q 608 697 528 747 q 733 556 689 646 q 776 351 776 465 l 776 344 l 213 344 l 213 115 q 419 42 293 42 q 578 82 510 42 q 683 193 647 122 l 731 164 q 606 31 686 79 q 419 -17 526 -17 m 626 403 l 626 613 q 419 689 543 689 q 213 614 294 689 l 213 403 l 626 403 z "},"№":{"ha":1269,"x_min":83,"x_max":1207,"o":"m 1013 422 q 818 696 818 422 q 1013 969 818 969 q 1207 696 1207 969 q 1013 422 1207 422 m 83 953 l 240 953 l 535 428 q 559 381 544 413 q 578 339 574 350 l 582 343 l 581 422 l 581 953 l 739 953 l 739 0 l 581 0 l 286 525 q 262 575 275 547 q 243 614 249 603 l 238 610 q 239 578 238 601 q 240 531 240 554 l 240 0 l 83 0 l 83 953 m 1013 533 q 1079 678 1079 533 l 1079 714 q 1013 858 1079 858 q 963 822 979 858 q 946 714 946 785 l 946 678 q 963 570 946 607 q 1013 533 979 533 m 842 367 l 1185 367 l 1185 250 l 842 250 l 842 367 z "},"^":{"ha":665,"x_min":44,"x_max":628,"o":"m 261 953 l 410 953 l 628 408 l 475 408 l 335 783 l 197 408 l 44 408 l 261 953 z "},"⌂":{"ha":833,"x_min":104,"x_max":729,"o":"m 104 431 l 417 782 l 729 431 l 729 0 l 104 0 l 104 431 m 601 124 l 601 385 l 417 594 l 232 385 l 232 124 l 601 124 z "},"′":{"ha":271,"x_min":32,"x_max":221,"o":"m 67 953 l 219 953 l 221 949 l 156 703 l 32 703 l 67 953 z "},"″":{"ha":540,"x_min":32,"x_max":431,"o":"m 67 953 l 219 953 l 221 949 l 156 703 l 32 703 l 67 953 m 276 953 l 429 953 l 431 949 l 365 703 l 242 703 l 276 953 z "},"":{"ha":0,"x_min":-278,"x_max":-106,"o":"m -210 -247 l -278 -247 l -278 -76 l -106 -76 l -106 -232 l -169 -365 l -260 -365 l -210 -247 z "},"ˉ":{"ha":694,"x_min":0,"x_max":694,"o":"m 0 1194 l 694 1194 l 694 1099 l 0 1099 l 0 1194 z "},"´":{"ha":379,"x_min":67,"x_max":354,"o":"m 186 1004 l 353 1004 l 354 1000 l 204 821 l 67 821 l 186 1004 z "},"˘":{"ha":379,"x_min":1,"x_max":372,"o":"m 186 856 q 90 878 132 856 q 24 934 47 900 q 1 1004 1 968 l 104 1004 q 131 973 108 988 q 186 958 154 958 q 243 973 219 958 q 269 1004 267 988 l 372 1004 q 349 934 372 968 q 284 878 326 900 q 186 856 242 856 z "},"ˇ":{"ha":379,"x_min":0,"x_max":374,"o":"m 0 1004 l 125 1004 l 188 908 l 249 1004 l 374 1004 l 256 817 l 119 817 l 0 1004 z "},"¸":{"ha":379,"x_min":50,"x_max":318,"o":"m 167 -253 q 50 -242 103 -253 l 50 -174 l 149 -174 q 186 -166 174 -174 q 199 -140 199 -158 q 188 -115 199 -124 q 151 -107 178 -107 l 106 -107 l 121 15 l 215 15 l 208 -46 q 288 -72 257 -49 q 318 -140 318 -96 q 272 -228 318 -203 q 167 -253 225 -253 z "},"ˆ":{"ha":379,"x_min":0,"x_max":374,"o":"m 119 1004 l 256 1004 l 374 817 l 249 817 l 188 913 l 125 817 l 0 817 l 119 1004 z "},"¨":{"ha":379,"x_min":-1,"x_max":381,"o":"m -1 1004 l 138 1004 l 138 853 l -1 853 l -1 1004 m 242 1004 l 381 1004 l 381 853 l 242 853 l 242 1004 z "},"˙":{"ha":379,"x_min":115,"x_max":264,"o":"m 115 1004 l 264 1004 l 264 844 l 115 844 l 115 1004 z "},"`":{"ha":379,"x_min":29,"x_max":317,"o":"m 29 1000 l 31 1004 l 197 1004 l 317 821 l 179 821 l 29 1000 z "},"˝":{"ha":379,"x_min":6,"x_max":426,"o":"m 92 1004 l 231 1004 l 232 1000 l 115 821 l 6 821 l 92 1004 m 286 1004 l 425 1004 l 426 1000 l 310 821 l 200 821 l 286 1004 z "},"¯":{"ha":379,"x_min":13,"x_max":367,"o":"m 13 953 l 367 953 l 367 832 l 13 832 l 13 953 z "},"˛":{"ha":379,"x_min":86,"x_max":315,"o":"m 224 -253 q 126 -223 167 -253 q 86 -128 86 -193 q 103 -49 86 -82 q 153 17 121 -17 l 261 17 l 264 11 q 235 -33 247 -7 q 222 -86 222 -60 q 238 -137 222 -117 q 285 -157 253 -157 l 315 -157 l 315 -233 q 224 -253 265 -253 z "},"˚":{"ha":379,"x_min":60,"x_max":326,"o":"m 193 779 q 99 818 139 779 q 60 913 60 857 q 99 1007 60 968 q 193 1046 138 1046 q 288 1006 249 1046 q 326 913 326 967 q 288 818 326 857 q 193 779 249 779 m 193 849 q 238 867 219 849 q 257 913 257 886 q 238 958 257 939 q 193 976 219 976 q 148 958 167 976 q 129 913 129 940 q 148 867 129 886 q 193 849 167 849 z "},"˜":{"ha":379,"x_min":-44,"x_max":422,"o":"m -44 835 q -10 953 -44 901 q 92 1004 25 1004 q 133 998 114 1004 q 188 978 153 992 q 236 959 217 965 q 276 953 256 953 q 313 965 300 953 q 331 1004 326 976 l 422 1004 q 388 886 422 938 q 285 835 353 835 q 244 841 263 835 q 190 861 225 847 q 142 880 161 874 q 101 886 122 886 q 47 835 54 886 l -44 835 z "}}}
